<?xml version="1.0" encoding="UTF-8" standalone="no"?>
<!DOCTYPE svg PUBLIC "-//W3C//DTD SVG 1.1//EN"
 "http://www.w3.org/Graphics/SVG/1.1/DTD/svg11.dtd">
<!-- Generated by graphviz version 2.47.3 (20210619.1520)
 -->
<!-- Title: dependencies Pages: 1 -->
<svg width="446pt" height="247pt"
 viewBox="0.00 0.00 446.00 246.80" xmlns="http://www.w3.org/2000/svg" xmlns:xlink="http://www.w3.org/1999/xlink">
<g id="graph0" class="graph" transform="scale(1 1) rotate(0) translate(4 242.8)">
<title>dependencies</title>
<polygon fill="white" stroke="transparent" points="-4,4 -4,-242.8 442,-242.8 442,4 -4,4"/>
<text text-anchor="middle" x="219" y="-8.2" font-family="sans-serif" font-size="14.00">dependencies</text>
<g id="clust1" class="cluster">
<title>cluster_RoleModule</title>
<polygon fill="none" stroke="black" stroke-dasharray="1,5" points="8,-32.8 8,-230.8 430,-230.8 430,-32.8 8,-32.8"/>
</g>
<g id="clust6" class="cluster">
<title>cluster_RoleModule_providers</title>
<polygon fill="none" stroke="black" points="128,-40.8 128,-92.8 422,-92.8 422,-40.8 128,-40.8"/>
</g>
<g id="clust4" class="cluster">
<title>cluster_RoleModule_exports</title>
<polygon fill="none" stroke="black" points="84,-170.8 84,-222.8 314,-222.8 314,-170.8 84,-170.8"/>
</g>
<g id="clust3" class="cluster">
<title>cluster_RoleModule_imports</title>
<polygon fill="none" stroke="black" points="16,-40.8 16,-92.8 120,-92.8 120,-40.8 16,-40.8"/>
</g>
<!-- AuthModule -->
<g id="node1" class="node">
<title>AuthModule</title>
<polygon fill="#8dd3c7" stroke="black" points="111.55,-84.8 108.55,-88.8 87.55,-88.8 84.55,-84.8 24.45,-84.8 24.45,-48.8 111.55,-48.8 111.55,-84.8"/>
<text text-anchor="middle" x="68" y="-62.6" font-family="Times,serif" font-size="14.00">AuthModule</text>
</g>
<!-- RoleModule -->
<g id="node2" class="node">
<title>RoleModule</title>
<polygon fill="#8dd3c7" stroke="black" points="236.99,-149.8 233.99,-153.8 212.99,-153.8 209.99,-149.8 151.01,-149.8 151.01,-113.8 236.99,-113.8 236.99,-149.8"/>
<text text-anchor="middle" x="194" y="-127.6" font-family="Times,serif" font-size="14.00">RoleModule</text>
</g>
<!-- AuthModule&#45;&gt;RoleModule -->
<g id="edge1" class="edge">
<title>AuthModule&#45;&gt;RoleModule</title>
<path fill="none" stroke="black" d="M101.91,-84.91C101.91,-104.14 101.91,-131.8 101.91,-131.8 101.91,-131.8 140.92,-131.8 140.92,-131.8"/>
<polygon fill="black" stroke="black" points="140.92,-135.3 150.92,-131.8 140.92,-128.3 140.92,-135.3"/>
</g>
<!-- RoleRepository  -->
<g id="node3" class="node">
<title>RoleRepository </title>
<polygon fill="#fb8072" stroke="black" points="305.88,-214.8 198.12,-214.8 198.12,-178.8 305.88,-178.8 305.88,-214.8"/>
<text text-anchor="middle" x="252" y="-192.6" font-family="Times,serif" font-size="14.00">RoleRepository </text>
</g>
<!-- RoleModule&#45;&gt;RoleRepository  -->
<g id="edge2" class="edge">
<title>RoleModule&#45;&gt;RoleRepository </title>
<path fill="none" stroke="black" stroke-dasharray="5,2" d="M217.65,-149.91C217.65,-149.91 217.65,-168.79 217.65,-168.79"/>
<polygon fill="black" stroke="black" points="214.15,-168.79 217.65,-178.79 221.15,-168.79 214.15,-168.79"/>
</g>
<!-- RoleService  -->
<g id="node4" class="node">
<title>RoleService </title>
<polygon fill="#fb8072" stroke="black" points="179.92,-214.8 92.08,-214.8 92.08,-178.8 179.92,-178.8 179.92,-214.8"/>
<text text-anchor="middle" x="136" y="-192.6" font-family="Times,serif" font-size="14.00">RoleService </text>
</g>
<!-- RoleModule&#45;&gt;RoleService  -->
<g id="edge3" class="edge">
<title>RoleModule&#45;&gt;RoleService </title>
<path fill="none" stroke="black" stroke-dasharray="5,2" d="M165.48,-149.91C165.48,-149.91 165.48,-168.79 165.48,-168.79"/>
<polygon fill="black" stroke="black" points="161.98,-168.79 165.48,-178.79 168.98,-168.79 161.98,-168.79"/>
</g>
<!-- RoleRepository -->
<g id="node5" class="node">
<title>RoleRepository</title>
<ellipse fill="#fdb462" stroke="black" cx="342" cy="-66.8" rx="71.81" ry="18"/>
<text text-anchor="middle" x="342" y="-62.6" font-family="Times,serif" font-size="14.00">RoleRepository</text>
</g>
<!-- RoleRepository&#45;&gt;RoleModule -->
<g id="edge4" class="edge">
<title>RoleRepository&#45;&gt;RoleModule</title>
<path fill="none" stroke="black" d="M288.02,-78.72C288.02,-97.49 288.02,-131.8 288.02,-131.8 288.02,-131.8 247.16,-131.8 247.16,-131.8"/>
<polygon fill="black" stroke="black" points="247.16,-128.3 237.16,-131.8 247.16,-135.3 247.16,-128.3"/>
</g>
<!-- RoleService -->
<g id="node6" class="node">
<title>RoleService</title>
<ellipse fill="#fdb462" stroke="black" cx="194" cy="-66.8" rx="58.46" ry="18"/>
<text text-anchor="middle" x="194" y="-62.6" font-family="Times,serif" font-size="14.00">RoleService</text>
</g>
<!-- RoleService&#45;&gt;RoleModule -->
<g id="edge5" class="edge">
<title>RoleService&#45;&gt;RoleModule</title>
<path fill="none" stroke="black" d="M194,-84.91C194,-84.91 194,-103.79 194,-103.79"/>
<polygon fill="black" stroke="black" points="190.5,-103.79 194,-113.79 197.5,-103.79 190.5,-103.79"/>
</g>
</g>
</svg>
