<?xml version="1.0" encoding="UTF-8" standalone="no"?>
<!DOCTYPE svg PUBLIC "-//W3C//DTD SVG 1.1//EN"
 "http://www.w3.org/Graphics/SVG/1.1/DTD/svg11.dtd">
<!-- Generated by graphviz version 2.47.3 (20210619.1520)
 -->
<!-- Title: dependencies Pages: 1 -->
<svg width="446pt" height="247pt"
 viewBox="0.00 0.00 446.00 246.80" xmlns="http://www.w3.org/2000/svg" xmlns:xlink="http://www.w3.org/1999/xlink">
<g id="graph0" class="graph" transform="scale(1 1) rotate(0) translate(4 242.8)">
<title>dependencies</title>
<polygon fill="white" stroke="transparent" points="-4,4 -4,-242.8 442,-242.8 442,4 -4,4"/>
<text text-anchor="middle" x="219" y="-8.2" font-family="sans-serif" font-size="14.00">dependencies</text>
<g id="clust1" class="cluster">
<title>cluster_RoleModule</title>
<polygon fill="none" stroke="black" stroke-dasharray="1,5" points="8,-32.8 8,-230.8 430,-230.8 430,-32.8 8,-32.8"/>
</g>
<g id="clust3" class="cluster">
<title>cluster_RoleModule_imports</title>
<polygon fill="none" stroke="black" points="318,-40.8 318,-92.8 422,-92.8 422,-40.8 318,-40.8"/>
</g>
<g id="clust6" class="cluster">
<title>cluster_RoleModule_providers</title>
<polygon fill="none" stroke="black" points="16,-40.8 16,-92.8 310,-92.8 310,-40.8 16,-40.8"/>
</g>
<g id="clust4" class="cluster">
<title>cluster_RoleModule_exports</title>
<polygon fill="none" stroke="black" points="120,-170.8 120,-222.8 350,-222.8 350,-170.8 120,-170.8"/>
</g>
<!-- AuthModule -->
<g id="node1" class="node">
<title>AuthModule</title>
<polygon fill="#8dd3c7" stroke="black" points="413.55,-84.8 410.55,-88.8 389.55,-88.8 386.55,-84.8 326.45,-84.8 326.45,-48.8 413.55,-48.8 413.55,-84.8"/>
<text text-anchor="middle" x="370" y="-62.6" font-family="Times,serif" font-size="14.00">AuthModule</text>
</g>
<!-- RoleModule -->
<g id="node2" class="node">
<title>RoleModule</title>
<polygon fill="#8dd3c7" stroke="black" points="272.99,-149.8 269.99,-153.8 248.99,-153.8 245.99,-149.8 187.01,-149.8 187.01,-113.8 272.99,-113.8 272.99,-149.8"/>
<text text-anchor="middle" x="230" y="-127.6" font-family="Times,serif" font-size="14.00">RoleModule</text>
</g>
<!-- AuthModule&#45;&gt;RoleModule -->
<g id="edge1" class="edge">
<title>AuthModule&#45;&gt;RoleModule</title>
<path fill="none" stroke="black" d="M333.96,-84.91C333.96,-104.14 333.96,-131.8 333.96,-131.8 333.96,-131.8 283.18,-131.8 283.18,-131.8"/>
<polygon fill="black" stroke="black" points="283.18,-128.3 273.18,-131.8 283.18,-135.3 283.18,-128.3"/>
</g>
<!-- RoleRepository  -->
<g id="node3" class="node">
<title>RoleRepository </title>
<polygon fill="#fb8072" stroke="black" points="341.88,-214.8 234.12,-214.8 234.12,-178.8 341.88,-178.8 341.88,-214.8"/>
<text text-anchor="middle" x="288" y="-192.6" font-family="Times,serif" font-size="14.00">RoleRepository </text>
</g>
<!-- RoleModule&#45;&gt;RoleRepository  -->
<g id="edge2" class="edge">
<title>RoleModule&#45;&gt;RoleRepository </title>
<path fill="none" stroke="black" stroke-dasharray="5,2" d="M253.65,-149.91C253.65,-149.91 253.65,-168.79 253.65,-168.79"/>
<polygon fill="black" stroke="black" points="250.15,-168.79 253.65,-178.79 257.15,-168.79 250.15,-168.79"/>
</g>
<!-- RoleService  -->
<g id="node4" class="node">
<title>RoleService </title>
<polygon fill="#fb8072" stroke="black" points="215.92,-214.8 128.08,-214.8 128.08,-178.8 215.92,-178.8 215.92,-214.8"/>
<text text-anchor="middle" x="172" y="-192.6" font-family="Times,serif" font-size="14.00">RoleService </text>
</g>
<!-- RoleModule&#45;&gt;RoleService  -->
<g id="edge3" class="edge">
<title>RoleModule&#45;&gt;RoleService </title>
<path fill="none" stroke="black" stroke-dasharray="5,2" d="M201.48,-149.91C201.48,-149.91 201.48,-168.79 201.48,-168.79"/>
<polygon fill="black" stroke="black" points="197.98,-168.79 201.48,-178.79 204.98,-168.79 197.98,-168.79"/>
</g>
<!-- RoleRepository -->
<g id="node5" class="node">
<title>RoleRepository</title>
<ellipse fill="#fdb462" stroke="black" cx="230" cy="-66.8" rx="71.81" ry="18"/>
<text text-anchor="middle" x="230" y="-62.6" font-family="Times,serif" font-size="14.00">RoleRepository</text>
</g>
<!-- RoleRepository&#45;&gt;RoleModule -->
<g id="edge4" class="edge">
<title>RoleRepository&#45;&gt;RoleModule</title>
<path fill="none" stroke="black" d="M230,-84.91C230,-84.91 230,-103.79 230,-103.79"/>
<polygon fill="black" stroke="black" points="226.5,-103.79 230,-113.79 233.5,-103.79 226.5,-103.79"/>
</g>
<!-- RoleService -->
<g id="node6" class="node">
<title>RoleService</title>
<ellipse fill="#fdb462" stroke="black" cx="82" cy="-66.8" rx="58.46" ry="18"/>
<text text-anchor="middle" x="82" y="-62.6" font-family="Times,serif" font-size="14.00">RoleService</text>
</g>
<!-- RoleService&#45;&gt;RoleModule -->
<g id="edge5" class="edge">
<title>RoleService&#45;&gt;RoleModule</title>
<path fill="none" stroke="black" d="M134.14,-75.03C134.14,-92.52 134.14,-131.8 134.14,-131.8 134.14,-131.8 176.84,-131.8 176.84,-131.8"/>
<polygon fill="black" stroke="black" points="176.84,-135.3 186.84,-131.8 176.84,-128.3 176.84,-135.3"/>
</g>
</g>
</svg>
