<?xml version="1.0" encoding="UTF-8" standalone="no"?>
<!DOCTYPE svg PUBLIC "-//W3C//DTD SVG 1.1//EN"
 "http://www.w3.org/Graphics/SVG/1.1/DTD/svg11.dtd">
<!-- Generated by graphviz version 2.47.3 (20210619.1520)
 -->
<!-- Title: dependencies Pages: 1 -->
<svg width="1288pt" height="174pt"
 viewBox="0.00 0.00 1288.00 173.80" xmlns="http://www.w3.org/2000/svg" xmlns:xlink="http://www.w3.org/1999/xlink">
<g id="graph0" class="graph" transform="scale(1 1) rotate(0) translate(4 169.8)">
<title>dependencies</title>
<polygon fill="white" stroke="transparent" points="-4,4 -4,-169.8 1284,-169.8 1284,4 -4,4"/>
<text text-anchor="middle" x="640" y="-8.2" font-family="sans-serif" font-size="14.00">dependencies</text>
<g id="clust1" class="cluster">
<title>cluster_AppModule</title>
<polygon fill="none" stroke="black" stroke-dasharray="1,5" points="8,-32.8 8,-157.8 1272,-157.8 1272,-32.8 8,-32.8"/>
</g>
<g id="clust6" class="cluster">
<title>cluster_AppModule_providers</title>
<polygon fill="none" stroke="black" points="1134,-40.8 1134,-92.8 1264,-92.8 1264,-40.8 1134,-40.8"/>
</g>
<g id="clust3" class="cluster">
<title>cluster_AppModule_imports</title>
<polygon fill="none" stroke="black" points="16,-40.8 16,-92.8 1126,-92.8 1126,-40.8 16,-40.8"/>
</g>
<!-- AuthModule -->
<g id="node1" class="node">
<title>AuthModule</title>
<polygon fill="#8dd3c7" stroke="black" points="1117.55,-84.8 1114.55,-88.8 1093.55,-88.8 1090.55,-84.8 1030.45,-84.8 1030.45,-48.8 1117.55,-48.8 1117.55,-84.8"/>
<text text-anchor="middle" x="1074" y="-62.6" font-family="Times,serif" font-size="14.00">AuthModule</text>
</g>
<!-- AppModule -->
<g id="node10" class="node">
<title>AppModule</title>
<polygon fill="#8dd3c7" stroke="black" points="641.66,-149.8 638.66,-153.8 617.66,-153.8 614.66,-149.8 558.34,-149.8 558.34,-113.8 641.66,-113.8 641.66,-149.8"/>
<text text-anchor="middle" x="600" y="-127.6" font-family="Times,serif" font-size="14.00">AppModule</text>
</g>
<!-- AuthModule&#45;&gt;AppModule -->
<g id="edge1" class="edge">
<title>AuthModule&#45;&gt;AppModule</title>
<path fill="none" stroke="black" d="M1074,-84.93C1074,-105.37 1074,-135.8 1074,-135.8 1074,-135.8 652.06,-135.8 652.06,-135.8"/>
<polygon fill="black" stroke="black" points="652.06,-132.3 642.06,-135.8 652.06,-139.3 652.06,-132.3"/>
</g>
<!-- CoreModule -->
<g id="node2" class="node">
<title>CoreModule</title>
<polygon fill="#8dd3c7" stroke="black" points="1012.26,-84.8 1009.26,-88.8 988.26,-88.8 985.26,-84.8 925.74,-84.8 925.74,-48.8 1012.26,-48.8 1012.26,-84.8"/>
<text text-anchor="middle" x="969" y="-62.6" font-family="Times,serif" font-size="14.00">CoreModule</text>
</g>
<!-- CoreModule&#45;&gt;AppModule -->
<g id="edge2" class="edge">
<title>CoreModule&#45;&gt;AppModule</title>
<path fill="none" stroke="black" d="M969,-85.07C969,-103.36 969,-128.8 969,-128.8 969,-128.8 651.97,-128.8 651.97,-128.8"/>
<polygon fill="black" stroke="black" points="651.97,-125.3 641.97,-128.8 651.97,-132.3 651.97,-125.3"/>
</g>
<!-- GroupingItemModule -->
<g id="node3" class="node">
<title>GroupingItemModule</title>
<polygon fill="#8dd3c7" stroke="black" points="907.36,-84.8 904.36,-88.8 883.36,-88.8 880.36,-84.8 768.64,-84.8 768.64,-48.8 907.36,-48.8 907.36,-84.8"/>
<text text-anchor="middle" x="838" y="-62.6" font-family="Times,serif" font-size="14.00">GroupingItemModule</text>
</g>
<!-- GroupingItemModule&#45;&gt;AppModule -->
<g id="edge3" class="edge">
<title>GroupingItemModule&#45;&gt;AppModule</title>
<path fill="none" stroke="black" d="M838,-84.81C838,-100.85 838,-121.8 838,-121.8 838,-121.8 651.73,-121.8 651.73,-121.8"/>
<polygon fill="black" stroke="black" points="651.73,-118.3 641.73,-121.8 651.73,-125.3 651.73,-118.3"/>
</g>
<!-- HangmanWordModule -->
<g id="node4" class="node">
<title>HangmanWordModule</title>
<polygon fill="#8dd3c7" stroke="black" points="750.85,-84.8 747.85,-88.8 726.85,-88.8 723.85,-84.8 605.15,-84.8 605.15,-48.8 750.85,-48.8 750.85,-84.8"/>
<text text-anchor="middle" x="678" y="-62.6" font-family="Times,serif" font-size="14.00">HangmanWordModule</text>
</g>
<!-- HangmanWordModule&#45;&gt;AppModule -->
<g id="edge4" class="edge">
<title>HangmanWordModule&#45;&gt;AppModule</title>
<path fill="none" stroke="black" d="M623.45,-84.91C623.45,-84.91 623.45,-103.79 623.45,-103.79"/>
<polygon fill="black" stroke="black" points="619.95,-103.79 623.45,-113.79 626.95,-103.79 619.95,-103.79"/>
</g>
<!-- MirrorWordModule -->
<g id="node5" class="node">
<title>MirrorWordModule</title>
<polygon fill="#8dd3c7" stroke="black" points="587.24,-84.8 584.24,-88.8 563.24,-88.8 560.24,-84.8 458.76,-84.8 458.76,-48.8 587.24,-48.8 587.24,-84.8"/>
<text text-anchor="middle" x="523" y="-62.6" font-family="Times,serif" font-size="14.00">MirrorWordModule</text>
</g>
<!-- MirrorWordModule&#45;&gt;AppModule -->
<g id="edge5" class="edge">
<title>MirrorWordModule&#45;&gt;AppModule</title>
<path fill="none" stroke="black" d="M572.77,-84.91C572.77,-84.91 572.77,-103.79 572.77,-103.79"/>
<polygon fill="black" stroke="black" points="569.27,-103.79 572.77,-113.79 576.27,-103.79 569.27,-103.79"/>
</g>
<!-- QuizModule -->
<g id="node6" class="node">
<title>QuizModule</title>
<polygon fill="#8dd3c7" stroke="black" points="440.26,-84.8 437.26,-88.8 416.26,-88.8 413.26,-84.8 353.74,-84.8 353.74,-48.8 440.26,-48.8 440.26,-84.8"/>
<text text-anchor="middle" x="397" y="-62.6" font-family="Times,serif" font-size="14.00">QuizModule</text>
</g>
<!-- QuizModule&#45;&gt;AppModule -->
<g id="edge6" class="edge">
<title>QuizModule&#45;&gt;AppModule</title>
<path fill="none" stroke="black" d="M397,-84.81C397,-100.85 397,-121.8 397,-121.8 397,-121.8 547.94,-121.8 547.94,-121.8"/>
<polygon fill="black" stroke="black" points="547.94,-125.3 557.94,-121.8 547.94,-118.3 547.94,-125.3"/>
</g>
<!-- RoleModule -->
<g id="node7" class="node">
<title>RoleModule</title>
<polygon fill="#8dd3c7" stroke="black" points="335.99,-84.8 332.99,-88.8 311.99,-88.8 308.99,-84.8 250.01,-84.8 250.01,-48.8 335.99,-48.8 335.99,-84.8"/>
<text text-anchor="middle" x="293" y="-62.6" font-family="Times,serif" font-size="14.00">RoleModule</text>
</g>
<!-- RoleModule&#45;&gt;AppModule -->
<g id="edge7" class="edge">
<title>RoleModule&#45;&gt;AppModule</title>
<path fill="none" stroke="black" d="M293,-85.07C293,-103.36 293,-128.8 293,-128.8 293,-128.8 548.28,-128.8 548.28,-128.8"/>
<polygon fill="black" stroke="black" points="548.28,-132.3 558.28,-128.8 548.28,-125.3 548.28,-132.3"/>
</g>
<!-- SchoolModule -->
<g id="node8" class="node">
<title>SchoolModule</title>
<polygon fill="#8dd3c7" stroke="black" points="232.44,-84.8 229.44,-88.8 208.44,-88.8 205.44,-84.8 133.56,-84.8 133.56,-48.8 232.44,-48.8 232.44,-84.8"/>
<text text-anchor="middle" x="183" y="-62.6" font-family="Times,serif" font-size="14.00">SchoolModule</text>
</g>
<!-- SchoolModule&#45;&gt;AppModule -->
<g id="edge8" class="edge">
<title>SchoolModule&#45;&gt;AppModule</title>
<path fill="none" stroke="black" d="M183,-84.93C183,-105.37 183,-135.8 183,-135.8 183,-135.8 548.11,-135.8 548.11,-135.8"/>
<polygon fill="black" stroke="black" points="548.11,-139.3 558.11,-135.8 548.11,-132.3 548.11,-139.3"/>
</g>
<!-- UsersModule -->
<g id="node9" class="node">
<title>UsersModule</title>
<polygon fill="#8dd3c7" stroke="black" points="115.92,-84.8 112.92,-88.8 91.92,-88.8 88.92,-84.8 24.08,-84.8 24.08,-48.8 115.92,-48.8 115.92,-84.8"/>
<text text-anchor="middle" x="70" y="-62.6" font-family="Times,serif" font-size="14.00">UsersModule</text>
</g>
<!-- UsersModule&#45;&gt;AppModule -->
<g id="edge9" class="edge">
<title>UsersModule&#45;&gt;AppModule</title>
<path fill="none" stroke="black" d="M70,-84.81C70,-107.29 70,-142.8 70,-142.8 70,-142.8 547.97,-142.8 547.97,-142.8"/>
<polygon fill="black" stroke="black" points="547.97,-146.3 557.97,-142.8 547.97,-139.3 547.97,-146.3"/>
</g>
<!-- AppService -->
<g id="node11" class="node">
<title>AppService</title>
<ellipse fill="#fdb462" stroke="black" cx="1199" cy="-66.8" rx="56.74" ry="18"/>
<text text-anchor="middle" x="1199" y="-62.6" font-family="Times,serif" font-size="14.00">AppService</text>
</g>
<!-- AppService&#45;&gt;AppModule -->
<g id="edge10" class="edge">
<title>AppService&#45;&gt;AppModule</title>
<path fill="none" stroke="black" d="M1199,-84.81C1199,-107.29 1199,-142.8 1199,-142.8 1199,-142.8 652.12,-142.8 652.12,-142.8"/>
<polygon fill="black" stroke="black" points="652.12,-139.3 642.12,-142.8 652.12,-146.3 652.12,-139.3"/>
</g>
</g>
</svg>
