<?xml version="1.0" encoding="UTF-8" standalone="no"?>
<!DOCTYPE svg PUBLIC "-//W3C//DTD SVG 1.1//EN"
 "http://www.w3.org/Graphics/SVG/1.1/DTD/svg11.dtd">
<!-- Generated by graphviz version 2.47.3 (20210619.1520)
 -->
<!-- Title: dependencies Pages: 1 -->
<svg width="1067pt" height="174pt"
 viewBox="0.00 0.00 1067.00 173.80" xmlns="http://www.w3.org/2000/svg" xmlns:xlink="http://www.w3.org/1999/xlink">
<g id="graph0" class="graph" transform="scale(1 1) rotate(0) translate(4 169.8)">
<title>dependencies</title>
<polygon fill="white" stroke="transparent" points="-4,4 -4,-169.8 1063,-169.8 1063,4 -4,4"/>
<text text-anchor="middle" x="529.5" y="-8.2" font-family="sans-serif" font-size="14.00">dependencies</text>
<g id="clust1" class="cluster">
<title>cluster_AppModule</title>
<polygon fill="none" stroke="black" stroke-dasharray="1,5" points="8,-32.8 8,-157.8 1051,-157.8 1051,-32.8 8,-32.8"/>
</g>
<g id="clust3" class="cluster">
<title>cluster_AppModule_imports</title>
<polygon fill="none" stroke="black" points="154,-40.8 154,-92.8 1043,-92.8 1043,-40.8 154,-40.8"/>
</g>
<g id="clust6" class="cluster">
<title>cluster_AppModule_providers</title>
<polygon fill="none" stroke="black" points="16,-40.8 16,-92.8 146,-92.8 146,-40.8 16,-40.8"/>
</g>
<!-- AuthModule -->
<g id="node1" class="node">
<title>AuthModule</title>
<polygon fill="#8dd3c7" stroke="black" points="1034.55,-84.8 1031.55,-88.8 1010.55,-88.8 1007.55,-84.8 947.45,-84.8 947.45,-48.8 1034.55,-48.8 1034.55,-84.8"/>
<text text-anchor="middle" x="991" y="-62.6" font-family="Times,serif" font-size="14.00">AuthModule</text>
</g>
<!-- AppModule -->
<g id="node8" class="node">
<title>AppModule</title>
<polygon fill="#8dd3c7" stroke="black" points="558.66,-149.8 555.66,-153.8 534.66,-153.8 531.66,-149.8 475.34,-149.8 475.34,-113.8 558.66,-113.8 558.66,-149.8"/>
<text text-anchor="middle" x="517" y="-127.6" font-family="Times,serif" font-size="14.00">AppModule</text>
</g>
<!-- AuthModule&#45;&gt;AppModule -->
<g id="edge1" class="edge">
<title>AuthModule&#45;&gt;AppModule</title>
<path fill="none" stroke="black" d="M991,-85.09C991,-107.01 991,-140.8 991,-140.8 991,-140.8 569.06,-140.8 569.06,-140.8"/>
<polygon fill="black" stroke="black" points="569.06,-137.3 559.06,-140.8 569.06,-144.3 569.06,-137.3"/>
</g>
<!-- CoreModule -->
<g id="node2" class="node">
<title>CoreModule</title>
<polygon fill="#8dd3c7" stroke="black" points="929.26,-84.8 926.26,-88.8 905.26,-88.8 902.26,-84.8 842.74,-84.8 842.74,-48.8 929.26,-48.8 929.26,-84.8"/>
<text text-anchor="middle" x="886" y="-62.6" font-family="Times,serif" font-size="14.00">CoreModule</text>
</g>
<!-- CoreModule&#45;&gt;AppModule -->
<g id="edge2" class="edge">
<title>CoreModule&#45;&gt;AppModule</title>
<path fill="none" stroke="black" d="M886,-84.91C886,-104.14 886,-131.8 886,-131.8 886,-131.8 568.97,-131.8 568.97,-131.8"/>
<polygon fill="black" stroke="black" points="568.97,-128.3 558.97,-131.8 568.97,-135.3 568.97,-128.3"/>
</g>
<!-- GroupingItemModule -->
<g id="node3" class="node">
<title>GroupingItemModule</title>
<polygon fill="#8dd3c7" stroke="black" points="824.36,-84.8 821.36,-88.8 800.36,-88.8 797.36,-84.8 685.64,-84.8 685.64,-48.8 824.36,-48.8 824.36,-84.8"/>
<text text-anchor="middle" x="755" y="-62.6" font-family="Times,serif" font-size="14.00">GroupingItemModule</text>
</g>
<!-- GroupingItemModule&#45;&gt;AppModule -->
<g id="edge3" class="edge">
<title>GroupingItemModule&#45;&gt;AppModule</title>
<path fill="none" stroke="black" d="M755,-84.83C755,-101.2 755,-122.8 755,-122.8 755,-122.8 568.73,-122.8 568.73,-122.8"/>
<polygon fill="black" stroke="black" points="568.73,-119.3 558.73,-122.8 568.73,-126.3 568.73,-119.3"/>
</g>
<!-- HangmanWordModule -->
<g id="node4" class="node">
<title>HangmanWordModule</title>
<polygon fill="#8dd3c7" stroke="black" points="667.85,-84.8 664.85,-88.8 643.85,-88.8 640.85,-84.8 522.15,-84.8 522.15,-48.8 667.85,-48.8 667.85,-84.8"/>
<text text-anchor="middle" x="595" y="-62.6" font-family="Times,serif" font-size="14.00">HangmanWordModule</text>
</g>
<!-- HangmanWordModule&#45;&gt;AppModule -->
<g id="edge4" class="edge">
<title>HangmanWordModule&#45;&gt;AppModule</title>
<path fill="none" stroke="black" d="M540.45,-84.91C540.45,-84.91 540.45,-103.79 540.45,-103.79"/>
<polygon fill="black" stroke="black" points="536.95,-103.79 540.45,-113.79 543.95,-103.79 536.95,-103.79"/>
</g>
<!-- MirrorWordModule -->
<g id="node5" class="node">
<title>MirrorWordModule</title>
<polygon fill="#8dd3c7" stroke="black" points="504.24,-84.8 501.24,-88.8 480.24,-88.8 477.24,-84.8 375.76,-84.8 375.76,-48.8 504.24,-48.8 504.24,-84.8"/>
<text text-anchor="middle" x="440" y="-62.6" font-family="Times,serif" font-size="14.00">MirrorWordModule</text>
</g>
<!-- MirrorWordModule&#45;&gt;AppModule -->
<g id="edge5" class="edge">
<title>MirrorWordModule&#45;&gt;AppModule</title>
<path fill="none" stroke="black" d="M489.77,-84.91C489.77,-84.91 489.77,-103.79 489.77,-103.79"/>
<polygon fill="black" stroke="black" points="486.27,-103.79 489.77,-113.79 493.27,-103.79 486.27,-103.79"/>
</g>
<!-- RoleModule -->
<g id="node6" class="node">
<title>RoleModule</title>
<polygon fill="#8dd3c7" stroke="black" points="357.99,-84.8 354.99,-88.8 333.99,-88.8 330.99,-84.8 272.01,-84.8 272.01,-48.8 357.99,-48.8 357.99,-84.8"/>
<text text-anchor="middle" x="315" y="-62.6" font-family="Times,serif" font-size="14.00">RoleModule</text>
</g>
<!-- RoleModule&#45;&gt;AppModule -->
<g id="edge6" class="edge">
<title>RoleModule&#45;&gt;AppModule</title>
<path fill="none" stroke="black" d="M315,-84.83C315,-101.2 315,-122.8 315,-122.8 315,-122.8 465.15,-122.8 465.15,-122.8"/>
<polygon fill="black" stroke="black" points="465.15,-126.3 475.15,-122.8 465.15,-119.3 465.15,-126.3"/>
</g>
<!-- UsersModule -->
<g id="node7" class="node">
<title>UsersModule</title>
<polygon fill="#8dd3c7" stroke="black" points="253.92,-84.8 250.92,-88.8 229.92,-88.8 226.92,-84.8 162.08,-84.8 162.08,-48.8 253.92,-48.8 253.92,-84.8"/>
<text text-anchor="middle" x="208" y="-62.6" font-family="Times,serif" font-size="14.00">UsersModule</text>
</g>
<!-- UsersModule&#45;&gt;AppModule -->
<g id="edge7" class="edge">
<title>UsersModule&#45;&gt;AppModule</title>
<path fill="none" stroke="black" d="M208,-84.91C208,-104.14 208,-131.8 208,-131.8 208,-131.8 465.33,-131.8 465.33,-131.8"/>
<polygon fill="black" stroke="black" points="465.33,-135.3 475.33,-131.8 465.33,-128.3 465.33,-135.3"/>
</g>
<!-- AppService -->
<g id="node9" class="node">
<title>AppService</title>
<ellipse fill="#fdb462" stroke="black" cx="81" cy="-66.8" rx="56.74" ry="18"/>
<text text-anchor="middle" x="81" y="-62.6" font-family="Times,serif" font-size="14.00">AppService</text>
</g>
<!-- AppService&#45;&gt;AppModule -->
<g id="edge8" class="edge">
<title>AppService&#45;&gt;AppModule</title>
<path fill="none" stroke="black" d="M81,-85.09C81,-107.01 81,-140.8 81,-140.8 81,-140.8 465.19,-140.8 465.19,-140.8"/>
<polygon fill="black" stroke="black" points="465.19,-144.3 475.19,-140.8 465.19,-137.3 465.19,-144.3"/>
</g>
</g>
</svg>
