<?xml version="1.0" encoding="UTF-8" standalone="no"?>
<!DOCTYPE svg PUBLIC "-//W3C//DTD SVG 1.1//EN"
 "http://www.w3.org/Graphics/SVG/1.1/DTD/svg11.dtd">
<!-- Generated by graphviz version 2.47.3 (20210619.1520)
 -->
<!-- Title: dependencies Pages: 1 -->
<svg width="1437pt" height="174pt"
 viewBox="0.00 0.00 1437.00 173.80" xmlns="http://www.w3.org/2000/svg" xmlns:xlink="http://www.w3.org/1999/xlink">
<g id="graph0" class="graph" transform="scale(1 1) rotate(0) translate(4 169.8)">
<title>dependencies</title>
<polygon fill="white" stroke="transparent" points="-4,4 -4,-169.8 1433,-169.8 1433,4 -4,4"/>
<text text-anchor="middle" x="714.5" y="-8.2" font-family="sans-serif" font-size="14.00">dependencies</text>
<g id="clust1" class="cluster">
<title>cluster_AppModule</title>
<polygon fill="none" stroke="black" stroke-dasharray="1,5" points="8,-32.8 8,-157.8 1421,-157.8 1421,-32.8 8,-32.8"/>
</g>
<g id="clust6" class="cluster">
<title>cluster_AppModule_providers</title>
<polygon fill="none" stroke="black" points="1283,-40.8 1283,-92.8 1413,-92.8 1413,-40.8 1283,-40.8"/>
</g>
<g id="clust3" class="cluster">
<title>cluster_AppModule_imports</title>
<polygon fill="none" stroke="black" points="16,-40.8 16,-92.8 1275,-92.8 1275,-40.8 16,-40.8"/>
</g>
<!-- AuthModule -->
<g id="node1" class="node">
<title>AuthModule</title>
<polygon fill="#8dd3c7" stroke="black" points="1266.55,-84.8 1263.55,-88.8 1242.55,-88.8 1239.55,-84.8 1179.45,-84.8 1179.45,-48.8 1266.55,-48.8 1266.55,-84.8"/>
<text text-anchor="middle" x="1223" y="-62.6" font-family="Times,serif" font-size="14.00">AuthModule</text>
</g>
<!-- AppModule -->
<g id="node11" class="node">
<title>AppModule</title>
<polygon fill="#8dd3c7" stroke="black" points="713.66,-149.8 710.66,-153.8 689.66,-153.8 686.66,-149.8 630.34,-149.8 630.34,-113.8 713.66,-113.8 713.66,-149.8"/>
<text text-anchor="middle" x="672" y="-127.6" font-family="Times,serif" font-size="14.00">AppModule</text>
</g>
<!-- AuthModule&#45;&gt;AppModule -->
<g id="edge1" class="edge">
<title>AuthModule&#45;&gt;AppModule</title>
<path fill="none" stroke="black" d="M1223,-85.08C1223,-106.12 1223,-137.8 1223,-137.8 1223,-137.8 723.87,-137.8 723.87,-137.8"/>
<polygon fill="black" stroke="black" points="723.87,-134.3 713.87,-137.8 723.87,-141.3 723.87,-134.3"/>
</g>
<!-- CoreModule -->
<g id="node2" class="node">
<title>CoreModule</title>
<polygon fill="#8dd3c7" stroke="black" points="1161.26,-84.8 1158.26,-88.8 1137.26,-88.8 1134.26,-84.8 1074.74,-84.8 1074.74,-48.8 1161.26,-48.8 1161.26,-84.8"/>
<text text-anchor="middle" x="1118" y="-62.6" font-family="Times,serif" font-size="14.00">CoreModule</text>
</g>
<!-- CoreModule&#45;&gt;AppModule -->
<g id="edge2" class="edge">
<title>CoreModule&#45;&gt;AppModule</title>
<path fill="none" stroke="black" d="M1118,-84.91C1118,-104.14 1118,-131.8 1118,-131.8 1118,-131.8 723.96,-131.8 723.96,-131.8"/>
<polygon fill="black" stroke="black" points="723.96,-128.3 713.96,-131.8 723.96,-135.3 723.96,-128.3"/>
</g>
<!-- GroupingItemModule -->
<g id="node3" class="node">
<title>GroupingItemModule</title>
<polygon fill="#8dd3c7" stroke="black" points="1056.36,-84.8 1053.36,-88.8 1032.36,-88.8 1029.36,-84.8 917.64,-84.8 917.64,-48.8 1056.36,-48.8 1056.36,-84.8"/>
<text text-anchor="middle" x="987" y="-62.6" font-family="Times,serif" font-size="14.00">GroupingItemModule</text>
</g>
<!-- GroupingItemModule&#45;&gt;AppModule -->
<g id="edge3" class="edge">
<title>GroupingItemModule&#45;&gt;AppModule</title>
<path fill="none" stroke="black" d="M987,-84.82C987,-102.17 987,-125.8 987,-125.8 987,-125.8 723.83,-125.8 723.83,-125.8"/>
<polygon fill="black" stroke="black" points="723.83,-122.3 713.83,-125.8 723.83,-129.3 723.83,-122.3"/>
</g>
<!-- HangmanWordModule -->
<g id="node4" class="node">
<title>HangmanWordModule</title>
<polygon fill="#8dd3c7" stroke="black" points="899.85,-84.8 896.85,-88.8 875.85,-88.8 872.85,-84.8 754.15,-84.8 754.15,-48.8 899.85,-48.8 899.85,-84.8"/>
<text text-anchor="middle" x="827" y="-62.6" font-family="Times,serif" font-size="14.00">HangmanWordModule</text>
</g>
<!-- HangmanWordModule&#45;&gt;AppModule -->
<g id="edge4" class="edge">
<title>HangmanWordModule&#45;&gt;AppModule</title>
<path fill="none" stroke="black" d="M827,-85.04C827,-100.37 827,-119.8 827,-119.8 827,-119.8 723.95,-119.8 723.95,-119.8"/>
<polygon fill="black" stroke="black" points="723.95,-116.3 713.95,-119.8 723.95,-123.3 723.95,-116.3"/>
</g>
<!-- MirrorWordModule -->
<g id="node5" class="node">
<title>MirrorWordModule</title>
<polygon fill="#8dd3c7" stroke="black" points="736.24,-84.8 733.24,-88.8 712.24,-88.8 709.24,-84.8 607.76,-84.8 607.76,-48.8 736.24,-48.8 736.24,-84.8"/>
<text text-anchor="middle" x="672" y="-62.6" font-family="Times,serif" font-size="14.00">MirrorWordModule</text>
</g>
<!-- MirrorWordModule&#45;&gt;AppModule -->
<g id="edge5" class="edge">
<title>MirrorWordModule&#45;&gt;AppModule</title>
<path fill="none" stroke="black" d="M672,-84.91C672,-84.91 672,-103.79 672,-103.79"/>
<polygon fill="black" stroke="black" points="668.5,-103.79 672,-113.79 675.5,-103.79 668.5,-103.79"/>
</g>
<!-- QuizAnswerModule -->
<g id="node6" class="node">
<title>QuizAnswerModule</title>
<polygon fill="#8dd3c7" stroke="black" points="589.29,-84.8 586.29,-88.8 565.29,-88.8 562.29,-84.8 458.71,-84.8 458.71,-48.8 589.29,-48.8 589.29,-84.8"/>
<text text-anchor="middle" x="524" y="-62.6" font-family="Times,serif" font-size="14.00">QuizAnswerModule</text>
</g>
<!-- QuizAnswerModule&#45;&gt;AppModule -->
<g id="edge6" class="edge">
<title>QuizAnswerModule&#45;&gt;AppModule</title>
<path fill="none" stroke="black" d="M524,-85.04C524,-100.37 524,-119.8 524,-119.8 524,-119.8 619.99,-119.8 619.99,-119.8"/>
<polygon fill="black" stroke="black" points="619.99,-123.3 629.99,-119.8 619.98,-116.3 619.99,-123.3"/>
</g>
<!-- QuizModule -->
<g id="node7" class="node">
<title>QuizModule</title>
<polygon fill="#8dd3c7" stroke="black" points="440.26,-84.8 437.26,-88.8 416.26,-88.8 413.26,-84.8 353.74,-84.8 353.74,-48.8 440.26,-48.8 440.26,-84.8"/>
<text text-anchor="middle" x="397" y="-62.6" font-family="Times,serif" font-size="14.00">QuizModule</text>
</g>
<!-- QuizModule&#45;&gt;AppModule -->
<g id="edge7" class="edge">
<title>QuizModule&#45;&gt;AppModule</title>
<path fill="none" stroke="black" d="M397,-84.82C397,-102.17 397,-125.8 397,-125.8 397,-125.8 620.23,-125.8 620.23,-125.8"/>
<polygon fill="black" stroke="black" points="620.23,-129.3 630.23,-125.8 620.23,-122.3 620.23,-129.3"/>
</g>
<!-- RoleModule -->
<g id="node8" class="node">
<title>RoleModule</title>
<polygon fill="#8dd3c7" stroke="black" points="335.99,-84.8 332.99,-88.8 311.99,-88.8 308.99,-84.8 250.01,-84.8 250.01,-48.8 335.99,-48.8 335.99,-84.8"/>
<text text-anchor="middle" x="293" y="-62.6" font-family="Times,serif" font-size="14.00">RoleModule</text>
</g>
<!-- RoleModule&#45;&gt;AppModule -->
<g id="edge8" class="edge">
<title>RoleModule&#45;&gt;AppModule</title>
<path fill="none" stroke="black" d="M293,-84.91C293,-104.14 293,-131.8 293,-131.8 293,-131.8 619.99,-131.8 619.99,-131.8"/>
<polygon fill="black" stroke="black" points="619.99,-135.3 629.99,-131.8 619.99,-128.3 619.99,-135.3"/>
</g>
<!-- SchoolModule -->
<g id="node9" class="node">
<title>SchoolModule</title>
<polygon fill="#8dd3c7" stroke="black" points="232.44,-84.8 229.44,-88.8 208.44,-88.8 205.44,-84.8 133.56,-84.8 133.56,-48.8 232.44,-48.8 232.44,-84.8"/>
<text text-anchor="middle" x="183" y="-62.6" font-family="Times,serif" font-size="14.00">SchoolModule</text>
</g>
<!-- SchoolModule&#45;&gt;AppModule -->
<g id="edge9" class="edge">
<title>SchoolModule&#45;&gt;AppModule</title>
<path fill="none" stroke="black" d="M183,-85.08C183,-106.12 183,-137.8 183,-137.8 183,-137.8 620.31,-137.8 620.31,-137.8"/>
<polygon fill="black" stroke="black" points="620.31,-141.3 630.31,-137.8 620.31,-134.3 620.31,-141.3"/>
</g>
<!-- UsersModule -->
<g id="node10" class="node">
<title>UsersModule</title>
<polygon fill="#8dd3c7" stroke="black" points="115.92,-84.8 112.92,-88.8 91.92,-88.8 88.92,-84.8 24.08,-84.8 24.08,-48.8 115.92,-48.8 115.92,-84.8"/>
<text text-anchor="middle" x="70" y="-62.6" font-family="Times,serif" font-size="14.00">UsersModule</text>
</g>
<!-- UsersModule&#45;&gt;AppModule -->
<g id="edge10" class="edge">
<title>UsersModule&#45;&gt;AppModule</title>
<path fill="none" stroke="black" d="M70,-84.89C70,-107.93 70,-144.8 70,-144.8 70,-144.8 620.15,-144.8 620.15,-144.8"/>
<polygon fill="black" stroke="black" points="620.15,-148.3 630.15,-144.8 620.15,-141.3 620.15,-148.3"/>
</g>
<!-- AppService -->
<g id="node12" class="node">
<title>AppService</title>
<ellipse fill="#fdb462" stroke="black" cx="1348" cy="-66.8" rx="56.74" ry="18"/>
<text text-anchor="middle" x="1348" y="-62.6" font-family="Times,serif" font-size="14.00">AppService</text>
</g>
<!-- AppService&#45;&gt;AppModule -->
<g id="edge11" class="edge">
<title>AppService&#45;&gt;AppModule</title>
<path fill="none" stroke="black" d="M1348,-84.89C1348,-107.93 1348,-144.8 1348,-144.8 1348,-144.8 723.78,-144.8 723.78,-144.8"/>
<polygon fill="black" stroke="black" points="723.78,-141.3 713.78,-144.8 723.78,-148.3 723.78,-141.3"/>
</g>
</g>
</svg>
