<?xml version="1.0" encoding="UTF-8" standalone="no"?>
<!DOCTYPE svg PUBLIC "-//W3C//DTD SVG 1.1//EN"
 "http://www.w3.org/Graphics/SVG/1.1/DTD/svg11.dtd">
<!-- Generated by graphviz version 2.47.3 (20210619.1520)
 -->
<!-- Title: dependencies Pages: 1 -->
<svg width="1764pt" height="174pt"
 viewBox="0.00 0.00 1764.00 173.80" xmlns="http://www.w3.org/2000/svg" xmlns:xlink="http://www.w3.org/1999/xlink">
<g id="graph0" class="graph" transform="scale(1 1) rotate(0) translate(4 169.8)">
<title>dependencies</title>
<polygon fill="white" stroke="transparent" points="-4,4 -4,-169.8 1760,-169.8 1760,4 -4,4"/>
<text text-anchor="middle" x="878" y="-8.2" font-family="sans-serif" font-size="14.00">dependencies</text>
<g id="clust1" class="cluster">
<title>cluster_AppModule</title>
<polygon fill="none" stroke="black" stroke-dasharray="1,5" points="8,-32.8 8,-157.8 1748,-157.8 1748,-32.8 8,-32.8"/>
</g>
<g id="clust6" class="cluster">
<title>cluster_AppModule_providers</title>
<polygon fill="none" stroke="black" points="1610,-40.8 1610,-92.8 1740,-92.8 1740,-40.8 1610,-40.8"/>
</g>
<g id="clust3" class="cluster">
<title>cluster_AppModule_imports</title>
<polygon fill="none" stroke="black" points="16,-40.8 16,-92.8 1602,-92.8 1602,-40.8 16,-40.8"/>
</g>
<!-- AuthModule -->
<g id="node1" class="node">
<title>AuthModule</title>
<polygon fill="#8dd3c7" stroke="black" points="1593.55,-84.8 1590.55,-88.8 1569.55,-88.8 1566.55,-84.8 1506.45,-84.8 1506.45,-48.8 1593.55,-48.8 1593.55,-84.8"/>
<text text-anchor="middle" x="1550" y="-62.6" font-family="Times,serif" font-size="14.00">AuthModule</text>
</g>
<!-- AppModule -->
<g id="node14" class="node">
<title>AppModule</title>
<polygon fill="#8dd3c7" stroke="black" points="875.66,-149.8 872.66,-153.8 851.66,-153.8 848.66,-149.8 792.34,-149.8 792.34,-113.8 875.66,-113.8 875.66,-149.8"/>
<text text-anchor="middle" x="834" y="-127.6" font-family="Times,serif" font-size="14.00">AppModule</text>
</g>
<!-- AuthModule&#45;&gt;AppModule -->
<g id="edge1" class="edge">
<title>AuthModule&#45;&gt;AppModule</title>
<path fill="none" stroke="black" d="M1550,-84.84C1550,-106.46 1550,-139.8 1550,-139.8 1550,-139.8 885.85,-139.8 885.85,-139.8"/>
<polygon fill="black" stroke="black" points="885.85,-136.3 875.85,-139.8 885.85,-143.3 885.85,-136.3"/>
</g>
<!-- CoreModule -->
<g id="node2" class="node">
<title>CoreModule</title>
<polygon fill="#8dd3c7" stroke="black" points="1488.26,-84.8 1485.26,-88.8 1464.26,-88.8 1461.26,-84.8 1401.74,-84.8 1401.74,-48.8 1488.26,-48.8 1488.26,-84.8"/>
<text text-anchor="middle" x="1445" y="-62.6" font-family="Times,serif" font-size="14.00">CoreModule</text>
</g>
<!-- CoreModule&#45;&gt;AppModule -->
<g id="edge2" class="edge">
<title>CoreModule&#45;&gt;AppModule</title>
<path fill="none" stroke="black" d="M1445,-85.02C1445,-105.17 1445,-134.8 1445,-134.8 1445,-134.8 886,-134.8 886,-134.8"/>
<polygon fill="black" stroke="black" points="886,-131.3 876,-134.8 886,-138.3 886,-131.3"/>
</g>
<!-- FileModule -->
<g id="node3" class="node">
<title>FileModule</title>
<polygon fill="#8dd3c7" stroke="black" points="1383.83,-84.8 1380.83,-88.8 1359.83,-88.8 1356.83,-84.8 1302.17,-84.8 1302.17,-48.8 1383.83,-48.8 1383.83,-84.8"/>
<text text-anchor="middle" x="1343" y="-62.6" font-family="Times,serif" font-size="14.00">FileModule</text>
</g>
<!-- FileModule&#45;&gt;AppModule -->
<g id="edge3" class="edge">
<title>FileModule&#45;&gt;AppModule</title>
<path fill="none" stroke="black" d="M1343,-85.02C1343,-103.63 1343,-129.8 1343,-129.8 1343,-129.8 886.09,-129.8 886.09,-129.8"/>
<polygon fill="black" stroke="black" points="886.09,-126.3 876.09,-129.8 886.09,-133.3 886.09,-126.3"/>
</g>
<!-- GroupingItemModule -->
<g id="node4" class="node">
<title>GroupingItemModule</title>
<polygon fill="#8dd3c7" stroke="black" points="1284.36,-84.8 1281.36,-88.8 1260.36,-88.8 1257.36,-84.8 1145.64,-84.8 1145.64,-48.8 1284.36,-48.8 1284.36,-84.8"/>
<text text-anchor="middle" x="1215" y="-62.6" font-family="Times,serif" font-size="14.00">GroupingItemModule</text>
</g>
<!-- GroupingItemModule&#45;&gt;AppModule -->
<g id="edge4" class="edge">
<title>GroupingItemModule&#45;&gt;AppModule</title>
<path fill="none" stroke="black" d="M1215,-84.83C1215,-101.86 1215,-124.8 1215,-124.8 1215,-124.8 885.86,-124.8 885.86,-124.8"/>
<polygon fill="black" stroke="black" points="885.86,-121.3 875.86,-124.8 885.86,-128.3 885.86,-121.3"/>
</g>
<!-- HangmanWordModule -->
<g id="node5" class="node">
<title>HangmanWordModule</title>
<polygon fill="#8dd3c7" stroke="black" points="1127.85,-84.8 1124.85,-88.8 1103.85,-88.8 1100.85,-84.8 982.15,-84.8 982.15,-48.8 1127.85,-48.8 1127.85,-84.8"/>
<text text-anchor="middle" x="1055" y="-62.6" font-family="Times,serif" font-size="14.00">HangmanWordModule</text>
</g>
<!-- HangmanWordModule&#45;&gt;AppModule -->
<g id="edge5" class="edge">
<title>HangmanWordModule&#45;&gt;AppModule</title>
<path fill="none" stroke="black" d="M1055,-85.04C1055,-100.37 1055,-119.8 1055,-119.8 1055,-119.8 885.83,-119.8 885.83,-119.8"/>
<polygon fill="black" stroke="black" points="885.83,-116.3 875.83,-119.8 885.83,-123.3 885.83,-116.3"/>
</g>
<!-- MirrorWordModule -->
<g id="node6" class="node">
<title>MirrorWordModule</title>
<polygon fill="#8dd3c7" stroke="black" points="964.24,-84.8 961.24,-88.8 940.24,-88.8 937.24,-84.8 835.76,-84.8 835.76,-48.8 964.24,-48.8 964.24,-84.8"/>
<text text-anchor="middle" x="900" y="-62.6" font-family="Times,serif" font-size="14.00">MirrorWordModule</text>
</g>
<!-- MirrorWordModule&#45;&gt;AppModule -->
<g id="edge6" class="edge">
<title>MirrorWordModule&#45;&gt;AppModule</title>
<path fill="none" stroke="black" d="M855.73,-84.91C855.73,-84.91 855.73,-103.79 855.73,-103.79"/>
<polygon fill="black" stroke="black" points="852.23,-103.79 855.73,-113.79 859.23,-103.79 852.23,-103.79"/>
</g>
<!-- PuzzleModule -->
<g id="node7" class="node">
<title>PuzzleModule</title>
<polygon fill="#8dd3c7" stroke="black" points="817.37,-84.8 814.37,-88.8 793.37,-88.8 790.37,-84.8 720.63,-84.8 720.63,-48.8 817.37,-48.8 817.37,-84.8"/>
<text text-anchor="middle" x="769" y="-62.6" font-family="Times,serif" font-size="14.00">PuzzleModule</text>
</g>
<!-- PuzzleModule&#45;&gt;AppModule -->
<g id="edge7" class="edge">
<title>PuzzleModule&#45;&gt;AppModule</title>
<path fill="none" stroke="black" d="M804.8,-84.91C804.8,-84.91 804.8,-103.79 804.8,-103.79"/>
<polygon fill="black" stroke="black" points="801.3,-103.79 804.8,-113.79 808.3,-103.79 801.3,-103.79"/>
</g>
<!-- QuizAnswerModule -->
<g id="node8" class="node">
<title>QuizAnswerModule</title>
<polygon fill="#8dd3c7" stroke="black" points="702.29,-84.8 699.29,-88.8 678.29,-88.8 675.29,-84.8 571.71,-84.8 571.71,-48.8 702.29,-48.8 702.29,-84.8"/>
<text text-anchor="middle" x="637" y="-62.6" font-family="Times,serif" font-size="14.00">QuizAnswerModule</text>
</g>
<!-- QuizAnswerModule&#45;&gt;AppModule -->
<g id="edge8" class="edge">
<title>QuizAnswerModule&#45;&gt;AppModule</title>
<path fill="none" stroke="black" d="M637,-85.04C637,-100.37 637,-119.8 637,-119.8 637,-119.8 782.22,-119.8 782.22,-119.8"/>
<polygon fill="black" stroke="black" points="782.22,-123.3 792.22,-119.8 782.22,-116.3 782.22,-123.3"/>
</g>
<!-- QuizModule -->
<g id="node9" class="node">
<title>QuizModule</title>
<polygon fill="#8dd3c7" stroke="black" points="553.26,-84.8 550.26,-88.8 529.26,-88.8 526.26,-84.8 466.74,-84.8 466.74,-48.8 553.26,-48.8 553.26,-84.8"/>
<text text-anchor="middle" x="510" y="-62.6" font-family="Times,serif" font-size="14.00">QuizModule</text>
</g>
<!-- QuizModule&#45;&gt;AppModule -->
<g id="edge9" class="edge">
<title>QuizModule&#45;&gt;AppModule</title>
<path fill="none" stroke="black" d="M510,-84.83C510,-101.86 510,-124.8 510,-124.8 510,-124.8 782.31,-124.8 782.31,-124.8"/>
<polygon fill="black" stroke="black" points="782.31,-128.3 792.31,-124.8 782.31,-121.3 782.31,-128.3"/>
</g>
<!-- RoleModule -->
<g id="node10" class="node">
<title>RoleModule</title>
<polygon fill="#8dd3c7" stroke="black" points="448.99,-84.8 445.99,-88.8 424.99,-88.8 421.99,-84.8 363.01,-84.8 363.01,-48.8 448.99,-48.8 448.99,-84.8"/>
<text text-anchor="middle" x="406" y="-62.6" font-family="Times,serif" font-size="14.00">RoleModule</text>
</g>
<!-- RoleModule&#45;&gt;AppModule -->
<g id="edge10" class="edge">
<title>RoleModule&#45;&gt;AppModule</title>
<path fill="none" stroke="black" d="M406,-85.02C406,-103.63 406,-129.8 406,-129.8 406,-129.8 782.18,-129.8 782.18,-129.8"/>
<polygon fill="black" stroke="black" points="782.18,-133.3 792.18,-129.8 782.18,-126.3 782.18,-133.3"/>
</g>
<!-- SchoolModule -->
<g id="node11" class="node">
<title>SchoolModule</title>
<polygon fill="#8dd3c7" stroke="black" points="345.44,-84.8 342.44,-88.8 321.44,-88.8 318.44,-84.8 246.56,-84.8 246.56,-48.8 345.44,-48.8 345.44,-84.8"/>
<text text-anchor="middle" x="296" y="-62.6" font-family="Times,serif" font-size="14.00">SchoolModule</text>
</g>
<!-- SchoolModule&#45;&gt;AppModule -->
<g id="edge11" class="edge">
<title>SchoolModule&#45;&gt;AppModule</title>
<path fill="none" stroke="black" d="M296,-85.02C296,-105.17 296,-134.8 296,-134.8 296,-134.8 782.23,-134.8 782.23,-134.8"/>
<polygon fill="black" stroke="black" points="782.23,-138.3 792.23,-134.8 782.23,-131.3 782.23,-138.3"/>
</g>
<!-- TokenModule -->
<g id="node12" class="node">
<title>TokenModule</title>
<polygon fill="#8dd3c7" stroke="black" points="228.82,-84.8 225.82,-88.8 204.82,-88.8 201.82,-84.8 133.18,-84.8 133.18,-48.8 228.82,-48.8 228.82,-84.8"/>
<text text-anchor="middle" x="181" y="-62.6" font-family="Times,serif" font-size="14.00">TokenModule</text>
</g>
<!-- TokenModule&#45;&gt;AppModule -->
<g id="edge12" class="edge">
<title>TokenModule&#45;&gt;AppModule</title>
<path fill="none" stroke="black" d="M181,-84.84C181,-106.46 181,-139.8 181,-139.8 181,-139.8 782.16,-139.8 782.16,-139.8"/>
<polygon fill="black" stroke="black" points="782.16,-143.3 792.16,-139.8 782.16,-136.3 782.16,-143.3"/>
</g>
<!-- UsersModule -->
<g id="node13" class="node">
<title>UsersModule</title>
<polygon fill="#8dd3c7" stroke="black" points="115.92,-84.8 112.92,-88.8 91.92,-88.8 88.92,-84.8 24.08,-84.8 24.08,-48.8 115.92,-48.8 115.92,-84.8"/>
<text text-anchor="middle" x="70" y="-62.6" font-family="Times,serif" font-size="14.00">UsersModule</text>
</g>
<!-- UsersModule&#45;&gt;AppModule -->
<g id="edge13" class="edge">
<title>UsersModule&#45;&gt;AppModule</title>
<path fill="none" stroke="black" d="M70,-84.89C70,-107.93 70,-144.8 70,-144.8 70,-144.8 782.11,-144.8 782.11,-144.8"/>
<polygon fill="black" stroke="black" points="782.11,-148.3 792.11,-144.8 782.11,-141.3 782.11,-148.3"/>
</g>
<!-- AppService -->
<g id="node15" class="node">
<title>AppService</title>
<ellipse fill="#fdb462" stroke="black" cx="1675" cy="-66.8" rx="56.74" ry="18"/>
<text text-anchor="middle" x="1675" y="-62.6" font-family="Times,serif" font-size="14.00">AppService</text>
</g>
<!-- AppService&#45;&gt;AppModule -->
<g id="edge14" class="edge">
<title>AppService&#45;&gt;AppModule</title>
<path fill="none" stroke="black" d="M1675,-84.89C1675,-107.93 1675,-144.8 1675,-144.8 1675,-144.8 885.71,-144.8 885.71,-144.8"/>
<polygon fill="black" stroke="black" points="885.71,-141.3 875.71,-144.8 885.71,-148.3 885.71,-141.3"/>
</g>
</g>
</svg>
