<?xml version="1.0" encoding="UTF-8" standalone="no"?>
<!DOCTYPE svg PUBLIC "-//W3C//DTD SVG 1.1//EN"
 "http://www.w3.org/Graphics/SVG/1.1/DTD/svg11.dtd">
<!-- Generated by graphviz version 2.47.3 (20210619.1520)
 -->
<!-- Title: dependencies Pages: 1 -->
<svg width="360pt" height="247pt"
 viewBox="0.00 0.00 360.00 246.80" xmlns="http://www.w3.org/2000/svg" xmlns:xlink="http://www.w3.org/1999/xlink">
<g id="graph0" class="graph" transform="scale(1 1) rotate(0) translate(4 242.8)">
<title>dependencies</title>
<polygon fill="white" stroke="transparent" points="-4,4 -4,-242.8 356,-242.8 356,4 -4,4"/>
<text text-anchor="middle" x="176" y="-8.2" font-family="sans-serif" font-size="14.00">dependencies</text>
<g id="clust1" class="cluster">
<title>cluster_TokenModule</title>
<polygon fill="none" stroke="black" stroke-dasharray="1,5" points="8,-32.8 8,-230.8 344,-230.8 344,-32.8 8,-32.8"/>
</g>
<g id="clust6" class="cluster">
<title>cluster_TokenModule_providers</title>
<polygon fill="none" stroke="black" points="16,-40.8 16,-92.8 336,-92.8 336,-40.8 16,-40.8"/>
</g>
<g id="clust4" class="cluster">
<title>cluster_TokenModule_exports</title>
<polygon fill="none" stroke="black" points="38,-170.8 38,-222.8 286,-222.8 286,-170.8 38,-170.8"/>
</g>
<!-- TokenRepository  -->
<g id="node1" class="node">
<title>TokenRepository </title>
<polygon fill="#fb8072" stroke="black" points="278.21,-214.8 161.79,-214.8 161.79,-178.8 278.21,-178.8 278.21,-214.8"/>
<text text-anchor="middle" x="220" y="-192.6" font-family="Times,serif" font-size="14.00">TokenRepository </text>
</g>
<!-- TokenService  -->
<g id="node2" class="node">
<title>TokenService </title>
<polygon fill="#fb8072" stroke="black" points="143.75,-214.8 46.25,-214.8 46.25,-178.8 143.75,-178.8 143.75,-214.8"/>
<text text-anchor="middle" x="95" y="-192.6" font-family="Times,serif" font-size="14.00">TokenService </text>
</g>
<!-- TokenModule -->
<g id="node3" class="node">
<title>TokenModule</title>
<polygon fill="#8dd3c7" stroke="black" points="164.82,-149.8 161.82,-153.8 140.82,-153.8 137.82,-149.8 69.18,-149.8 69.18,-113.8 164.82,-113.8 164.82,-149.8"/>
<text text-anchor="middle" x="117" y="-127.6" font-family="Times,serif" font-size="14.00">TokenModule</text>
</g>
<!-- TokenModule&#45;&gt;TokenRepository  -->
<g id="edge1" class="edge">
<title>TokenModule&#45;&gt;TokenRepository </title>
<path fill="none" stroke="black" stroke-dasharray="5,2" d="M164.92,-131.8C167.03,-131.8 168.29,-131.8 168.29,-131.8 168.29,-131.8 168.29,-168.69 168.29,-168.69"/>
<polygon fill="black" stroke="black" points="164.79,-168.69 168.29,-178.69 171.79,-168.69 164.79,-168.69"/>
</g>
<!-- TokenModule&#45;&gt;TokenService  -->
<g id="edge2" class="edge">
<title>TokenModule&#45;&gt;TokenService </title>
<path fill="none" stroke="black" stroke-dasharray="5,2" d="M106.48,-149.91C106.48,-149.91 106.48,-168.79 106.48,-168.79"/>
<polygon fill="black" stroke="black" points="102.98,-168.79 106.48,-178.79 109.98,-168.79 102.98,-168.79"/>
</g>
<!-- TokenRepository -->
<g id="node4" class="node">
<title>TokenRepository</title>
<ellipse fill="#fdb462" stroke="black" cx="250" cy="-66.8" rx="78.17" ry="18"/>
<text text-anchor="middle" x="250" y="-62.6" font-family="Times,serif" font-size="14.00">TokenRepository</text>
</g>
<!-- TokenRepository&#45;&gt;TokenModule -->
<g id="edge3" class="edge">
<title>TokenRepository&#45;&gt;TokenModule</title>
<path fill="none" stroke="black" d="M171.79,-66.8C164.15,-66.8 159.16,-66.8 159.16,-66.8 159.16,-66.8 159.16,-103.69 159.16,-103.69"/>
<polygon fill="black" stroke="black" points="155.66,-103.69 159.16,-113.69 162.66,-103.69 155.66,-103.69"/>
</g>
<!-- TokenService -->
<g id="node5" class="node">
<title>TokenService</title>
<ellipse fill="#fdb462" stroke="black" cx="89" cy="-66.8" rx="64.83" ry="18"/>
<text text-anchor="middle" x="89" y="-62.6" font-family="Times,serif" font-size="14.00">TokenService</text>
</g>
<!-- TokenService&#45;&gt;TokenModule -->
<g id="edge4" class="edge">
<title>TokenService&#45;&gt;TokenModule</title>
<path fill="none" stroke="black" d="M111.5,-83.88C111.5,-83.88 111.5,-103.7 111.5,-103.7"/>
<polygon fill="black" stroke="black" points="108,-103.7 111.5,-113.7 115,-103.7 108,-103.7"/>
</g>
</g>
</svg>
