<?xml version="1.0" encoding="UTF-8" standalone="no"?>
<!DOCTYPE svg PUBLIC "-//W3C//DTD SVG 1.1//EN"
 "http://www.w3.org/Graphics/SVG/1.1/DTD/svg11.dtd">
<!-- Generated by graphviz version 2.47.3 (20210619.1520)
 -->
<!-- Title: dependencies Pages: 1 -->
<svg width="336pt" height="247pt"
 viewBox="0.00 0.00 336.00 246.80" xmlns="http://www.w3.org/2000/svg" xmlns:xlink="http://www.w3.org/1999/xlink">
<g id="graph0" class="graph" transform="scale(1 1) rotate(0) translate(4 242.8)">
<title>dependencies</title>
<polygon fill="white" stroke="transparent" points="-4,4 -4,-242.8 332,-242.8 332,4 -4,4"/>
<text text-anchor="middle" x="164" y="-8.2" font-family="sans-serif" font-size="14.00">dependencies</text>
<g id="clust1" class="cluster">
<title>cluster_QuizModule</title>
<polygon fill="none" stroke="black" stroke-dasharray="1,5" points="8,-32.8 8,-230.8 320,-230.8 320,-32.8 8,-32.8"/>
</g>
<g id="clust4" class="cluster">
<title>cluster_QuizModule_exports</title>
<polygon fill="none" stroke="black" points="36,-170.8 36,-222.8 266,-222.8 266,-170.8 36,-170.8"/>
</g>
<g id="clust6" class="cluster">
<title>cluster_QuizModule_providers</title>
<polygon fill="none" stroke="black" points="16,-40.8 16,-92.8 312,-92.8 312,-40.8 16,-40.8"/>
</g>
<!-- QuizRepository  -->
<g id="node1" class="node">
<title>QuizRepository </title>
<polygon fill="#fb8072" stroke="black" points="258.15,-214.8 149.85,-214.8 149.85,-178.8 258.15,-178.8 258.15,-214.8"/>
<text text-anchor="middle" x="204" y="-192.6" font-family="Times,serif" font-size="14.00">QuizRepository </text>
</g>
<!-- QuizService  -->
<g id="node2" class="node">
<title>QuizService </title>
<polygon fill="#fb8072" stroke="black" points="132.19,-214.8 43.81,-214.8 43.81,-178.8 132.19,-178.8 132.19,-214.8"/>
<text text-anchor="middle" x="88" y="-192.6" font-family="Times,serif" font-size="14.00">QuizService </text>
</g>
<!-- QuizModule -->
<g id="node3" class="node">
<title>QuizModule</title>
<polygon fill="#8dd3c7" stroke="black" points="151.26,-149.8 148.26,-153.8 127.26,-153.8 124.26,-149.8 64.74,-149.8 64.74,-113.8 151.26,-113.8 151.26,-149.8"/>
<text text-anchor="middle" x="108" y="-127.6" font-family="Times,serif" font-size="14.00">QuizModule</text>
</g>
<!-- QuizModule&#45;&gt;QuizRepository  -->
<g id="edge1" class="edge">
<title>QuizModule&#45;&gt;QuizRepository </title>
<path fill="none" stroke="black" stroke-dasharray="5,2" d="M151.54,-131.8C154.06,-131.8 155.6,-131.8 155.6,-131.8 155.6,-131.8 155.6,-168.69 155.6,-168.69"/>
<polygon fill="black" stroke="black" points="152.1,-168.69 155.6,-178.69 159.1,-168.69 152.1,-168.69"/>
</g>
<!-- QuizModule&#45;&gt;QuizService  -->
<g id="edge2" class="edge">
<title>QuizModule&#45;&gt;QuizService </title>
<path fill="none" stroke="black" stroke-dasharray="5,2" d="M98.48,-149.91C98.48,-149.91 98.48,-168.79 98.48,-168.79"/>
<polygon fill="black" stroke="black" points="94.98,-168.79 98.48,-178.79 101.98,-168.79 94.98,-168.79"/>
</g>
<!-- QuizRepository -->
<g id="node4" class="node">
<title>QuizRepository</title>
<ellipse fill="#fdb462" stroke="black" cx="232" cy="-66.8" rx="72.37" ry="18"/>
<text text-anchor="middle" x="232" y="-62.6" font-family="Times,serif" font-size="14.00">QuizRepository</text>
</g>
<!-- QuizRepository&#45;&gt;QuizModule -->
<g id="edge3" class="edge">
<title>QuizRepository&#45;&gt;QuizModule</title>
<path fill="none" stroke="black" d="M159.55,-66.8C151.75,-66.8 146.57,-66.8 146.57,-66.8 146.57,-66.8 146.57,-103.69 146.57,-103.69"/>
<polygon fill="black" stroke="black" points="143.07,-103.69 146.57,-113.69 150.07,-103.69 143.07,-103.69"/>
</g>
<!-- QuizService -->
<g id="node5" class="node">
<title>QuizService</title>
<ellipse fill="#fdb462" stroke="black" cx="83" cy="-66.8" rx="58.53" ry="18"/>
<text text-anchor="middle" x="83" y="-62.6" font-family="Times,serif" font-size="14.00">QuizService</text>
</g>
<!-- QuizService&#45;&gt;QuizModule -->
<g id="edge4" class="edge">
<title>QuizService&#45;&gt;QuizModule</title>
<path fill="none" stroke="black" d="M103.19,-83.88C103.19,-83.88 103.19,-103.7 103.19,-103.7"/>
<polygon fill="black" stroke="black" points="99.69,-103.7 103.19,-113.7 106.69,-103.7 99.69,-103.7"/>
</g>
</g>
</svg>
