<?xml version="1.0" encoding="UTF-8" standalone="no"?>
<!DOCTYPE svg PUBLIC "-//W3C//DTD SVG 1.1//EN"
 "http://www.w3.org/Graphics/SVG/1.1/DTD/svg11.dtd">
<!-- Generated by graphviz version 2.47.3 (20210619.1520)
 -->
<!-- Title: dependencies Pages: 1 -->
<svg width="476pt" height="247pt"
 viewBox="0.00 0.00 476.00 246.80" xmlns="http://www.w3.org/2000/svg" xmlns:xlink="http://www.w3.org/1999/xlink">
<g id="graph0" class="graph" transform="scale(1 1) rotate(0) translate(4 242.8)">
<title>dependencies</title>
<polygon fill="white" stroke="transparent" points="-4,4 -4,-242.8 472,-242.8 472,4 -4,4"/>
<text text-anchor="middle" x="234" y="-8.2" font-family="sans-serif" font-size="14.00">dependencies</text>
<g id="clust1" class="cluster">
<title>cluster_QuizQuestionModule</title>
<polygon fill="none" stroke="black" stroke-dasharray="1,5" points="8,-32.8 8,-230.8 460,-230.8 460,-32.8 8,-32.8"/>
</g>
<g id="clust4" class="cluster">
<title>cluster_QuizQuestionModule_exports</title>
<polygon fill="none" stroke="black" points="48,-170.8 48,-222.8 380,-222.8 380,-170.8 48,-170.8"/>
</g>
<g id="clust6" class="cluster">
<title>cluster_QuizQuestionModule_providers</title>
<polygon fill="none" stroke="black" points="16,-40.8 16,-92.8 452,-92.8 452,-40.8 16,-40.8"/>
</g>
<!-- QuizQuestionRepository  -->
<g id="node1" class="node">
<title>QuizQuestionRepository </title>
<polygon fill="#fb8072" stroke="black" points="372.2,-214.8 213.8,-214.8 213.8,-178.8 372.2,-178.8 372.2,-214.8"/>
<text text-anchor="middle" x="293" y="-192.6" font-family="Times,serif" font-size="14.00">QuizQuestionRepository </text>
</g>
<!-- QuizQuestionService  -->
<g id="node2" class="node">
<title>QuizQuestionService </title>
<polygon fill="#fb8072" stroke="black" points="195.74,-214.8 56.26,-214.8 56.26,-178.8 195.74,-178.8 195.74,-214.8"/>
<text text-anchor="middle" x="126" y="-192.6" font-family="Times,serif" font-size="14.00">QuizQuestionService </text>
</g>
<!-- QuizQuestionModule -->
<g id="node3" class="node">
<title>QuizQuestionModule</title>
<polygon fill="#8dd3c7" stroke="black" points="226.81,-149.8 223.81,-153.8 202.81,-153.8 199.81,-149.8 89.19,-149.8 89.19,-113.8 226.81,-113.8 226.81,-149.8"/>
<text text-anchor="middle" x="158" y="-127.6" font-family="Times,serif" font-size="14.00">QuizQuestionModule</text>
</g>
<!-- QuizQuestionModule&#45;&gt;QuizQuestionRepository  -->
<g id="edge1" class="edge">
<title>QuizQuestionModule&#45;&gt;QuizQuestionRepository </title>
<path fill="none" stroke="black" stroke-dasharray="5,2" d="M220.15,-149.91C220.15,-149.91 220.15,-168.79 220.15,-168.79"/>
<polygon fill="black" stroke="black" points="216.65,-168.79 220.15,-178.79 223.65,-168.79 216.65,-168.79"/>
</g>
<!-- QuizQuestionModule&#45;&gt;QuizQuestionService  -->
<g id="edge2" class="edge">
<title>QuizQuestionModule&#45;&gt;QuizQuestionService </title>
<path fill="none" stroke="black" stroke-dasharray="5,2" d="M142.48,-149.91C142.48,-149.91 142.48,-168.79 142.48,-168.79"/>
<polygon fill="black" stroke="black" points="138.98,-168.79 142.48,-178.79 145.98,-168.79 138.98,-168.79"/>
</g>
<!-- QuizQuestionRepository -->
<g id="node4" class="node">
<title>QuizQuestionRepository</title>
<ellipse fill="#fdb462" stroke="black" cx="337" cy="-66.8" rx="107.1" ry="18"/>
<text text-anchor="middle" x="337" y="-62.6" font-family="Times,serif" font-size="14.00">QuizQuestionRepository</text>
</g>
<!-- QuizQuestionRepository&#45;&gt;QuizQuestionModule -->
<g id="edge3" class="edge">
<title>QuizQuestionRepository&#45;&gt;QuizQuestionModule</title>
<path fill="none" stroke="black" d="M229.6,-66.8C223.11,-66.8 219.14,-66.8 219.14,-66.8 219.14,-66.8 219.14,-103.69 219.14,-103.69"/>
<polygon fill="black" stroke="black" points="215.64,-103.69 219.14,-113.69 222.64,-103.69 215.64,-103.69"/>
</g>
<!-- QuizQuestionService -->
<g id="node5" class="node">
<title>QuizQuestionService</title>
<ellipse fill="#fdb462" stroke="black" cx="118" cy="-66.8" rx="93.76" ry="18"/>
<text text-anchor="middle" x="118" y="-62.6" font-family="Times,serif" font-size="14.00">QuizQuestionService</text>
</g>
<!-- QuizQuestionService&#45;&gt;QuizQuestionModule -->
<g id="edge4" class="edge">
<title>QuizQuestionService&#45;&gt;QuizQuestionModule</title>
<path fill="none" stroke="black" d="M150.49,-83.88C150.49,-83.88 150.49,-103.7 150.49,-103.7"/>
<polygon fill="black" stroke="black" points="146.99,-103.7 150.49,-113.7 153.99,-103.7 146.99,-103.7"/>
</g>
</g>
</svg>
