<?xml version="1.0" encoding="UTF-8" standalone="no"?>
<!DOCTYPE svg PUBLIC "-//W3C//DTD SVG 1.1//EN"
 "http://www.w3.org/Graphics/SVG/1.1/DTD/svg11.dtd">
<!-- Generated by graphviz version 2.47.3 (20210619.1520)
 -->
<!-- Title: dependencies Pages: 1 -->
<svg width="166pt" height="247pt"
 viewBox="0.00 0.00 166.00 246.80" xmlns="http://www.w3.org/2000/svg" xmlns:xlink="http://www.w3.org/1999/xlink">
<g id="graph0" class="graph" transform="scale(1 1) rotate(0) translate(4 242.8)">
<title>dependencies</title>
<polygon fill="white" stroke="transparent" points="-4,4 -4,-242.8 162,-242.8 162,4 -4,4"/>
<text text-anchor="middle" x="79" y="-8.2" font-family="sans-serif" font-size="14.00">dependencies</text>
<g id="clust1" class="cluster">
<title>cluster_FileModule</title>
<polygon fill="none" stroke="black" stroke-dasharray="1,5" points="8,-32.8 8,-230.8 150,-230.8 150,-32.8 8,-32.8"/>
</g>
<g id="clust6" class="cluster">
<title>cluster_FileModule_providers</title>
<polygon fill="none" stroke="black" points="16,-40.8 16,-92.8 142,-92.8 142,-40.8 16,-40.8"/>
</g>
<g id="clust4" class="cluster">
<title>cluster_FileModule_exports</title>
<polygon fill="none" stroke="black" points="29,-170.8 29,-222.8 129,-222.8 129,-170.8 29,-170.8"/>
</g>
<!-- FileService  -->
<g id="node1" class="node">
<title>FileService </title>
<polygon fill="#fb8072" stroke="black" points="120.76,-214.8 37.24,-214.8 37.24,-178.8 120.76,-178.8 120.76,-214.8"/>
<text text-anchor="middle" x="79" y="-192.6" font-family="Times,serif" font-size="14.00">FileService </text>
</g>
<!-- FileModule -->
<g id="node2" class="node">
<title>FileModule</title>
<polygon fill="#8dd3c7" stroke="black" points="119.83,-149.8 116.83,-153.8 95.83,-153.8 92.83,-149.8 38.17,-149.8 38.17,-113.8 119.83,-113.8 119.83,-149.8"/>
<text text-anchor="middle" x="79" y="-127.6" font-family="Times,serif" font-size="14.00">FileModule</text>
</g>
<!-- FileModule&#45;&gt;FileService  -->
<g id="edge1" class="edge">
<title>FileModule&#45;&gt;FileService </title>
<path fill="none" stroke="black" stroke-dasharray="5,2" d="M79,-149.91C79,-149.91 79,-168.79 79,-168.79"/>
<polygon fill="black" stroke="black" points="75.5,-168.79 79,-178.79 82.5,-168.79 75.5,-168.79"/>
</g>
<!-- FileService -->
<g id="node3" class="node">
<title>FileService</title>
<ellipse fill="#fdb462" stroke="black" cx="79" cy="-66.8" rx="55.03" ry="18"/>
<text text-anchor="middle" x="79" y="-62.6" font-family="Times,serif" font-size="14.00">FileService</text>
</g>
<!-- FileService&#45;&gt;FileModule -->
<g id="edge2" class="edge">
<title>FileService&#45;&gt;FileModule</title>
<path fill="none" stroke="black" d="M79,-84.91C79,-84.91 79,-103.79 79,-103.79"/>
<polygon fill="black" stroke="black" points="75.5,-103.79 79,-113.79 82.5,-103.79 75.5,-103.79"/>
</g>
</g>
</svg>
