<?xml version="1.0" encoding="UTF-8" standalone="no"?>
<!DOCTYPE svg PUBLIC "-//W3C//DTD SVG 1.1//EN"
 "http://www.w3.org/Graphics/SVG/1.1/DTD/svg11.dtd">
<!-- Generated by graphviz version 2.47.3 (20210619.1520)
 -->
<!-- Title: dependencies Pages: 1 -->
<svg width="332pt" height="247pt"
 viewBox="0.00 0.00 332.00 246.80" xmlns="http://www.w3.org/2000/svg" xmlns:xlink="http://www.w3.org/1999/xlink">
<g id="graph0" class="graph" transform="scale(1 1) rotate(0) translate(4 242.8)">
<title>dependencies</title>
<polygon fill="white" stroke="transparent" points="-4,4 -4,-242.8 328,-242.8 328,4 -4,4"/>
<text text-anchor="middle" x="162" y="-8.2" font-family="sans-serif" font-size="14.00">dependencies</text>
<g id="clust1" class="cluster">
<title>cluster_AppModule</title>
<polygon fill="none" stroke="black" stroke-dasharray="1,5" points="8,-32.8 8,-230.8 316,-230.8 316,-32.8 8,-32.8"/>
</g>
<g id="clust7" class="cluster">
<title>cluster_AppModule_bootstrap</title>
<polygon fill="none" stroke="black" points="111,-170.8 111,-222.8 235,-222.8 235,-170.8 111,-170.8"/>
</g>
<g id="clust2" class="cluster">
<title>cluster_AppModule_declarations</title>
<polygon fill="none" stroke="black" points="16,-40.8 16,-92.8 308,-92.8 308,-40.8 16,-40.8"/>
</g>
<!-- AppComponent -->
<g id="node1" class="node">
<title>AppComponent</title>
<polygon fill="#ffffb3" stroke="black" points="299.94,-84.8 194.06,-84.8 194.06,-48.8 299.94,-48.8 299.94,-84.8"/>
<text text-anchor="middle" x="247" y="-62.6" font-family="Times,serif" font-size="14.00">AppComponent</text>
</g>
<!-- AppModule -->
<g id="node3" class="node">
<title>AppModule</title>
<polygon fill="#8dd3c7" stroke="black" points="214.66,-149.8 211.66,-153.8 190.66,-153.8 187.66,-149.8 131.34,-149.8 131.34,-113.8 214.66,-113.8 214.66,-149.8"/>
<text text-anchor="middle" x="173" y="-127.6" font-family="Times,serif" font-size="14.00">AppModule</text>
</g>
<!-- AppComponent&#45;&gt;AppModule -->
<g id="edge1" class="edge">
<title>AppComponent&#45;&gt;AppModule</title>
<path fill="none" stroke="black" d="M204.55,-84.91C204.55,-84.91 204.55,-103.79 204.55,-103.79"/>
<polygon fill="black" stroke="black" points="201.05,-103.79 204.55,-113.79 208.05,-103.79 201.05,-103.79"/>
</g>
<!-- NxWelcomeComponent -->
<g id="node2" class="node">
<title>NxWelcomeComponent</title>
<polygon fill="#ffffb3" stroke="black" points="176.08,-84.8 23.92,-84.8 23.92,-48.8 176.08,-48.8 176.08,-84.8"/>
<text text-anchor="middle" x="100" y="-62.6" font-family="Times,serif" font-size="14.00">NxWelcomeComponent</text>
</g>
<!-- NxWelcomeComponent&#45;&gt;AppModule -->
<g id="edge2" class="edge">
<title>NxWelcomeComponent&#45;&gt;AppModule</title>
<path fill="none" stroke="black" d="M153.61,-84.91C153.61,-84.91 153.61,-103.79 153.61,-103.79"/>
<polygon fill="black" stroke="black" points="150.11,-103.79 153.61,-113.79 157.11,-103.79 150.11,-103.79"/>
</g>
<!-- AppComponent  -->
<g id="node4" class="node">
<title>AppComponent </title>
<polygon fill="#80b1d3" stroke="black" points="227.44,-214.8 118.56,-214.8 118.56,-178.8 227.44,-178.8 227.44,-214.8"/>
<text text-anchor="middle" x="173" y="-192.6" font-family="Times,serif" font-size="14.00">AppComponent </text>
</g>
<!-- AppModule&#45;&gt;AppComponent  -->
<g id="edge3" class="edge">
<title>AppModule&#45;&gt;AppComponent </title>
<path fill="none" stroke="black" stroke-dasharray="1,5" d="M173,-149.91C173,-149.91 173,-168.79 173,-168.79"/>
<polygon fill="black" stroke="black" points="169.5,-168.79 173,-178.79 176.5,-168.79 169.5,-168.79"/>
</g>
</g>
</svg>
