<?xml version="1.0" encoding="UTF-8" standalone="no"?>
<!DOCTYPE svg PUBLIC "-//W3C//DTD SVG 1.1//EN"
 "http://www.w3.org/Graphics/SVG/1.1/DTD/svg11.dtd">
<!-- Generated by graphviz version 2.47.3 (20210619.1520)
 -->
<!-- Title: dependencies Pages: 1 -->
<svg width="499pt" height="247pt"
 viewBox="0.00 0.00 499.00 246.80" xmlns="http://www.w3.org/2000/svg" xmlns:xlink="http://www.w3.org/1999/xlink">
<g id="graph0" class="graph" transform="scale(1 1) rotate(0) translate(4 242.8)">
<title>dependencies</title>
<polygon fill="white" stroke="transparent" points="-4,4 -4,-242.8 495,-242.8 495,4 -4,4"/>
<text text-anchor="middle" x="245.5" y="-8.2" font-family="sans-serif" font-size="14.00">dependencies</text>
<g id="clust1" class="cluster">
<title>cluster_HangmanWordModule</title>
<polygon fill="none" stroke="black" stroke-dasharray="1,5" points="8,-32.8 8,-230.8 483,-230.8 483,-32.8 8,-32.8"/>
</g>
<g id="clust6" class="cluster">
<title>cluster_HangmanWordModule_providers</title>
<polygon fill="none" stroke="black" points="16,-40.8 16,-92.8 475,-92.8 475,-40.8 16,-40.8"/>
</g>
<g id="clust4" class="cluster">
<title>cluster_HangmanWordModule_exports</title>
<polygon fill="none" stroke="black" points="50,-170.8 50,-222.8 400,-222.8 400,-170.8 50,-170.8"/>
</g>
<!-- HangmanWordRepository  -->
<g id="node1" class="node">
<title>HangmanWordRepository </title>
<polygon fill="#fb8072" stroke="black" points="391.74,-214.8 224.26,-214.8 224.26,-178.8 391.74,-178.8 391.74,-214.8"/>
<text text-anchor="middle" x="308" y="-192.6" font-family="Times,serif" font-size="14.00">HangmanWordRepository </text>
</g>
<!-- HangmanWordService  -->
<g id="node2" class="node">
<title>HangmanWordService </title>
<polygon fill="#fb8072" stroke="black" points="205.78,-214.8 58.22,-214.8 58.22,-178.8 205.78,-178.8 205.78,-214.8"/>
<text text-anchor="middle" x="132" y="-192.6" font-family="Times,serif" font-size="14.00">HangmanWordService </text>
</g>
<!-- HangmanWordModule -->
<g id="node3" class="node">
<title>HangmanWordModule</title>
<polygon fill="#8dd3c7" stroke="black" points="237.85,-149.8 234.85,-153.8 213.85,-153.8 210.85,-149.8 92.15,-149.8 92.15,-113.8 237.85,-113.8 237.85,-149.8"/>
<text text-anchor="middle" x="165" y="-127.6" font-family="Times,serif" font-size="14.00">HangmanWordModule</text>
</g>
<!-- HangmanWordModule&#45;&gt;HangmanWordRepository  -->
<g id="edge1" class="edge">
<title>HangmanWordModule&#45;&gt;HangmanWordRepository </title>
<path fill="none" stroke="black" stroke-dasharray="5,2" d="M231.15,-149.91C231.15,-149.91 231.15,-168.79 231.15,-168.79"/>
<polygon fill="black" stroke="black" points="227.65,-168.79 231.15,-178.79 234.65,-168.79 227.65,-168.79"/>
</g>
<!-- HangmanWordModule&#45;&gt;HangmanWordService  -->
<g id="edge2" class="edge">
<title>HangmanWordModule&#45;&gt;HangmanWordService </title>
<path fill="none" stroke="black" stroke-dasharray="5,2" d="M148.98,-149.91C148.98,-149.91 148.98,-168.79 148.98,-168.79"/>
<polygon fill="black" stroke="black" points="145.48,-168.79 148.98,-178.79 152.48,-168.79 145.48,-168.79"/>
</g>
<!-- HangmanWordRepository -->
<g id="node4" class="node">
<title>HangmanWordRepository</title>
<ellipse fill="#fdb462" stroke="black" cx="354" cy="-66.8" rx="112.89" ry="18"/>
<text text-anchor="middle" x="354" y="-62.6" font-family="Times,serif" font-size="14.00">HangmanWordRepository</text>
</g>
<!-- HangmanWordRepository&#45;&gt;HangmanWordModule -->
<g id="edge3" class="edge">
<title>HangmanWordRepository&#45;&gt;HangmanWordModule</title>
<path fill="none" stroke="black" d="M240.81,-66.8C234.53,-66.8 230.72,-66.8 230.72,-66.8 230.72,-66.8 230.72,-103.69 230.72,-103.69"/>
<polygon fill="black" stroke="black" points="227.22,-103.69 230.72,-113.69 234.22,-103.69 227.22,-103.69"/>
</g>
<!-- HangmanWordService -->
<g id="node5" class="node">
<title>HangmanWordService</title>
<ellipse fill="#fdb462" stroke="black" cx="124" cy="-66.8" rx="99.54" ry="18"/>
<text text-anchor="middle" x="124" y="-62.6" font-family="Times,serif" font-size="14.00">HangmanWordService</text>
</g>
<!-- HangmanWordService&#45;&gt;HangmanWordModule -->
<g id="edge4" class="edge">
<title>HangmanWordService&#45;&gt;HangmanWordModule</title>
<path fill="none" stroke="black" d="M157.8,-83.88C157.8,-83.88 157.8,-103.7 157.8,-103.7"/>
<polygon fill="black" stroke="black" points="154.3,-103.7 157.8,-113.7 161.3,-103.7 154.3,-103.7"/>
</g>
</g>
</svg>
