<?xml version="1.0" encoding="UTF-8" standalone="no"?>
<!DOCTYPE svg PUBLIC "-//W3C//DTD SVG 1.1//EN"
 "http://www.w3.org/Graphics/SVG/1.1/DTD/svg11.dtd">
<!-- Generated by graphviz version 2.47.3 (20210619.1520)
 -->
<!-- Title: dependencies Pages: 1 -->
<svg width="368pt" height="247pt"
 viewBox="0.00 0.00 368.00 246.80" xmlns="http://www.w3.org/2000/svg" xmlns:xlink="http://www.w3.org/1999/xlink">
<g id="graph0" class="graph" transform="scale(1 1) rotate(0) translate(4 242.8)">
<title>dependencies</title>
<polygon fill="white" stroke="transparent" points="-4,4 -4,-242.8 364,-242.8 364,4 -4,4"/>
<text text-anchor="middle" x="180" y="-8.2" font-family="sans-serif" font-size="14.00">dependencies</text>
<g id="clust1" class="cluster">
<title>cluster_SchoolModule</title>
<polygon fill="none" stroke="black" stroke-dasharray="1,5" points="8,-32.8 8,-230.8 352,-230.8 352,-32.8 8,-32.8"/>
</g>
<g id="clust4" class="cluster">
<title>cluster_SchoolModule_exports</title>
<polygon fill="none" stroke="black" points="39,-170.8 39,-222.8 293,-222.8 293,-170.8 39,-170.8"/>
</g>
<g id="clust6" class="cluster">
<title>cluster_SchoolModule_providers</title>
<polygon fill="none" stroke="black" points="16,-40.8 16,-92.8 344,-92.8 344,-40.8 16,-40.8"/>
</g>
<!-- SchoolRepository  -->
<g id="node1" class="node">
<title>SchoolRepository </title>
<polygon fill="#fb8072" stroke="black" points="284.83,-214.8 165.17,-214.8 165.17,-178.8 284.83,-178.8 284.83,-214.8"/>
<text text-anchor="middle" x="225" y="-192.6" font-family="Times,serif" font-size="14.00">SchoolRepository </text>
</g>
<!-- SchoolService  -->
<g id="node2" class="node">
<title>SchoolService </title>
<polygon fill="#fb8072" stroke="black" points="147.37,-214.8 46.63,-214.8 46.63,-178.8 147.37,-178.8 147.37,-214.8"/>
<text text-anchor="middle" x="97" y="-192.6" font-family="Times,serif" font-size="14.00">SchoolService </text>
</g>
<!-- SchoolModule -->
<g id="node3" class="node">
<title>SchoolModule</title>
<polygon fill="#8dd3c7" stroke="black" points="168.44,-149.8 165.44,-153.8 144.44,-153.8 141.44,-149.8 69.56,-149.8 69.56,-113.8 168.44,-113.8 168.44,-149.8"/>
<text text-anchor="middle" x="119" y="-127.6" font-family="Times,serif" font-size="14.00">SchoolModule</text>
</g>
<!-- SchoolModule&#45;&gt;SchoolRepository  -->
<g id="edge1" class="edge">
<title>SchoolModule&#45;&gt;SchoolRepository </title>
<path fill="none" stroke="black" stroke-dasharray="5,2" d="M168.51,-131.8C170.7,-131.8 171.99,-131.8 171.99,-131.8 171.99,-131.8 171.99,-168.69 171.99,-168.69"/>
<polygon fill="black" stroke="black" points="168.49,-168.69 171.99,-178.69 175.49,-168.69 168.49,-168.69"/>
</g>
<!-- SchoolModule&#45;&gt;SchoolService  -->
<g id="edge2" class="edge">
<title>SchoolModule&#45;&gt;SchoolService </title>
<path fill="none" stroke="black" stroke-dasharray="5,2" d="M108.48,-149.91C108.48,-149.91 108.48,-168.79 108.48,-168.79"/>
<polygon fill="black" stroke="black" points="104.98,-168.79 108.48,-178.79 111.98,-168.79 104.98,-168.79"/>
</g>
<!-- SchoolRepository -->
<g id="node4" class="node">
<title>SchoolRepository</title>
<ellipse fill="#fdb462" stroke="black" cx="256" cy="-66.8" rx="80.48" ry="18"/>
<text text-anchor="middle" x="256" y="-62.6" font-family="Times,serif" font-size="14.00">SchoolRepository</text>
</g>
<!-- SchoolRepository&#45;&gt;SchoolModule -->
<g id="edge3" class="edge">
<title>SchoolRepository&#45;&gt;SchoolModule</title>
<path fill="none" stroke="black" d="M175.56,-66.8C167.96,-66.8 163.02,-66.8 163.02,-66.8 163.02,-66.8 163.02,-103.69 163.02,-103.69"/>
<polygon fill="black" stroke="black" points="159.52,-103.69 163.02,-113.69 166.52,-103.69 159.52,-103.69"/>
</g>
<!-- SchoolService -->
<g id="node5" class="node">
<title>SchoolService</title>
<ellipse fill="#fdb462" stroke="black" cx="91" cy="-66.8" rx="66.63" ry="18"/>
<text text-anchor="middle" x="91" y="-62.6" font-family="Times,serif" font-size="14.00">SchoolService</text>
</g>
<!-- SchoolService&#45;&gt;SchoolModule -->
<g id="edge4" class="edge">
<title>SchoolService&#45;&gt;SchoolModule</title>
<path fill="none" stroke="black" d="M113.8,-83.88C113.8,-83.88 113.8,-103.7 113.8,-103.7"/>
<polygon fill="black" stroke="black" points="110.3,-103.7 113.8,-113.7 117.3,-103.7 110.3,-103.7"/>
</g>
</g>
</svg>
