<?xml version="1.0" encoding="UTF-8" standalone="no"?>
<!DOCTYPE svg PUBLIC "-//W3C//DTD SVG 1.1//EN"
 "http://www.w3.org/Graphics/SVG/1.1/DTD/svg11.dtd">
<!-- Generated by graphviz version 2.47.3 (20210619.1520)
 -->
<!-- Title: dependencies Pages: 1 -->
<svg width="480pt" height="247pt"
 viewBox="0.00 0.00 480.00 246.80" xmlns="http://www.w3.org/2000/svg" xmlns:xlink="http://www.w3.org/1999/xlink">
<g id="graph0" class="graph" transform="scale(1 1) rotate(0) translate(4 242.8)">
<title>dependencies</title>
<polygon fill="white" stroke="transparent" points="-4,4 -4,-242.8 476,-242.8 476,4 -4,4"/>
<text text-anchor="middle" x="236" y="-8.2" font-family="sans-serif" font-size="14.00">dependencies</text>
<g id="clust1" class="cluster">
<title>cluster_GroupingItemModule</title>
<polygon fill="none" stroke="black" stroke-dasharray="1,5" points="8,-32.8 8,-230.8 464,-230.8 464,-32.8 8,-32.8"/>
</g>
<g id="clust4" class="cluster">
<title>cluster_GroupingItemModule_exports</title>
<polygon fill="none" stroke="black" points="49,-170.8 49,-222.8 384,-222.8 384,-170.8 49,-170.8"/>
</g>
<g id="clust6" class="cluster">
<title>cluster_GroupingItemModule_providers</title>
<polygon fill="none" stroke="black" points="16,-40.8 16,-92.8 456,-92.8 456,-40.8 16,-40.8"/>
</g>
<!-- GroupingItemRepository  -->
<g id="node1" class="node">
<title>GroupingItemRepository </title>
<polygon fill="#fb8072" stroke="black" points="376.25,-214.8 215.75,-214.8 215.75,-178.8 376.25,-178.8 376.25,-214.8"/>
<text text-anchor="middle" x="296" y="-192.6" font-family="Times,serif" font-size="14.00">GroupingItemRepository </text>
</g>
<!-- GroupingItemService  -->
<g id="node2" class="node">
<title>GroupingItemService </title>
<polygon fill="#fb8072" stroke="black" points="197.29,-214.8 56.71,-214.8 56.71,-178.8 197.29,-178.8 197.29,-214.8"/>
<text text-anchor="middle" x="127" y="-192.6" font-family="Times,serif" font-size="14.00">GroupingItemService </text>
</g>
<!-- GroupingItemModule -->
<g id="node3" class="node">
<title>GroupingItemModule</title>
<polygon fill="#8dd3c7" stroke="black" points="228.36,-149.8 225.36,-153.8 204.36,-153.8 201.36,-149.8 89.64,-149.8 89.64,-113.8 228.36,-113.8 228.36,-149.8"/>
<text text-anchor="middle" x="159" y="-127.6" font-family="Times,serif" font-size="14.00">GroupingItemModule</text>
</g>
<!-- GroupingItemModule&#45;&gt;GroupingItemRepository  -->
<g id="edge1" class="edge">
<title>GroupingItemModule&#45;&gt;GroupingItemRepository </title>
<path fill="none" stroke="black" stroke-dasharray="5,2" d="M222.15,-149.91C222.15,-149.91 222.15,-168.79 222.15,-168.79"/>
<polygon fill="black" stroke="black" points="218.65,-168.79 222.15,-178.79 225.65,-168.79 218.65,-168.79"/>
</g>
<!-- GroupingItemModule&#45;&gt;GroupingItemService  -->
<g id="edge2" class="edge">
<title>GroupingItemModule&#45;&gt;GroupingItemService </title>
<path fill="none" stroke="black" stroke-dasharray="5,2" d="M143.48,-149.91C143.48,-149.91 143.48,-168.79 143.48,-168.79"/>
<polygon fill="black" stroke="black" points="139.98,-168.79 143.48,-178.79 146.98,-168.79 139.98,-168.79"/>
</g>
<!-- GroupingItemRepository -->
<g id="node4" class="node">
<title>GroupingItemRepository</title>
<ellipse fill="#fdb462" stroke="black" cx="340" cy="-66.8" rx="108.25" ry="18"/>
<text text-anchor="middle" x="340" y="-62.6" font-family="Times,serif" font-size="14.00">GroupingItemRepository</text>
</g>
<!-- GroupingItemRepository&#45;&gt;GroupingItemModule -->
<g id="edge3" class="edge">
<title>GroupingItemRepository&#45;&gt;GroupingItemModule</title>
<path fill="none" stroke="black" d="M231.62,-66.8C225.08,-66.8 221.07,-66.8 221.07,-66.8 221.07,-66.8 221.07,-103.69 221.07,-103.69"/>
<polygon fill="black" stroke="black" points="217.57,-103.69 221.07,-113.69 224.57,-103.69 217.57,-103.69"/>
</g>
<!-- GroupingItemService -->
<g id="node5" class="node">
<title>GroupingItemService</title>
<ellipse fill="#fdb462" stroke="black" cx="119" cy="-66.8" rx="94.9" ry="18"/>
<text text-anchor="middle" x="119" y="-62.6" font-family="Times,serif" font-size="14.00">GroupingItemService</text>
</g>
<!-- GroupingItemService&#45;&gt;GroupingItemModule -->
<g id="edge4" class="edge">
<title>GroupingItemService&#45;&gt;GroupingItemModule</title>
<path fill="none" stroke="black" d="M151.63,-83.88C151.63,-83.88 151.63,-103.7 151.63,-103.7"/>
<polygon fill="black" stroke="black" points="148.13,-103.7 151.63,-113.7 155.13,-103.7 148.13,-103.7"/>
</g>
</g>
</svg>
