<?xml version="1.0" encoding="UTF-8" standalone="no"?>
<!DOCTYPE svg PUBLIC "-//W3C//DTD SVG 1.1//EN"
 "http://www.w3.org/Graphics/SVG/1.1/DTD/svg11.dtd">
<!-- Generated by graphviz version 2.47.3 (20210619.1520)
 -->
<!-- Title: dependencies Pages: 1 -->
<svg width="5308pt" height="334pt"
 viewBox="0.00 0.00 5308.00 333.80" xmlns="http://www.w3.org/2000/svg" xmlns:xlink="http://www.w3.org/1999/xlink">
<g id="graph0" class="graph" transform="scale(1 1) rotate(0) translate(4 329.8)">
<title>dependencies</title>
<polygon fill="white" stroke="transparent" points="-4,4 -4,-329.8 5304,-329.8 5304,4 -4,4"/>
<text text-anchor="middle" x="2650" y="-8.2" font-family="sans-serif" font-size="14.00">dependencies</text>
<g id="clust1" class="cluster">
<title>cluster_AppModule</title>
<polygon fill="none" stroke="black" stroke-dasharray="1,5" points="95,-108.8 95,-309.8 1254,-309.8 1254,-108.8 95,-108.8"/>
</g>
<g id="clust3" class="cluster">
<title>cluster_AppModule_imports</title>
<polygon fill="none" stroke="black" points="241,-116.8 241,-233.8 1246,-233.8 1246,-116.8 241,-116.8"/>
</g>
<g id="clust6" class="cluster">
<title>cluster_AppModule_providers</title>
<polygon fill="none" stroke="black" points="103,-181.8 103,-233.8 233,-233.8 233,-181.8 103,-181.8"/>
</g>
<g id="clust7" class="cluster">
<title>cluster_AuthModule</title>
<polygon fill="none" stroke="black" stroke-dasharray="1,5" points="452,-32.8 452,-100.8 883,-100.8 883,-32.8 452,-32.8"/>
</g>
<g id="clust12" class="cluster">
<title>cluster_AuthModule_providers</title>
<polygon fill="none" stroke="black" points="460,-40.8 460,-92.8 875,-92.8 875,-40.8 460,-40.8"/>
</g>
<g id="clust19" class="cluster">
<title>cluster_GroupingItemModule</title>
<polygon fill="none" stroke="black" stroke-dasharray="1,5" points="1262,-173.8 1262,-241.8 2061,-241.8 2061,-173.8 1262,-173.8"/>
</g>
<g id="clust22" class="cluster">
<title>cluster_GroupingItemModule_exports</title>
<polygon fill="none" stroke="black" points="1718,-181.8 1718,-233.8 2053,-233.8 2053,-181.8 1718,-181.8"/>
</g>
<g id="clust24" class="cluster">
<title>cluster_GroupingItemModule_providers</title>
<polygon fill="none" stroke="black" points="1270,-181.8 1270,-233.8 1710,-233.8 1710,-181.8 1270,-181.8"/>
</g>
<g id="clust25" class="cluster">
<title>cluster_HangmanWordModule</title>
<polygon fill="none" stroke="black" stroke-dasharray="1,5" points="2069,-173.8 2069,-241.8 2902,-241.8 2902,-173.8 2069,-173.8"/>
</g>
<g id="clust28" class="cluster">
<title>cluster_HangmanWordModule_exports</title>
<polygon fill="none" stroke="black" points="2544,-181.8 2544,-233.8 2894,-233.8 2894,-181.8 2544,-181.8"/>
</g>
<g id="clust30" class="cluster">
<title>cluster_HangmanWordModule_providers</title>
<polygon fill="none" stroke="black" points="2077,-181.8 2077,-233.8 2536,-233.8 2536,-181.8 2077,-181.8"/>
</g>
<g id="clust31" class="cluster">
<title>cluster_MirrorWordModule</title>
<polygon fill="none" stroke="black" stroke-dasharray="1,5" points="2910,-173.8 2910,-241.8 3660,-241.8 3660,-173.8 2910,-173.8"/>
</g>
<g id="clust34" class="cluster">
<title>cluster_MirrorWordModule_exports</title>
<polygon fill="none" stroke="black" points="3338,-181.8 3338,-233.8 3652,-233.8 3652,-181.8 3338,-181.8"/>
</g>
<g id="clust36" class="cluster">
<title>cluster_MirrorWordModule_providers</title>
<polygon fill="none" stroke="black" points="2918,-181.8 2918,-233.8 3330,-233.8 3330,-181.8 2918,-181.8"/>
</g>
<g id="clust37" class="cluster">
<title>cluster_QuizAnswerModule</title>
<polygon fill="none" stroke="black" stroke-dasharray="1,5" points="1262,-249.8 1262,-317.8 2020,-317.8 2020,-249.8 1262,-249.8"/>
</g>
<g id="clust40" class="cluster">
<title>cluster_QuizAnswerModule_exports</title>
<polygon fill="none" stroke="black" points="1694,-257.8 1694,-309.8 2012,-309.8 2012,-257.8 1694,-257.8"/>
</g>
<g id="clust42" class="cluster">
<title>cluster_QuizAnswerModule_providers</title>
<polygon fill="none" stroke="black" points="1270,-257.8 1270,-309.8 1686,-309.8 1686,-257.8 1270,-257.8"/>
</g>
<g id="clust43" class="cluster">
<title>cluster_QuizModule</title>
<polygon fill="none" stroke="black" stroke-dasharray="1,5" points="3668,-173.8 3668,-241.8 4218,-241.8 4218,-173.8 3668,-173.8"/>
</g>
<g id="clust46" class="cluster">
<title>cluster_QuizModule_exports</title>
<polygon fill="none" stroke="black" points="3980,-181.8 3980,-233.8 4210,-233.8 4210,-181.8 3980,-181.8"/>
</g>
<g id="clust48" class="cluster">
<title>cluster_QuizModule_providers</title>
<polygon fill="none" stroke="black" points="3676,-181.8 3676,-233.8 3972,-233.8 3972,-181.8 3676,-181.8"/>
</g>
<g id="clust49" class="cluster">
<title>cluster_QuizQuestionModule</title>
<polygon fill="none" stroke="black" stroke-dasharray="1,5" points="4840,-32.8 4840,-241.8 5292,-241.8 5292,-32.8 4840,-32.8"/>
</g>
<g id="clust52" class="cluster">
<title>cluster_QuizQuestionModule_exports</title>
<polygon fill="none" stroke="black" points="4878,-181.8 4878,-233.8 5210,-233.8 5210,-181.8 4878,-181.8"/>
</g>
<g id="clust54" class="cluster">
<title>cluster_QuizQuestionModule_providers</title>
<polygon fill="none" stroke="black" points="4848,-40.8 4848,-92.8 5284,-92.8 5284,-40.8 4848,-40.8"/>
</g>
<g id="clust55" class="cluster">
<title>cluster_RoleModule</title>
<polygon fill="none" stroke="black" stroke-dasharray="1,5" points="2028,-249.8 2028,-317.8 2576,-317.8 2576,-249.8 2028,-249.8"/>
</g>
<g id="clust58" class="cluster">
<title>cluster_RoleModule_exports</title>
<polygon fill="none" stroke="black" points="2338,-257.8 2338,-309.8 2568,-309.8 2568,-257.8 2338,-257.8"/>
</g>
<g id="clust60" class="cluster">
<title>cluster_RoleModule_providers</title>
<polygon fill="none" stroke="black" points="2036,-257.8 2036,-309.8 2330,-309.8 2330,-257.8 2036,-257.8"/>
</g>
<g id="clust61" class="cluster">
<title>cluster_SchoolModule</title>
<polygon fill="none" stroke="black" stroke-dasharray="1,5" points="4226,-173.8 4226,-241.8 4832,-241.8 4832,-173.8 4226,-173.8"/>
</g>
<g id="clust64" class="cluster">
<title>cluster_SchoolModule_exports</title>
<polygon fill="none" stroke="black" points="4570,-181.8 4570,-233.8 4824,-233.8 4824,-181.8 4570,-181.8"/>
</g>
<g id="clust66" class="cluster">
<title>cluster_SchoolModule_providers</title>
<polygon fill="none" stroke="black" points="4234,-181.8 4234,-233.8 4562,-233.8 4562,-181.8 4234,-181.8"/>
</g>
<g id="clust67" class="cluster">
<title>cluster_UsersModule</title>
<polygon fill="none" stroke="black" stroke-dasharray="1,5" points="8,-32.8 8,-100.8 444,-100.8 444,-32.8 8,-32.8"/>
</g>
<g id="clust70" class="cluster">
<title>cluster_UsersModule_exports</title>
<polygon fill="none" stroke="black" points="326,-40.8 326,-92.8 436,-92.8 436,-40.8 326,-40.8"/>
</g>
<g id="clust72" class="cluster">
<title>cluster_UsersModule_providers</title>
<polygon fill="none" stroke="black" points="16,-40.8 16,-92.8 318,-92.8 318,-40.8 16,-40.8"/>
</g>
<!-- AuthModule -->
<g id="node1" class="node">
<title>AuthModule</title>
<polygon fill="#8dd3c7" stroke="black" points="549.55,-160.8 546.55,-164.8 525.55,-164.8 522.55,-160.8 462.45,-160.8 462.45,-124.8 549.55,-124.8 549.55,-160.8"/>
<text text-anchor="middle" x="506" y="-138.6" font-family="Times,serif" font-size="14.00">AuthModule</text>
</g>
<!-- RoleModule -->
<g id="node8" class="node">
<title>RoleModule</title>
<polygon fill="#8dd3c7" stroke="black" points="1237.99,-225.8 1234.99,-229.8 1213.99,-229.8 1210.99,-225.8 1152.01,-225.8 1152.01,-189.8 1237.99,-189.8 1237.99,-225.8"/>
<text text-anchor="middle" x="1195" y="-203.6" font-family="Times,serif" font-size="14.00">RoleModule</text>
</g>
<!-- AuthModule&#45;&gt;RoleModule -->
<g id="edge40" class="edge">
<title>AuthModule&#45;&gt;RoleModule</title>
<path fill="none" stroke="black" d="M491.41,-161.29C491.41,-172.94 491.41,-185.8 491.41,-185.8 491.41,-185.8 1195,-185.8 1195,-185.8 1195,-185.8 1195,-186.18 1195,-186.18"/>
<polygon fill="black" stroke="black" points="1191.5,-179.63 1195,-189.63 1198.5,-179.63 1191.5,-179.63"/>
</g>
<!-- AppModule -->
<g id="node11" class="node">
<title>AppModule</title>
<polygon fill="#8dd3c7" stroke="black" points="838.66,-301.8 835.66,-305.8 814.66,-305.8 811.66,-301.8 755.34,-301.8 755.34,-265.8 838.66,-265.8 838.66,-301.8"/>
<text text-anchor="middle" x="797" y="-279.6" font-family="Times,serif" font-size="14.00">AppModule</text>
</g>
<!-- AuthModule&#45;&gt;AppModule -->
<g id="edge1" class="edge">
<title>AuthModule&#45;&gt;AppModule</title>
<path fill="none" stroke="black" d="M520.59,-160.84C520.59,-198.25 520.59,-280.8 520.59,-280.8 520.59,-280.8 745.32,-280.8 745.32,-280.8"/>
<polygon fill="black" stroke="black" points="745.32,-284.3 755.32,-280.8 745.32,-277.3 745.32,-284.3"/>
</g>
<!-- CoreModule -->
<g id="node2" class="node">
<title>CoreModule</title>
<polygon fill="#8dd3c7" stroke="black" points="335.26,-160.8 332.26,-164.8 311.26,-164.8 308.26,-160.8 248.74,-160.8 248.74,-124.8 335.26,-124.8 335.26,-160.8"/>
<text text-anchor="middle" x="292" y="-138.6" font-family="Times,serif" font-size="14.00">CoreModule</text>
</g>
<!-- CoreModule&#45;&gt;AppModule -->
<g id="edge2" class="edge">
<title>CoreModule&#45;&gt;AppModule</title>
<path fill="none" stroke="black" d="M292,-160.83C292,-201.1 292,-294.8 292,-294.8 292,-294.8 745.24,-294.8 745.24,-294.8"/>
<polygon fill="black" stroke="black" points="745.24,-298.3 755.24,-294.8 745.24,-291.3 745.24,-298.3"/>
</g>
<!-- GroupingItemModule -->
<g id="node3" class="node">
<title>GroupingItemModule</title>
<polygon fill="#8dd3c7" stroke="black" points="706.36,-160.8 703.36,-164.8 682.36,-164.8 679.36,-160.8 567.64,-160.8 567.64,-124.8 706.36,-124.8 706.36,-160.8"/>
<text text-anchor="middle" x="637" y="-138.6" font-family="Times,serif" font-size="14.00">GroupingItemModule</text>
</g>
<!-- GroupingItemModule&#45;&gt;AppModule -->
<g id="edge3" class="edge">
<title>GroupingItemModule&#45;&gt;AppModule</title>
<path fill="none" stroke="black" d="M683.29,-161.01C683.29,-197.01 683.29,-273.8 683.29,-273.8 683.29,-273.8 745.3,-273.8 745.3,-273.8"/>
<polygon fill="black" stroke="black" points="745.3,-277.3 755.3,-273.8 745.3,-270.3 745.3,-277.3"/>
</g>
<!-- GroupingItemRepository  -->
<g id="node16" class="node">
<title>GroupingItemRepository </title>
<polygon fill="#fb8072" stroke="black" points="1886.25,-225.8 1725.75,-225.8 1725.75,-189.8 1886.25,-189.8 1886.25,-225.8"/>
<text text-anchor="middle" x="1806" y="-203.6" font-family="Times,serif" font-size="14.00">GroupingItemRepository </text>
</g>
<!-- GroupingItemModule&#45;&gt;GroupingItemRepository  -->
<g id="edge15" class="edge">
<title>GroupingItemModule&#45;&gt;GroupingItemRepository </title>
<path fill="none" stroke="black" stroke-dasharray="5,2" d="M590.71,-160.87C590.71,-170.26 590.71,-179.8 590.71,-179.8 590.71,-179.8 1806,-179.8 1806,-179.8 1806,-179.8 1806,-180.78 1806,-180.78"/>
<polygon fill="black" stroke="black" points="1802.5,-179.59 1806,-189.59 1809.5,-179.59 1802.5,-179.59"/>
</g>
<!-- GroupingItemService  -->
<g id="node17" class="node">
<title>GroupingItemService </title>
<polygon fill="#fb8072" stroke="black" points="2045.29,-225.8 1904.71,-225.8 1904.71,-189.8 2045.29,-189.8 2045.29,-225.8"/>
<text text-anchor="middle" x="1975" y="-203.6" font-family="Times,serif" font-size="14.00">GroupingItemService </text>
</g>
<!-- GroupingItemModule&#45;&gt;GroupingItemService  -->
<g id="edge16" class="edge">
<title>GroupingItemModule&#45;&gt;GroupingItemService </title>
<path fill="none" stroke="black" stroke-dasharray="5,2" d="M613.86,-161.12C613.86,-169.59 613.86,-177.8 613.86,-177.8 613.86,-177.8 1975,-177.8 1975,-177.8 1975,-177.8 1975,-179.66 1975,-179.66"/>
<polygon fill="black" stroke="black" points="1971.5,-179.66 1975,-189.66 1978.5,-179.66 1971.5,-179.66"/>
</g>
<!-- HangmanWordModule -->
<g id="node4" class="node">
<title>HangmanWordModule</title>
<polygon fill="#8dd3c7" stroke="black" points="869.85,-160.8 866.85,-164.8 845.85,-164.8 842.85,-160.8 724.15,-160.8 724.15,-124.8 869.85,-124.8 869.85,-160.8"/>
<text text-anchor="middle" x="797" y="-138.6" font-family="Times,serif" font-size="14.00">HangmanWordModule</text>
</g>
<!-- HangmanWordModule&#45;&gt;AppModule -->
<g id="edge4" class="edge">
<title>HangmanWordModule&#45;&gt;AppModule</title>
<path fill="none" stroke="black" d="M788.63,-160.94C788.63,-160.94 788.63,-255.73 788.63,-255.73"/>
<polygon fill="black" stroke="black" points="785.13,-255.72 788.63,-265.73 792.13,-255.73 785.13,-255.72"/>
</g>
<!-- HangmanWordRepository  -->
<g id="node20" class="node">
<title>HangmanWordRepository </title>
<polygon fill="#fb8072" stroke="black" points="2719.74,-225.8 2552.26,-225.8 2552.26,-189.8 2719.74,-189.8 2719.74,-225.8"/>
<text text-anchor="middle" x="2636" y="-203.6" font-family="Times,serif" font-size="14.00">HangmanWordRepository </text>
</g>
<!-- HangmanWordModule&#45;&gt;HangmanWordRepository  -->
<g id="edge19" class="edge">
<title>HangmanWordModule&#45;&gt;HangmanWordRepository </title>
<path fill="none" stroke="black" stroke-dasharray="5,2" d="M851.27,-161.22C851.27,-187.81 851.27,-233.8 851.27,-233.8 851.27,-233.8 2556.17,-233.8 2556.17,-233.8 2556.17,-233.8 2556.17,-233.01 2556.17,-233.01"/>
<polygon fill="black" stroke="black" points="2559.67,-235.86 2556.17,-225.86 2552.67,-235.86 2559.67,-235.86"/>
</g>
<!-- HangmanWordService  -->
<g id="node21" class="node">
<title>HangmanWordService </title>
<polygon fill="#fb8072" stroke="black" points="2885.78,-225.8 2738.22,-225.8 2738.22,-189.8 2885.78,-189.8 2885.78,-225.8"/>
<text text-anchor="middle" x="2812" y="-203.6" font-family="Times,serif" font-size="14.00">HangmanWordService </text>
</g>
<!-- HangmanWordModule&#45;&gt;HangmanWordService  -->
<g id="edge20" class="edge">
<title>HangmanWordModule&#45;&gt;HangmanWordService </title>
<path fill="none" stroke="black" stroke-dasharray="5,2" d="M845.05,-160.83C845.05,-167.65 845.05,-173.8 845.05,-173.8 845.05,-173.8 2812,-173.8 2812,-173.8 2812,-173.8 2812,-179.61 2812,-179.61"/>
<polygon fill="black" stroke="black" points="2808.5,-179.61 2812,-189.61 2815.5,-179.61 2808.5,-179.61"/>
</g>
<!-- MirrorWordModule -->
<g id="node5" class="node">
<title>MirrorWordModule</title>
<polygon fill="#8dd3c7" stroke="black" points="1016.24,-160.8 1013.24,-164.8 992.24,-164.8 989.24,-160.8 887.76,-160.8 887.76,-124.8 1016.24,-124.8 1016.24,-160.8"/>
<text text-anchor="middle" x="952" y="-138.6" font-family="Times,serif" font-size="14.00">MirrorWordModule</text>
</g>
<!-- MirrorWordModule&#45;&gt;AppModule -->
<g id="edge5" class="edge">
<title>MirrorWordModule&#45;&gt;AppModule</title>
<path fill="none" stroke="black" d="M984.48,-160.84C984.48,-198.25 984.48,-280.8 984.48,-280.8 984.48,-280.8 849.07,-280.8 849.07,-280.8"/>
<polygon fill="black" stroke="black" points="849.07,-277.3 839.07,-280.8 849.07,-284.3 849.07,-277.3"/>
</g>
<!-- MirrorWordRepository  -->
<g id="node24" class="node">
<title>MirrorWordRepository </title>
<polygon fill="#fb8072" stroke="black" points="3496.13,-225.8 3345.87,-225.8 3345.87,-189.8 3496.13,-189.8 3496.13,-225.8"/>
<text text-anchor="middle" x="3421" y="-203.6" font-family="Times,serif" font-size="14.00">MirrorWordRepository </text>
</g>
<!-- MirrorWordModule&#45;&gt;MirrorWordRepository  -->
<g id="edge23" class="edge">
<title>MirrorWordModule&#45;&gt;MirrorWordRepository </title>
<path fill="none" stroke="black" stroke-dasharray="5,2" d="M907,-160.97C907,-164.85 907,-167.8 907,-167.8 907,-167.8 3421,-167.8 3421,-167.8 3421,-167.8 3421,-179.67 3421,-179.67"/>
<polygon fill="black" stroke="black" points="3417.5,-179.67 3421,-189.67 3424.5,-179.67 3417.5,-179.67"/>
</g>
<!-- MirrorWordService  -->
<g id="node25" class="node">
<title>MirrorWordService </title>
<polygon fill="#fb8072" stroke="black" points="3644.17,-225.8 3513.83,-225.8 3513.83,-189.8 3644.17,-189.8 3644.17,-225.8"/>
<text text-anchor="middle" x="3579" y="-203.6" font-family="Times,serif" font-size="14.00">MirrorWordService </text>
</g>
<!-- MirrorWordModule&#45;&gt;MirrorWordService  -->
<g id="edge24" class="edge">
<title>MirrorWordModule&#45;&gt;MirrorWordService </title>
<path fill="none" stroke="black" stroke-dasharray="5,2" d="M926.37,-160.92C926.37,-163.77 926.37,-165.8 926.37,-165.8 926.37,-165.8 3579,-165.8 3579,-165.8 3579,-165.8 3579,-179.74 3579,-179.74"/>
<polygon fill="black" stroke="black" points="3575.5,-179.74 3579,-189.74 3582.5,-179.74 3575.5,-179.74"/>
</g>
<!-- QuizAnswerModule -->
<g id="node6" class="node">
<title>QuizAnswerModule</title>
<polygon fill="#8dd3c7" stroke="black" points="1134.29,-225.8 1131.29,-229.8 1110.29,-229.8 1107.29,-225.8 1003.71,-225.8 1003.71,-189.8 1134.29,-189.8 1134.29,-225.8"/>
<text text-anchor="middle" x="1069" y="-203.6" font-family="Times,serif" font-size="14.00">QuizAnswerModule</text>
</g>
<!-- QuizAnswerModule&#45;&gt;AppModule -->
<g id="edge6" class="edge">
<title>QuizAnswerModule&#45;&gt;AppModule</title>
<path fill="none" stroke="black" d="M1003.81,-213.8C930.66,-213.8 822.1,-213.8 822.1,-213.8 822.1,-213.8 822.1,-255.77 822.1,-255.77"/>
<polygon fill="black" stroke="black" points="818.6,-255.77 822.1,-265.77 825.6,-255.77 818.6,-255.77"/>
</g>
<!-- QuizAnswerRepository  -->
<g id="node28" class="node">
<title>QuizAnswerRepository </title>
<polygon fill="#fb8072" stroke="black" points="1853.68,-301.8 1702.32,-301.8 1702.32,-265.8 1853.68,-265.8 1853.68,-301.8"/>
<text text-anchor="middle" x="1778" y="-279.6" font-family="Times,serif" font-size="14.00">QuizAnswerRepository </text>
</g>
<!-- QuizAnswerModule&#45;&gt;QuizAnswerRepository  -->
<g id="edge28" class="edge">
<title>QuizAnswerModule&#45;&gt;QuizAnswerRepository </title>
<path fill="none" stroke="black" stroke-dasharray="5,2" d="M1029.91,-225.85C1029.91,-240.17 1029.91,-257.8 1029.91,-257.8 1029.91,-257.8 1714.02,-257.8 1714.02,-257.8 1714.02,-257.8 1714.02,-258.59 1714.02,-258.59"/>
<polygon fill="black" stroke="black" points="1710.52,-255.74 1714.02,-265.74 1717.52,-255.74 1710.52,-255.74"/>
</g>
<!-- QuizAnswerService  -->
<g id="node29" class="node">
<title>QuizAnswerService </title>
<polygon fill="#fb8072" stroke="black" points="2004.22,-301.8 1871.78,-301.8 1871.78,-265.8 2004.22,-265.8 2004.22,-301.8"/>
<text text-anchor="middle" x="1938" y="-279.6" font-family="Times,serif" font-size="14.00">QuizAnswerService </text>
</g>
<!-- QuizAnswerModule&#45;&gt;QuizAnswerService  -->
<g id="edge29" class="edge">
<title>QuizAnswerModule&#45;&gt;QuizAnswerService </title>
<path fill="none" stroke="black" stroke-dasharray="5,2" d="M1055.97,-225.98C1055.97,-238.84 1055.97,-253.8 1055.97,-253.8 1055.97,-253.8 1879.01,-253.8 1879.01,-253.8 1879.01,-253.8 1879.01,-255.66 1879.01,-255.66"/>
<polygon fill="black" stroke="black" points="1875.51,-255.66 1879.01,-265.66 1882.51,-255.66 1875.51,-255.66"/>
</g>
<!-- QuizModule -->
<g id="node7" class="node">
<title>QuizModule</title>
<polygon fill="#8dd3c7" stroke="black" points="1121.26,-160.8 1118.26,-164.8 1097.26,-164.8 1094.26,-160.8 1034.74,-160.8 1034.74,-124.8 1121.26,-124.8 1121.26,-160.8"/>
<text text-anchor="middle" x="1078" y="-138.6" font-family="Times,serif" font-size="14.00">QuizModule</text>
</g>
<!-- QuizModule&#45;&gt;QuizAnswerModule -->
<g id="edge27" class="edge">
<title>QuizModule&#45;&gt;QuizAnswerModule</title>
<path fill="none" stroke="black" d="M1078,-160.91C1078,-160.91 1078,-179.79 1078,-179.79"/>
<polygon fill="black" stroke="black" points="1074.5,-179.79 1078,-189.79 1081.5,-179.79 1074.5,-179.79"/>
</g>
<!-- QuizModule&#45;&gt;AppModule -->
<g id="edge7" class="edge">
<title>QuizModule&#45;&gt;AppModule</title>
<path fill="none" stroke="black" d="M1056.31,-160.84C1056.31,-173.36 1056.31,-187.8 1056.31,-187.8 1056.31,-187.8 805.37,-187.8 805.37,-187.8 805.37,-187.8 805.37,-255.74 805.37,-255.74"/>
<polygon fill="black" stroke="black" points="801.87,-255.74 805.37,-265.74 808.87,-255.74 801.87,-255.74"/>
</g>
<!-- QuizRepository  -->
<g id="node32" class="node">
<title>QuizRepository </title>
<polygon fill="#fb8072" stroke="black" points="4096.15,-225.8 3987.85,-225.8 3987.85,-189.8 4096.15,-189.8 4096.15,-225.8"/>
<text text-anchor="middle" x="4042" y="-203.6" font-family="Times,serif" font-size="14.00">QuizRepository </text>
</g>
<!-- QuizModule&#45;&gt;QuizRepository  -->
<g id="edge32" class="edge">
<title>QuizModule&#45;&gt;QuizRepository </title>
<path fill="none" stroke="black" stroke-dasharray="5,2" d="M1078,-124.65C1078,-111.06 1078,-94.8 1078,-94.8 1078,-94.8 4042,-94.8 4042,-94.8 4042,-94.8 4042,-179.64 4042,-179.64"/>
<polygon fill="black" stroke="black" points="4038.5,-179.64 4042,-189.64 4045.5,-179.64 4038.5,-179.64"/>
</g>
<!-- QuizService  -->
<g id="node33" class="node">
<title>QuizService </title>
<polygon fill="#fb8072" stroke="black" points="4202.19,-225.8 4113.81,-225.8 4113.81,-189.8 4202.19,-189.8 4202.19,-225.8"/>
<text text-anchor="middle" x="4158" y="-203.6" font-family="Times,serif" font-size="14.00">QuizService </text>
</g>
<!-- QuizModule&#45;&gt;QuizService  -->
<g id="edge33" class="edge">
<title>QuizModule&#45;&gt;QuizService </title>
<path fill="none" stroke="black" stroke-dasharray="5,2" d="M1056.31,-124.56C1056.31,-109.23 1056.31,-89.8 1056.31,-89.8 1056.31,-89.8 4158,-89.8 4158,-89.8 4158,-89.8 4158,-179.62 4158,-179.62"/>
<polygon fill="black" stroke="black" points="4154.5,-179.62 4158,-189.62 4161.5,-179.62 4154.5,-179.62"/>
</g>
<!-- RoleModule&#45;&gt;AppModule -->
<g id="edge8" class="edge">
<title>RoleModule&#45;&gt;AppModule</title>
<path fill="none" stroke="black" d="M1223.66,-225.83C1223.66,-251.31 1223.66,-294.8 1223.66,-294.8 1223.66,-294.8 848.69,-294.8 848.69,-294.8"/>
<polygon fill="black" stroke="black" points="848.69,-291.3 838.69,-294.8 848.69,-298.3 848.69,-291.3"/>
</g>
<!-- RoleRepository  -->
<g id="node41" class="node">
<title>RoleRepository </title>
<polygon fill="#fb8072" stroke="black" points="2453.88,-301.8 2346.12,-301.8 2346.12,-265.8 2453.88,-265.8 2453.88,-301.8"/>
<text text-anchor="middle" x="2400" y="-279.6" font-family="Times,serif" font-size="14.00">RoleRepository </text>
</g>
<!-- RoleModule&#45;&gt;RoleRepository  -->
<g id="edge41" class="edge">
<title>RoleModule&#45;&gt;RoleRepository </title>
<path fill="none" stroke="black" stroke-dasharray="5,2" d="M1166.34,-225.99C1166.34,-234.08 1166.34,-241.8 1166.34,-241.8 1166.34,-241.8 2400,-241.8 2400,-241.8 2400,-241.8 2400,-255.74 2400,-255.74"/>
<polygon fill="black" stroke="black" points="2396.5,-255.74 2400,-265.74 2403.5,-255.74 2396.5,-255.74"/>
</g>
<!-- RoleService  -->
<g id="node42" class="node">
<title>RoleService </title>
<polygon fill="#fb8072" stroke="black" points="2559.92,-301.8 2472.08,-301.8 2472.08,-265.8 2559.92,-265.8 2559.92,-301.8"/>
<text text-anchor="middle" x="2516" y="-279.6" font-family="Times,serif" font-size="14.00">RoleService </text>
</g>
<!-- RoleModule&#45;&gt;RoleService  -->
<g id="edge42" class="edge">
<title>RoleModule&#45;&gt;RoleService </title>
<path fill="none" stroke="black" stroke-dasharray="5,2" d="M1180.67,-225.94C1180.67,-232.26 1180.67,-237.8 1180.67,-237.8 1180.67,-237.8 2499.78,-237.8 2499.78,-237.8 2499.78,-237.8 2499.78,-255.62 2499.78,-255.62"/>
<polygon fill="black" stroke="black" points="2496.28,-255.62 2499.78,-265.62 2503.28,-255.62 2496.28,-255.62"/>
</g>
<!-- SchoolModule -->
<g id="node9" class="node">
<title>SchoolModule</title>
<polygon fill="#8dd3c7" stroke="black" points="1238.44,-160.8 1235.44,-164.8 1214.44,-164.8 1211.44,-160.8 1139.56,-160.8 1139.56,-124.8 1238.44,-124.8 1238.44,-160.8"/>
<text text-anchor="middle" x="1189" y="-138.6" font-family="Times,serif" font-size="14.00">SchoolModule</text>
</g>
<!-- SchoolModule&#45;&gt;AppModule -->
<g id="edge9" class="edge">
<title>SchoolModule&#45;&gt;AppModule</title>
<path fill="none" stroke="black" d="M1145.89,-160.87C1145.89,-199.74 1145.89,-287.8 1145.89,-287.8 1145.89,-287.8 848.74,-287.8 848.74,-287.8"/>
<polygon fill="black" stroke="black" points="848.74,-284.3 838.74,-287.8 848.74,-291.3 848.74,-284.3"/>
</g>
<!-- SchoolRepository  -->
<g id="node45" class="node">
<title>SchoolRepository </title>
<polygon fill="#fb8072" stroke="black" points="4697.83,-225.8 4578.17,-225.8 4578.17,-189.8 4697.83,-189.8 4697.83,-225.8"/>
<text text-anchor="middle" x="4638" y="-203.6" font-family="Times,serif" font-size="14.00">SchoolRepository </text>
</g>
<!-- SchoolModule&#45;&gt;SchoolRepository  -->
<g id="edge45" class="edge">
<title>SchoolModule&#45;&gt;SchoolRepository </title>
<path fill="none" stroke="black" stroke-dasharray="5,2" d="M1238.42,-139.8C1660.09,-139.8 4638,-139.8 4638,-139.8 4638,-139.8 4638,-179.58 4638,-179.58"/>
<polygon fill="black" stroke="black" points="4634.5,-179.58 4638,-189.58 4641.5,-179.58 4634.5,-179.58"/>
</g>
<!-- SchoolService  -->
<g id="node46" class="node">
<title>SchoolService </title>
<polygon fill="#fb8072" stroke="black" points="4816.37,-225.8 4715.63,-225.8 4715.63,-189.8 4816.37,-189.8 4816.37,-225.8"/>
<text text-anchor="middle" x="4766" y="-203.6" font-family="Times,serif" font-size="14.00">SchoolService </text>
</g>
<!-- SchoolModule&#45;&gt;SchoolService  -->
<g id="edge46" class="edge">
<title>SchoolModule&#45;&gt;SchoolService </title>
<path fill="none" stroke="black" stroke-dasharray="5,2" d="M1238.54,-132.8C1669.46,-132.8 4766,-132.8 4766,-132.8 4766,-132.8 4766,-179.64 4766,-179.64"/>
<polygon fill="black" stroke="black" points="4762.5,-179.64 4766,-189.64 4769.5,-179.64 4762.5,-179.64"/>
</g>
<!-- UsersModule -->
<g id="node10" class="node">
<title>UsersModule</title>
<polygon fill="#8dd3c7" stroke="black" points="444.92,-160.8 441.92,-164.8 420.92,-164.8 417.92,-160.8 353.08,-160.8 353.08,-124.8 444.92,-124.8 444.92,-160.8"/>
<text text-anchor="middle" x="399" y="-138.6" font-family="Times,serif" font-size="14.00">UsersModule</text>
</g>
<!-- UsersModule&#45;&gt;AppModule -->
<g id="edge10" class="edge">
<title>UsersModule&#45;&gt;AppModule</title>
<path fill="none" stroke="black" d="M399,-160.87C399,-199.74 399,-287.8 399,-287.8 399,-287.8 745.16,-287.8 745.16,-287.8"/>
<polygon fill="black" stroke="black" points="745.16,-291.3 755.16,-287.8 745.16,-284.3 745.16,-291.3"/>
</g>
<!-- UsersService  -->
<g id="node49" class="node">
<title>UsersService </title>
<polygon fill="#fb8072" stroke="black" points="427.85,-84.8 334.15,-84.8 334.15,-48.8 427.85,-48.8 427.85,-84.8"/>
<text text-anchor="middle" x="381" y="-62.6" font-family="Times,serif" font-size="14.00">UsersService </text>
</g>
<!-- UsersModule&#45;&gt;UsersService  -->
<g id="edge49" class="edge">
<title>UsersModule&#45;&gt;UsersService </title>
<path fill="none" stroke="black" stroke-dasharray="5,2" d="M409.08,-124.79C409.08,-124.79 409.08,-94.95 409.08,-94.95"/>
<polygon fill="black" stroke="black" points="412.58,-94.95 409.08,-84.95 405.58,-94.95 412.58,-94.95"/>
</g>
<!-- AppService -->
<g id="node12" class="node">
<title>AppService</title>
<ellipse fill="#fdb462" stroke="black" cx="168" cy="-207.8" rx="56.74" ry="18"/>
<text text-anchor="middle" x="168" y="-203.6" font-family="Times,serif" font-size="14.00">AppService</text>
</g>
<!-- AppService&#45;&gt;AppModule -->
<g id="edge11" class="edge">
<title>AppService&#45;&gt;AppModule</title>
<path fill="none" stroke="black" d="M221.59,-201.8C369.39,-201.8 771.9,-201.8 771.9,-201.8 771.9,-201.8 771.9,-255.6 771.9,-255.6"/>
<polygon fill="black" stroke="black" points="768.4,-255.6 771.9,-265.6 775.4,-255.6 768.4,-255.6"/>
</g>
<!-- AuthService -->
<g id="node13" class="node">
<title>AuthService</title>
<ellipse fill="#fdb462" stroke="black" cx="659" cy="-66.8" rx="59.11" ry="18"/>
<text text-anchor="middle" x="659" y="-62.6" font-family="Times,serif" font-size="14.00">AuthService</text>
</g>
<!-- AuthService&#45;&gt;AuthModule -->
<g id="edge12" class="edge">
<title>AuthService&#45;&gt;AuthModule</title>
<path fill="none" stroke="black" d="M653.06,-84.95C653.06,-98.54 653.06,-114.8 653.06,-114.8 653.06,-114.8 509.07,-114.8 509.07,-114.8 509.07,-114.8 509.07,-115.78 509.07,-115.78"/>
<polygon fill="black" stroke="black" points="505.57,-114.59 509.07,-124.59 512.57,-114.59 505.57,-114.59"/>
</g>
<!-- JwtStrategy -->
<g id="node14" class="node">
<title>JwtStrategy</title>
<ellipse fill="#fdb462" stroke="black" cx="525" cy="-66.8" rx="56.76" ry="18"/>
<text text-anchor="middle" x="525" y="-62.6" font-family="Times,serif" font-size="14.00">JwtStrategy</text>
</g>
<!-- JwtStrategy&#45;&gt;AuthModule -->
<g id="edge13" class="edge">
<title>JwtStrategy&#45;&gt;AuthModule</title>
<path fill="none" stroke="black" d="M488.72,-80.74C488.72,-80.74 488.72,-114.64 488.72,-114.64"/>
<polygon fill="black" stroke="black" points="485.22,-114.64 488.72,-124.64 492.22,-114.64 485.22,-114.64"/>
</g>
<!-- LocalStrategy -->
<g id="node15" class="node">
<title>LocalStrategy</title>
<ellipse fill="#fdb462" stroke="black" cx="802" cy="-66.8" rx="65.41" ry="18"/>
<text text-anchor="middle" x="802" y="-62.6" font-family="Times,serif" font-size="14.00">LocalStrategy</text>
</g>
<!-- LocalStrategy&#45;&gt;AuthModule -->
<g id="edge14" class="edge">
<title>LocalStrategy&#45;&gt;AuthModule</title>
<path fill="none" stroke="black" d="M802,-85.04C802,-100.37 802,-119.8 802,-119.8 802,-119.8 529.42,-119.8 529.42,-119.8 529.42,-119.8 529.42,-120.29 529.42,-120.29"/>
<polygon fill="black" stroke="black" points="525.92,-114.68 529.42,-124.68 532.92,-114.68 525.92,-114.68"/>
</g>
<!-- GroupingItemRepository -->
<g id="node18" class="node">
<title>GroupingItemRepository</title>
<ellipse fill="#fdb462" stroke="black" cx="1386" cy="-207.8" rx="108.25" ry="18"/>
<text text-anchor="middle" x="1386" y="-203.6" font-family="Times,serif" font-size="14.00">GroupingItemRepository</text>
</g>
<!-- GroupingItemRepository&#45;&gt;GroupingItemModule -->
<g id="edge17" class="edge">
<title>GroupingItemRepository&#45;&gt;GroupingItemModule</title>
<path fill="none" stroke="black" d="M1386,-189.61C1386,-186.26 1386,-183.8 1386,-183.8 1386,-183.8 637,-183.8 637,-183.8 637,-183.8 637,-170.9 637,-170.9"/>
<polygon fill="black" stroke="black" points="640.5,-170.9 637,-160.9 633.5,-170.9 640.5,-170.9"/>
</g>
<!-- GroupingItemService -->
<g id="node19" class="node">
<title>GroupingItemService</title>
<ellipse fill="#fdb462" stroke="black" cx="1607" cy="-207.8" rx="94.9" ry="18"/>
<text text-anchor="middle" x="1607" y="-203.6" font-family="Times,serif" font-size="14.00">GroupingItemService</text>
</g>
<!-- GroupingItemService&#45;&gt;GroupingItemModule -->
<g id="edge18" class="edge">
<title>GroupingItemService&#45;&gt;GroupingItemModule</title>
<path fill="none" stroke="black" d="M1607,-189.74C1607,-185.31 1607,-181.8 1607,-181.8 1607,-181.8 660.14,-181.8 660.14,-181.8 660.14,-181.8 660.14,-170.93 660.14,-170.93"/>
<polygon fill="black" stroke="black" points="663.64,-170.93 660.14,-160.93 656.64,-170.93 663.64,-170.93"/>
</g>
<!-- HangmanWordRepository -->
<g id="node22" class="node">
<title>HangmanWordRepository</title>
<ellipse fill="#fdb462" stroke="black" cx="2198" cy="-207.8" rx="112.89" ry="18"/>
<text text-anchor="middle" x="2198" y="-203.6" font-family="Times,serif" font-size="14.00">HangmanWordRepository</text>
</g>
<!-- HangmanWordRepository&#45;&gt;HangmanWordModule -->
<g id="edge21" class="edge">
<title>HangmanWordRepository&#45;&gt;HangmanWordModule</title>
<path fill="none" stroke="black" d="M2198,-189.56C2198,-182.37 2198,-175.8 2198,-175.8 2198,-175.8 863.71,-175.8 863.71,-175.8 863.71,-175.8 863.71,-170.84 863.71,-170.84"/>
<polygon fill="black" stroke="black" points="867.21,-170.84 863.71,-160.84 860.21,-170.84 867.21,-170.84"/>
</g>
<!-- HangmanWordService -->
<g id="node23" class="node">
<title>HangmanWordService</title>
<ellipse fill="#fdb462" stroke="black" cx="2428" cy="-207.8" rx="99.54" ry="18"/>
<text text-anchor="middle" x="2428" y="-203.6" font-family="Times,serif" font-size="14.00">HangmanWordService</text>
</g>
<!-- HangmanWordService&#45;&gt;HangmanWordModule -->
<g id="edge22" class="edge">
<title>HangmanWordService&#45;&gt;HangmanWordModule</title>
<path fill="none" stroke="black" d="M2337.39,-215.25C2337.39,-221.63 2337.39,-229.8 2337.39,-229.8 2337.39,-229.8 857.49,-229.8 857.49,-229.8 857.49,-229.8 857.49,-170.83 857.49,-170.83"/>
<polygon fill="black" stroke="black" points="860.99,-170.83 857.49,-160.83 853.99,-170.83 860.99,-170.83"/>
</g>
<!-- MirrorWordRepository -->
<g id="node26" class="node">
<title>MirrorWordRepository</title>
<ellipse fill="#fdb462" stroke="black" cx="3027" cy="-207.8" rx="101.29" ry="18"/>
<text text-anchor="middle" x="3027" y="-203.6" font-family="Times,serif" font-size="14.00">MirrorWordRepository</text>
</g>
<!-- MirrorWordRepository&#45;&gt;MirrorWordModule -->
<g id="edge25" class="edge">
<title>MirrorWordRepository&#45;&gt;MirrorWordModule</title>
<path fill="none" stroke="black" d="M3027,-189.8C3027,-180.8 3027,-171.8 3027,-171.8 3027,-171.8 945.74,-171.8 945.74,-171.8 945.74,-171.8 945.74,-170.72 945.74,-170.72"/>
<polygon fill="black" stroke="black" points="949.24,-171 945.74,-161 942.24,-171 949.24,-171"/>
</g>
<!-- MirrorWordService -->
<g id="node27" class="node">
<title>MirrorWordService</title>
<ellipse fill="#fdb462" stroke="black" cx="3234" cy="-207.8" rx="87.94" ry="18"/>
<text text-anchor="middle" x="3234" y="-203.6" font-family="Times,serif" font-size="14.00">MirrorWordService</text>
</g>
<!-- MirrorWordService&#45;&gt;MirrorWordModule -->
<g id="edge26" class="edge">
<title>MirrorWordService&#45;&gt;MirrorWordModule</title>
<path fill="none" stroke="black" d="M3234,-189.69C3234,-179.9 3234,-169.8 3234,-169.8 3234,-169.8 965.11,-169.8 965.11,-169.8 965.11,-169.8 965.11,-168.92 965.11,-168.92"/>
<polygon fill="black" stroke="black" points="968.61,-170.96 965.11,-160.96 961.61,-170.96 968.61,-170.96"/>
</g>
<!-- QuizAnswerRepository -->
<g id="node30" class="node">
<title>QuizAnswerRepository</title>
<ellipse fill="#fdb462" stroke="black" cx="1380" cy="-283.8" rx="102.43" ry="18"/>
<text text-anchor="middle" x="1380" y="-279.6" font-family="Times,serif" font-size="14.00">QuizAnswerRepository</text>
</g>
<!-- QuizAnswerRepository&#45;&gt;QuizAnswerModule -->
<g id="edge30" class="edge">
<title>QuizAnswerRepository&#45;&gt;QuizAnswerModule</title>
<path fill="none" stroke="black" d="M1294.71,-273.8C1214.97,-273.8 1108.09,-273.8 1108.09,-273.8 1108.09,-273.8 1108.09,-235.83 1108.09,-235.83"/>
<polygon fill="black" stroke="black" points="1111.59,-235.83 1108.09,-225.83 1104.59,-235.83 1111.59,-235.83"/>
</g>
<!-- QuizAnswerService -->
<g id="node31" class="node">
<title>QuizAnswerService</title>
<ellipse fill="#fdb462" stroke="black" cx="1589" cy="-283.8" rx="88.58" ry="18"/>
<text text-anchor="middle" x="1589" y="-279.6" font-family="Times,serif" font-size="14.00">QuizAnswerService</text>
</g>
<!-- QuizAnswerService&#45;&gt;QuizAnswerModule -->
<g id="edge31" class="edge">
<title>QuizAnswerService&#45;&gt;QuizAnswerModule</title>
<path fill="none" stroke="black" d="M1506.25,-276.84C1506.25,-270.39 1506.25,-261.8 1506.25,-261.8 1506.25,-261.8 1082.03,-261.8 1082.03,-261.8 1082.03,-261.8 1082.03,-236.08 1082.03,-236.08"/>
<polygon fill="black" stroke="black" points="1085.53,-236.08 1082.03,-226.08 1078.53,-236.08 1085.53,-236.08"/>
</g>
<!-- QuizRepository -->
<g id="node34" class="node">
<title>QuizRepository</title>
<ellipse fill="#fdb462" stroke="black" cx="3756" cy="-207.8" rx="72.37" ry="18"/>
<text text-anchor="middle" x="3756" y="-203.6" font-family="Times,serif" font-size="14.00">QuizRepository</text>
</g>
<!-- QuizRepository&#45;&gt;QuizModule -->
<g id="edge34" class="edge">
<title>QuizRepository&#45;&gt;QuizModule</title>
<path fill="none" stroke="black" d="M3756,-189.65C3756,-177.53 3756,-163.8 3756,-163.8 3756,-163.8 1099.69,-163.8 1099.69,-163.8 1099.69,-163.8 1099.69,-163.51 1099.69,-163.51"/>
<polygon fill="black" stroke="black" points="1103.19,-170.88 1099.69,-160.88 1096.19,-170.88 1103.19,-170.88"/>
</g>
<!-- QuizService -->
<g id="node35" class="node">
<title>QuizService</title>
<ellipse fill="#fdb462" stroke="black" cx="3905" cy="-207.8" rx="58.53" ry="18"/>
<text text-anchor="middle" x="3905" y="-203.6" font-family="Times,serif" font-size="14.00">QuizService</text>
</g>
<!-- QuizService&#45;&gt;QuizModule -->
<g id="edge35" class="edge">
<title>QuizService&#45;&gt;QuizModule</title>
<path fill="none" stroke="black" d="M3905,-189.48C3905,-158.67 3905,-99.8 3905,-99.8 3905,-99.8 1099.69,-99.8 1099.69,-99.8 1099.69,-99.8 1099.69,-114.31 1099.69,-114.31"/>
<polygon fill="black" stroke="black" points="1096.19,-114.31 1099.69,-124.31 1103.19,-114.31 1096.19,-114.31"/>
</g>
<!-- QuizQuestionRepository  -->
<g id="node36" class="node">
<title>QuizQuestionRepository </title>
<polygon fill="#fb8072" stroke="black" points="5044.2,-225.8 4885.8,-225.8 4885.8,-189.8 5044.2,-189.8 5044.2,-225.8"/>
<text text-anchor="middle" x="4965" y="-203.6" font-family="Times,serif" font-size="14.00">QuizQuestionRepository </text>
</g>
<!-- QuizQuestionService  -->
<g id="node37" class="node">
<title>QuizQuestionService </title>
<polygon fill="#fb8072" stroke="black" points="5201.74,-225.8 5062.26,-225.8 5062.26,-189.8 5201.74,-189.8 5201.74,-225.8"/>
<text text-anchor="middle" x="5132" y="-203.6" font-family="Times,serif" font-size="14.00">QuizQuestionService </text>
</g>
<!-- QuizQuestionModule -->
<g id="node38" class="node">
<title>QuizQuestionModule</title>
<polygon fill="#8dd3c7" stroke="black" points="5062.81,-160.8 5059.81,-164.8 5038.81,-164.8 5035.81,-160.8 4925.19,-160.8 4925.19,-124.8 5062.81,-124.8 5062.81,-160.8"/>
<text text-anchor="middle" x="4994" y="-138.6" font-family="Times,serif" font-size="14.00">QuizQuestionModule</text>
</g>
<!-- QuizQuestionModule&#45;&gt;QuizQuestionRepository  -->
<g id="edge36" class="edge">
<title>QuizQuestionModule&#45;&gt;QuizQuestionRepository </title>
<path fill="none" stroke="black" stroke-dasharray="5,2" d="M4984.85,-160.91C4984.85,-160.91 4984.85,-179.79 4984.85,-179.79"/>
<polygon fill="black" stroke="black" points="4981.35,-179.79 4984.85,-189.79 4988.35,-179.79 4981.35,-179.79"/>
</g>
<!-- QuizQuestionModule&#45;&gt;QuizQuestionService  -->
<g id="edge37" class="edge">
<title>QuizQuestionModule&#45;&gt;QuizQuestionService </title>
<path fill="none" stroke="black" stroke-dasharray="5,2" d="M5053.36,-160.91C5053.36,-180.14 5053.36,-207.8 5053.36,-207.8 5053.36,-207.8 5054.24,-207.8 5054.24,-207.8"/>
<polygon fill="black" stroke="black" points="5052.08,-211.3 5062.08,-207.8 5052.08,-204.3 5052.08,-211.3"/>
</g>
<!-- QuizQuestionRepository -->
<g id="node39" class="node">
<title>QuizQuestionRepository</title>
<ellipse fill="#fdb462" stroke="black" cx="5169" cy="-66.8" rx="107.1" ry="18"/>
<text text-anchor="middle" x="5169" y="-62.6" font-family="Times,serif" font-size="14.00">QuizQuestionRepository</text>
</g>
<!-- QuizQuestionRepository&#45;&gt;QuizQuestionModule -->
<g id="edge38" class="edge">
<title>QuizQuestionRepository&#45;&gt;QuizQuestionModule</title>
<path fill="none" stroke="black" d="M5061.91,-66.8C5056.22,-66.8 5052.79,-66.8 5052.79,-66.8 5052.79,-66.8 5052.79,-114.79 5052.79,-114.79"/>
<polygon fill="black" stroke="black" points="5049.29,-114.79 5052.79,-124.79 5056.29,-114.79 5049.29,-114.79"/>
</g>
<!-- QuizQuestionService -->
<g id="node40" class="node">
<title>QuizQuestionService</title>
<ellipse fill="#fdb462" stroke="black" cx="4950" cy="-66.8" rx="93.76" ry="18"/>
<text text-anchor="middle" x="4950" y="-62.6" font-family="Times,serif" font-size="14.00">QuizQuestionService</text>
</g>
<!-- QuizQuestionService&#45;&gt;QuizQuestionModule -->
<g id="edge39" class="edge">
<title>QuizQuestionService&#45;&gt;QuizQuestionModule</title>
<path fill="none" stroke="black" d="M4984.49,-83.67C4984.49,-83.67 4984.49,-114.65 4984.49,-114.65"/>
<polygon fill="black" stroke="black" points="4980.99,-114.65 4984.49,-124.65 4987.99,-114.65 4980.99,-114.65"/>
</g>
<!-- RoleRepository -->
<g id="node43" class="node">
<title>RoleRepository</title>
<ellipse fill="#fdb462" stroke="black" cx="2116" cy="-283.8" rx="71.81" ry="18"/>
<text text-anchor="middle" x="2116" y="-279.6" font-family="Times,serif" font-size="14.00">RoleRepository</text>
</g>
<!-- RoleRepository&#45;&gt;RoleModule -->
<g id="edge43" class="edge">
<title>RoleRepository&#45;&gt;RoleModule</title>
<path fill="none" stroke="black" d="M2065.23,-270.75C2065.23,-261.16 2065.23,-249.8 2065.23,-249.8 2065.23,-249.8 1195,-249.8 1195,-249.8 1195,-249.8 1195,-235.86 1195,-235.86"/>
<polygon fill="black" stroke="black" points="1198.5,-235.86 1195,-225.86 1191.5,-235.86 1198.5,-235.86"/>
</g>
<!-- RoleService -->
<g id="node44" class="node">
<title>RoleService</title>
<ellipse fill="#fdb462" stroke="black" cx="2264" cy="-283.8" rx="58.46" ry="18"/>
<text text-anchor="middle" x="2264" y="-279.6" font-family="Times,serif" font-size="14.00">RoleService</text>
</g>
<!-- RoleService&#45;&gt;RoleModule -->
<g id="edge44" class="edge">
<title>RoleService&#45;&gt;RoleModule</title>
<path fill="none" stroke="black" d="M2258.36,-265.69C2258.36,-255.9 2258.36,-245.8 2258.36,-245.8 2258.36,-245.8 1209.33,-245.8 1209.33,-245.8 1209.33,-245.8 1209.33,-235.91 1209.33,-235.91"/>
<polygon fill="black" stroke="black" points="1212.83,-235.91 1209.33,-225.91 1205.83,-235.91 1212.83,-235.91"/>
</g>
<!-- SchoolRepository -->
<g id="node47" class="node">
<title>SchoolRepository</title>
<ellipse fill="#fdb462" stroke="black" cx="4322" cy="-207.8" rx="80.48" ry="18"/>
<text text-anchor="middle" x="4322" y="-203.6" font-family="Times,serif" font-size="14.00">SchoolRepository</text>
</g>
<!-- SchoolRepository&#45;&gt;SchoolModule -->
<g id="edge47" class="edge">
<title>SchoolRepository&#45;&gt;SchoolModule</title>
<path fill="none" stroke="black" d="M4322,-189.52C4322,-173.85 4322,-153.8 4322,-153.8 4322,-153.8 1248.53,-153.8 1248.53,-153.8"/>
<polygon fill="black" stroke="black" points="1248.53,-150.3 1238.53,-153.8 1248.53,-157.3 1248.53,-150.3"/>
</g>
<!-- SchoolService -->
<g id="node48" class="node">
<title>SchoolService</title>
<ellipse fill="#fdb462" stroke="black" cx="4487" cy="-207.8" rx="66.63" ry="18"/>
<text text-anchor="middle" x="4487" y="-203.6" font-family="Times,serif" font-size="14.00">SchoolService</text>
</g>
<!-- SchoolService&#45;&gt;SchoolModule -->
<g id="edge48" class="edge">
<title>SchoolService&#45;&gt;SchoolModule</title>
<path fill="none" stroke="black" d="M4487,-189.5C4487,-171.53 4487,-146.8 4487,-146.8 4487,-146.8 1248.5,-146.8 1248.5,-146.8"/>
<polygon fill="black" stroke="black" points="1248.5,-143.3 1238.5,-146.8 1248.5,-150.3 1248.5,-143.3"/>
</g>
<!-- UserRepository -->
<g id="node50" class="node">
<title>UserRepository</title>
<ellipse fill="#fdb462" stroke="black" cx="238" cy="-66.8" rx="71.79" ry="18"/>
<text text-anchor="middle" x="238" y="-62.6" font-family="Times,serif" font-size="14.00">UserRepository</text>
</g>
<!-- UserRepository&#45;&gt;UsersModule -->
<g id="edge50" class="edge">
<title>UserRepository&#45;&gt;UsersModule</title>
<path fill="none" stroke="black" d="M279.13,-81.82C279.13,-92.44 279.13,-104.8 279.13,-104.8 279.13,-104.8 390.48,-104.8 390.48,-104.8 390.48,-104.8 390.48,-114.69 390.48,-114.69"/>
<polygon fill="black" stroke="black" points="386.98,-114.69 390.48,-124.69 393.98,-114.69 386.98,-114.69"/>
</g>
<!-- UsersService -->
<g id="node51" class="node">
<title>UsersService</title>
<ellipse fill="#fdb462" stroke="black" cx="86" cy="-66.8" rx="61.95" ry="18"/>
<text text-anchor="middle" x="86" y="-62.6" font-family="Times,serif" font-size="14.00">UsersService</text>
</g>
<!-- UsersService&#45;&gt;UsersModule -->
<g id="edge51" class="edge">
<title>UsersService&#45;&gt;UsersModule</title>
<path fill="none" stroke="black" d="M129.68,-79.94C129.68,-92.58 129.68,-109.8 129.68,-109.8 129.68,-109.8 371.89,-109.8 371.89,-109.8 371.89,-109.8 371.89,-114.76 371.89,-114.76"/>
<polygon fill="black" stroke="black" points="368.39,-114.76 371.89,-124.76 375.39,-114.76 368.39,-114.76"/>
</g>
</g>
</svg>
