<?xml version="1.0" encoding="UTF-8" standalone="no"?>
<!DOCTYPE svg PUBLIC "-//W3C//DTD SVG 1.1//EN"
 "http://www.w3.org/Graphics/SVG/1.1/DTD/svg11.dtd">
<!-- Generated by graphviz version 2.47.3 (20210619.1520)
 -->
<!-- Title: dependencies Pages: 1 -->
<svg width="1142pt" height="326pt"
 viewBox="0.00 0.00 1142.00 325.80" xmlns="http://www.w3.org/2000/svg" xmlns:xlink="http://www.w3.org/1999/xlink">
<g id="graph0" class="graph" transform="scale(1 1) rotate(0) translate(4 321.8)">
<title>dependencies</title>
<polygon fill="white" stroke="transparent" points="-4,4 -4,-321.8 1138,-321.8 1138,4 -4,4"/>
<text text-anchor="middle" x="567" y="-8.2" font-family="sans-serif" font-size="14.00">dependencies</text>
<g id="clust1" class="cluster">
<title>cluster_AppModule</title>
<polygon fill="none" stroke="black" stroke-dasharray="1,5" points="99,-108.8 99,-301.8 570,-301.8 570,-108.8 99,-108.8"/>
</g>
<g id="clust3" class="cluster">
<title>cluster_AppModule_imports</title>
<polygon fill="none" stroke="black" points="245,-116.8 245,-233.8 562,-233.8 562,-116.8 245,-116.8"/>
</g>
<g id="clust6" class="cluster">
<title>cluster_AppModule_providers</title>
<polygon fill="none" stroke="black" points="107,-181.8 107,-233.8 237,-233.8 237,-181.8 107,-181.8"/>
</g>
<g id="clust7" class="cluster">
<title>cluster_AuthModule</title>
<polygon fill="none" stroke="black" stroke-dasharray="1,5" points="452,-32.8 452,-100.8 882,-100.8 882,-32.8 452,-32.8"/>
</g>
<g id="clust12" class="cluster">
<title>cluster_AuthModule_providers</title>
<polygon fill="none" stroke="black" points="460,-40.8 460,-92.8 874,-92.8 874,-40.8 460,-40.8"/>
</g>
<g id="clust19" class="cluster">
<title>cluster_RoleModule</title>
<polygon fill="none" stroke="black" stroke-dasharray="1,5" points="578,-241.8 578,-309.8 1126,-309.8 1126,-241.8 578,-241.8"/>
</g>
<g id="clust22" class="cluster">
<title>cluster_RoleModule_exports</title>
<polygon fill="none" stroke="black" points="888,-249.8 888,-301.8 1118,-301.8 1118,-249.8 888,-249.8"/>
</g>
<g id="clust24" class="cluster">
<title>cluster_RoleModule_providers</title>
<polygon fill="none" stroke="black" points="586,-249.8 586,-301.8 880,-301.8 880,-249.8 586,-249.8"/>
</g>
<g id="clust25" class="cluster">
<title>cluster_UsersModule</title>
<polygon fill="none" stroke="black" stroke-dasharray="1,5" points="8,-32.8 8,-100.8 444,-100.8 444,-32.8 8,-32.8"/>
</g>
<g id="clust28" class="cluster">
<title>cluster_UsersModule_exports</title>
<polygon fill="none" stroke="black" points="326,-40.8 326,-92.8 436,-92.8 436,-40.8 326,-40.8"/>
</g>
<g id="clust30" class="cluster">
<title>cluster_UsersModule_providers</title>
<polygon fill="none" stroke="black" points="16,-40.8 16,-92.8 318,-92.8 318,-40.8 16,-40.8"/>
</g>
<!-- AuthModule -->
<g id="node1" class="node">
<title>AuthModule</title>
<polygon fill="#8dd3c7" stroke="black" points="553.55,-160.8 550.55,-164.8 529.55,-164.8 526.55,-160.8 466.45,-160.8 466.45,-124.8 553.55,-124.8 553.55,-160.8"/>
<text text-anchor="middle" x="510" y="-138.6" font-family="Times,serif" font-size="14.00">AuthModule</text>
</g>
<!-- RoleModule -->
<g id="node3" class="node">
<title>RoleModule</title>
<polygon fill="#8dd3c7" stroke="black" points="553.99,-225.8 550.99,-229.8 529.99,-229.8 526.99,-225.8 468.01,-225.8 468.01,-189.8 553.99,-189.8 553.99,-225.8"/>
<text text-anchor="middle" x="511" y="-203.6" font-family="Times,serif" font-size="14.00">RoleModule</text>
</g>
<!-- AuthModule&#45;&gt;RoleModule -->
<g id="edge9" class="edge">
<title>AuthModule&#45;&gt;RoleModule</title>
<path fill="none" stroke="black" d="M510.89,-160.91C510.89,-160.91 510.89,-179.79 510.89,-179.79"/>
<polygon fill="black" stroke="black" points="507.39,-179.79 510.89,-189.79 514.39,-179.79 507.39,-179.79"/>
</g>
<!-- AppModule -->
<g id="node5" class="node">
<title>AppModule</title>
<polygon fill="#8dd3c7" stroke="black" points="444.66,-293.8 441.66,-297.8 420.66,-297.8 417.66,-293.8 361.34,-293.8 361.34,-257.8 444.66,-257.8 444.66,-293.8"/>
<text text-anchor="middle" x="403" y="-271.6" font-family="Times,serif" font-size="14.00">AppModule</text>
</g>
<!-- AuthModule&#45;&gt;AppModule -->
<g id="edge1" class="edge">
<title>AuthModule&#45;&gt;AppModule</title>
<path fill="none" stroke="black" d="M466.14,-142.8C460.96,-142.8 457.47,-142.8 457.47,-142.8 457.47,-142.8 457.47,-275.8 457.47,-275.8 457.47,-275.8 454.84,-275.8 454.84,-275.8"/>
<polygon fill="black" stroke="black" points="454.84,-272.3 444.84,-275.8 454.84,-279.3 454.84,-272.3"/>
</g>
<!-- CoreModule -->
<g id="node2" class="node">
<title>CoreModule</title>
<polygon fill="#8dd3c7" stroke="black" points="339.26,-160.8 336.26,-164.8 315.26,-164.8 312.26,-160.8 252.74,-160.8 252.74,-124.8 339.26,-124.8 339.26,-160.8"/>
<text text-anchor="middle" x="296" y="-138.6" font-family="Times,serif" font-size="14.00">CoreModule</text>
</g>
<!-- CoreModule&#45;&gt;AppModule -->
<g id="edge2" class="edge">
<title>CoreModule&#45;&gt;AppModule</title>
<path fill="none" stroke="black" d="M296,-161.01C296,-197.44 296,-275.8 296,-275.8 296,-275.8 351.32,-275.8 351.32,-275.8"/>
<polygon fill="black" stroke="black" points="351.32,-279.3 361.32,-275.8 351.32,-272.3 351.32,-279.3"/>
</g>
<!-- RoleModule&#45;&gt;AppModule -->
<g id="edge3" class="edge">
<title>RoleModule&#45;&gt;AppModule</title>
<path fill="none" stroke="black" d="M467.97,-213.8C446.03,-213.8 423.91,-213.8 423.91,-213.8 423.91,-213.8 423.91,-247.53 423.91,-247.53"/>
<polygon fill="black" stroke="black" points="420.41,-247.53 423.91,-257.53 427.41,-247.53 420.41,-247.53"/>
</g>
<!-- RoleRepository  -->
<g id="node10" class="node">
<title>RoleRepository </title>
<polygon fill="#fb8072" stroke="black" points="1003.88,-293.8 896.12,-293.8 896.12,-257.8 1003.88,-257.8 1003.88,-293.8"/>
<text text-anchor="middle" x="950" y="-271.6" font-family="Times,serif" font-size="14.00">RoleRepository </text>
</g>
<!-- RoleModule&#45;&gt;RoleRepository  -->
<g id="edge10" class="edge">
<title>RoleModule&#45;&gt;RoleRepository </title>
<path fill="none" stroke="black" stroke-dasharray="5,2" d="M554.29,-204.8C665.05,-204.8 950,-204.8 950,-204.8 950,-204.8 950,-247.52 950,-247.52"/>
<polygon fill="black" stroke="black" points="946.5,-247.52 950,-257.52 953.5,-247.52 946.5,-247.52"/>
</g>
<!-- RoleService  -->
<g id="node11" class="node">
<title>RoleService </title>
<polygon fill="#fb8072" stroke="black" points="1109.92,-293.8 1022.08,-293.8 1022.08,-257.8 1109.92,-257.8 1109.92,-293.8"/>
<text text-anchor="middle" x="1066" y="-271.6" font-family="Times,serif" font-size="14.00">RoleService </text>
</g>
<!-- RoleModule&#45;&gt;RoleService  -->
<g id="edge11" class="edge">
<title>RoleModule&#45;&gt;RoleService </title>
<path fill="none" stroke="black" stroke-dasharray="5,2" d="M554.09,-197.8C684.49,-197.8 1066,-197.8 1066,-197.8 1066,-197.8 1066,-247.71 1066,-247.71"/>
<polygon fill="black" stroke="black" points="1062.5,-247.71 1066,-257.71 1069.5,-247.71 1062.5,-247.71"/>
</g>
<!-- UsersModule -->
<g id="node4" class="node">
<title>UsersModule</title>
<polygon fill="#8dd3c7" stroke="black" points="448.92,-160.8 445.92,-164.8 424.92,-164.8 421.92,-160.8 357.08,-160.8 357.08,-124.8 448.92,-124.8 448.92,-160.8"/>
<text text-anchor="middle" x="403" y="-138.6" font-family="Times,serif" font-size="14.00">UsersModule</text>
</g>
<!-- UsersModule&#45;&gt;AppModule -->
<g id="edge4" class="edge">
<title>UsersModule&#45;&gt;AppModule</title>
<path fill="none" stroke="black" d="M403,-161.01C403,-161.01 403,-247.38 403,-247.38"/>
<polygon fill="black" stroke="black" points="399.5,-247.38 403,-257.38 406.5,-247.38 399.5,-247.38"/>
</g>
<!-- UsersService  -->
<g id="node14" class="node">
<title>UsersService </title>
<polygon fill="#fb8072" stroke="black" points="427.85,-84.8 334.15,-84.8 334.15,-48.8 427.85,-48.8 427.85,-84.8"/>
<text text-anchor="middle" x="381" y="-62.6" font-family="Times,serif" font-size="14.00">UsersService </text>
</g>
<!-- UsersModule&#45;&gt;UsersService  -->
<g id="edge14" class="edge">
<title>UsersModule&#45;&gt;UsersService </title>
<path fill="none" stroke="black" stroke-dasharray="5,2" d="M410.08,-124.79C410.08,-124.79 410.08,-94.95 410.08,-94.95"/>
<polygon fill="black" stroke="black" points="413.58,-94.95 410.08,-84.95 406.58,-94.95 413.58,-94.95"/>
</g>
<!-- AppService -->
<g id="node6" class="node">
<title>AppService</title>
<ellipse fill="#fdb462" stroke="black" cx="172" cy="-207.8" rx="56.74" ry="18"/>
<text text-anchor="middle" x="172" y="-203.6" font-family="Times,serif" font-size="14.00">AppService</text>
</g>
<!-- AppService&#45;&gt;AppModule -->
<g id="edge5" class="edge">
<title>AppService&#45;&gt;AppModule</title>
<path fill="none" stroke="black" d="M225.56,-201.8C287.8,-201.8 382.09,-201.8 382.09,-201.8 382.09,-201.8 382.09,-247.51 382.09,-247.51"/>
<polygon fill="black" stroke="black" points="378.59,-247.51 382.09,-257.51 385.59,-247.51 378.59,-247.51"/>
</g>
<!-- AuthService -->
<g id="node7" class="node">
<title>AuthService</title>
<ellipse fill="#fdb462" stroke="black" cx="807" cy="-66.8" rx="59.11" ry="18"/>
<text text-anchor="middle" x="807" y="-62.6" font-family="Times,serif" font-size="14.00">AuthService</text>
</g>
<!-- AuthService&#45;&gt;AuthModule -->
<g id="edge6" class="edge">
<title>AuthService&#45;&gt;AuthModule</title>
<path fill="none" stroke="black" d="M751.73,-73.51C751.73,-93.09 751.73,-148.8 751.73,-148.8 751.73,-148.8 563.78,-148.8 563.78,-148.8"/>
<polygon fill="black" stroke="black" points="563.78,-145.3 553.78,-148.8 563.78,-152.3 563.78,-145.3"/>
</g>
<!-- JwtStrategy -->
<g id="node8" class="node">
<title>JwtStrategy</title>
<ellipse fill="#fdb462" stroke="black" cx="673" cy="-66.8" rx="56.76" ry="18"/>
<text text-anchor="middle" x="673" y="-62.6" font-family="Times,serif" font-size="14.00">JwtStrategy</text>
</g>
<!-- JwtStrategy&#45;&gt;AuthModule -->
<g id="edge7" class="edge">
<title>JwtStrategy&#45;&gt;AuthModule</title>
<path fill="none" stroke="black" d="M673,-84.83C673,-105.57 673,-136.8 673,-136.8 673,-136.8 563.68,-136.8 563.68,-136.8"/>
<polygon fill="black" stroke="black" points="563.68,-133.3 553.68,-136.8 563.68,-140.3 563.68,-133.3"/>
</g>
<!-- LocalStrategy -->
<g id="node9" class="node">
<title>LocalStrategy</title>
<ellipse fill="#fdb462" stroke="black" cx="533" cy="-66.8" rx="65.41" ry="18"/>
<text text-anchor="middle" x="533" y="-62.6" font-family="Times,serif" font-size="14.00">LocalStrategy</text>
</g>
<!-- LocalStrategy&#45;&gt;AuthModule -->
<g id="edge8" class="edge">
<title>LocalStrategy&#45;&gt;AuthModule</title>
<path fill="none" stroke="black" d="M510.79,-84.05C510.79,-84.05 510.79,-114.56 510.79,-114.56"/>
<polygon fill="black" stroke="black" points="507.29,-114.56 510.79,-124.56 514.29,-114.56 507.29,-114.56"/>
</g>
<!-- RoleRepository -->
<g id="node12" class="node">
<title>RoleRepository</title>
<ellipse fill="#fdb462" stroke="black" cx="666" cy="-275.8" rx="71.81" ry="18"/>
<text text-anchor="middle" x="666" y="-271.6" font-family="Times,serif" font-size="14.00">RoleRepository</text>
</g>
<!-- RoleRepository&#45;&gt;RoleModule -->
<g id="edge12" class="edge">
<title>RoleRepository&#45;&gt;RoleModule</title>
<path fill="none" stroke="black" d="M607.29,-265.35C607.29,-248.89 607.29,-218.8 607.29,-218.8 607.29,-218.8 564.07,-218.8 564.07,-218.8"/>
<polygon fill="black" stroke="black" points="564.07,-215.3 554.07,-218.8 564.07,-222.3 564.07,-215.3"/>
</g>
<!-- RoleService -->
<g id="node13" class="node">
<title>RoleService</title>
<ellipse fill="#fdb462" stroke="black" cx="814" cy="-275.8" rx="58.46" ry="18"/>
<text text-anchor="middle" x="814" y="-271.6" font-family="Times,serif" font-size="14.00">RoleService</text>
</g>
<!-- RoleService&#45;&gt;RoleModule -->
<g id="edge13" class="edge">
<title>RoleService&#45;&gt;RoleModule</title>
<path fill="none" stroke="black" d="M811.04,-257.63C811.04,-238.71 811.04,-211.8 811.04,-211.8 811.04,-211.8 564.31,-211.8 564.31,-211.8"/>
<polygon fill="black" stroke="black" points="564.31,-208.3 554.31,-211.8 564.31,-215.3 564.31,-208.3"/>
</g>
<!-- UserRepository -->
<g id="node15" class="node">
<title>UserRepository</title>
<ellipse fill="#fdb462" stroke="black" cx="238" cy="-66.8" rx="71.79" ry="18"/>
<text text-anchor="middle" x="238" y="-62.6" font-family="Times,serif" font-size="14.00">UserRepository</text>
</g>
<!-- UserRepository&#45;&gt;UsersModule -->
<g id="edge15" class="edge">
<title>UserRepository&#45;&gt;UsersModule</title>
<path fill="none" stroke="black" d="M281.13,-81.3C281.13,-89.77 281.13,-98.8 281.13,-98.8 281.13,-98.8 392.48,-98.8 392.48,-98.8 392.48,-98.8 392.48,-114.65 392.48,-114.65"/>
<polygon fill="black" stroke="black" points="388.98,-114.65 392.48,-124.65 395.98,-114.65 388.98,-114.65"/>
</g>
<!-- UsersService -->
<g id="node16" class="node">
<title>UsersService</title>
<ellipse fill="#fdb462" stroke="black" cx="86" cy="-66.8" rx="61.95" ry="18"/>
<text text-anchor="middle" x="86" y="-62.6" font-family="Times,serif" font-size="14.00">UsersService</text>
</g>
<!-- UsersService&#45;&gt;UsersModule -->
<g id="edge16" class="edge">
<title>UsersService&#45;&gt;UsersModule</title>
<path fill="none" stroke="black" d="M131.68,-79.1C131.68,-92.42 131.68,-111.8 131.68,-111.8 131.68,-111.8 374.89,-111.8 374.89,-111.8 374.89,-111.8 374.89,-114.77 374.89,-114.77"/>
<polygon fill="black" stroke="black" points="371.39,-114.77 374.89,-124.77 378.39,-114.77 371.39,-114.77"/>
</g>
</g>
</svg>
