<?xml version="1.0" encoding="UTF-8" standalone="no"?>
<!DOCTYPE svg PUBLIC "-//W3C//DTD SVG 1.1//EN"
 "http://www.w3.org/Graphics/SVG/1.1/DTD/svg11.dtd">
<!-- Generated by graphviz version 2.47.3 (20210619.1520)
 -->
<!-- Title: dependencies Pages: 1 -->
<svg width="5308pt" height="334pt"
 viewBox="0.00 0.00 5308.00 333.80" xmlns="http://www.w3.org/2000/svg" xmlns:xlink="http://www.w3.org/1999/xlink">
<g id="graph0" class="graph" transform="scale(1 1) rotate(0) translate(4 329.8)">
<title>dependencies</title>
<polygon fill="white" stroke="transparent" points="-4,4 -4,-329.8 5304,-329.8 5304,4 -4,4"/>
<text text-anchor="middle" x="2650" y="-8.2" font-family="sans-serif" font-size="14.00">dependencies</text>
<g id="clust1" class="cluster">
<title>cluster_AppModule</title>
<polygon fill="none" stroke="black" stroke-dasharray="1,5" points="95,-108.8 95,-309.8 1254,-309.8 1254,-108.8 95,-108.8"/>
</g>
<g id="clust3" class="cluster">
<title>cluster_AppModule_imports</title>
<polygon fill="none" stroke="black" points="241,-116.8 241,-233.8 1246,-233.8 1246,-116.8 241,-116.8"/>
</g>
<g id="clust6" class="cluster">
<title>cluster_AppModule_providers</title>
<polygon fill="none" stroke="black" points="103,-181.8 103,-233.8 233,-233.8 233,-181.8 103,-181.8"/>
</g>
<g id="clust7" class="cluster">
<title>cluster_AuthModule</title>
<polygon fill="none" stroke="black" stroke-dasharray="1,5" points="452,-32.8 452,-100.8 883,-100.8 883,-32.8 452,-32.8"/>
</g>
<g id="clust12" class="cluster">
<title>cluster_AuthModule_providers</title>
<polygon fill="none" stroke="black" points="460,-40.8 460,-92.8 875,-92.8 875,-40.8 460,-40.8"/>
</g>
<g id="clust19" class="cluster">
<title>cluster_GroupingItemModule</title>
<polygon fill="none" stroke="black" stroke-dasharray="1,5" points="1262,-173.8 1262,-241.8 2061,-241.8 2061,-173.8 1262,-173.8"/>
</g>
<g id="clust22" class="cluster">
<title>cluster_GroupingItemModule_exports</title>
<polygon fill="none" stroke="black" points="1718,-181.8 1718,-233.8 2053,-233.8 2053,-181.8 1718,-181.8"/>
</g>
<g id="clust24" class="cluster">
<title>cluster_GroupingItemModule_providers</title>
<polygon fill="none" stroke="black" points="1270,-181.8 1270,-233.8 1710,-233.8 1710,-181.8 1270,-181.8"/>
</g>
<g id="clust25" class="cluster">
<title>cluster_HangmanWordModule</title>
<polygon fill="none" stroke="black" stroke-dasharray="1,5" points="2069,-173.8 2069,-241.8 2902,-241.8 2902,-173.8 2069,-173.8"/>
</g>
<g id="clust28" class="cluster">
<title>cluster_HangmanWordModule_exports</title>
<polygon fill="none" stroke="black" points="2544,-181.8 2544,-233.8 2894,-233.8 2894,-181.8 2544,-181.8"/>
</g>
<g id="clust30" class="cluster">
<title>cluster_HangmanWordModule_providers</title>
<polygon fill="none" stroke="black" points="2077,-181.8 2077,-233.8 2536,-233.8 2536,-181.8 2077,-181.8"/>
</g>
<g id="clust31" class="cluster">
<title>cluster_MirrorWordModule</title>
<polygon fill="none" stroke="black" stroke-dasharray="1,5" points="2910,-173.8 2910,-241.8 3660,-241.8 3660,-173.8 2910,-173.8"/>
</g>
<g id="clust34" class="cluster">
<title>cluster_MirrorWordModule_exports</title>
<polygon fill="none" stroke="black" points="3338,-181.8 3338,-233.8 3652,-233.8 3652,-181.8 3338,-181.8"/>
</g>
<g id="clust36" class="cluster">
<title>cluster_MirrorWordModule_providers</title>
<polygon fill="none" stroke="black" points="2918,-181.8 2918,-233.8 3330,-233.8 3330,-181.8 2918,-181.8"/>
</g>
<g id="clust37" class="cluster">
<title>cluster_QuizModule</title>
<polygon fill="none" stroke="black" stroke-dasharray="1,5" points="3668,-173.8 3668,-241.8 4218,-241.8 4218,-173.8 3668,-173.8"/>
</g>
<g id="clust40" class="cluster">
<title>cluster_QuizModule_exports</title>
<polygon fill="none" stroke="black" points="3980,-181.8 3980,-233.8 4210,-233.8 4210,-181.8 3980,-181.8"/>
</g>
<g id="clust42" class="cluster">
<title>cluster_QuizModule_providers</title>
<polygon fill="none" stroke="black" points="3676,-181.8 3676,-233.8 3972,-233.8 3972,-181.8 3676,-181.8"/>
</g>
<g id="clust43" class="cluster">
<title>cluster_QuizQuestionModule</title>
<polygon fill="none" stroke="black" stroke-dasharray="1,5" points="4840,-32.8 4840,-241.8 5292,-241.8 5292,-32.8 4840,-32.8"/>
</g>
<g id="clust46" class="cluster">
<title>cluster_QuizQuestionModule_exports</title>
<polygon fill="none" stroke="black" points="4880,-181.8 4880,-233.8 5212,-233.8 5212,-181.8 4880,-181.8"/>
</g>
<g id="clust48" class="cluster">
<title>cluster_QuizQuestionModule_providers</title>
<polygon fill="none" stroke="black" points="4848,-40.8 4848,-92.8 5284,-92.8 5284,-40.8 4848,-40.8"/>
</g>
<g id="clust49" class="cluster">
<title>cluster_RoleModule</title>
<polygon fill="none" stroke="black" stroke-dasharray="1,5" points="1262,-249.8 1262,-317.8 1810,-317.8 1810,-249.8 1262,-249.8"/>
</g>
<g id="clust52" class="cluster">
<title>cluster_RoleModule_exports</title>
<polygon fill="none" stroke="black" points="1572,-257.8 1572,-309.8 1802,-309.8 1802,-257.8 1572,-257.8"/>
</g>
<g id="clust54" class="cluster">
<title>cluster_RoleModule_providers</title>
<polygon fill="none" stroke="black" points="1270,-257.8 1270,-309.8 1564,-309.8 1564,-257.8 1270,-257.8"/>
</g>
<g id="clust55" class="cluster">
<title>cluster_SchoolModule</title>
<polygon fill="none" stroke="black" stroke-dasharray="1,5" points="4226,-173.8 4226,-241.8 4832,-241.8 4832,-173.8 4226,-173.8"/>
</g>
<g id="clust58" class="cluster">
<title>cluster_SchoolModule_exports</title>
<polygon fill="none" stroke="black" points="4570,-181.8 4570,-233.8 4824,-233.8 4824,-181.8 4570,-181.8"/>
</g>
<g id="clust60" class="cluster">
<title>cluster_SchoolModule_providers</title>
<polygon fill="none" stroke="black" points="4234,-181.8 4234,-233.8 4562,-233.8 4562,-181.8 4234,-181.8"/>
</g>
<g id="clust61" class="cluster">
<title>cluster_UsersModule</title>
<polygon fill="none" stroke="black" stroke-dasharray="1,5" points="8,-32.8 8,-100.8 444,-100.8 444,-32.8 8,-32.8"/>
</g>
<g id="clust64" class="cluster">
<title>cluster_UsersModule_exports</title>
<polygon fill="none" stroke="black" points="326,-40.8 326,-92.8 436,-92.8 436,-40.8 326,-40.8"/>
</g>
<g id="clust66" class="cluster">
<title>cluster_UsersModule_providers</title>
<polygon fill="none" stroke="black" points="16,-40.8 16,-92.8 318,-92.8 318,-40.8 16,-40.8"/>
</g>
<!-- AuthModule -->
<g id="node1" class="node">
<title>AuthModule</title>
<polygon fill="#8dd3c7" stroke="black" points="549.55,-160.8 546.55,-164.8 525.55,-164.8 522.55,-160.8 462.45,-160.8 462.45,-124.8 549.55,-124.8 549.55,-160.8"/>
<text text-anchor="middle" x="506" y="-138.6" font-family="Times,serif" font-size="14.00">AuthModule</text>
</g>
<!-- RoleModule -->
<g id="node7" class="node">
<title>RoleModule</title>
<polygon fill="#8dd3c7" stroke="black" points="1237.99,-225.8 1234.99,-229.8 1213.99,-229.8 1210.99,-225.8 1152.01,-225.8 1152.01,-189.8 1237.99,-189.8 1237.99,-225.8"/>
<text text-anchor="middle" x="1195" y="-203.6" font-family="Times,serif" font-size="14.00">RoleModule</text>
</g>
<!-- AuthModule&#45;&gt;RoleModule -->
<g id="edge34" class="edge">
<title>AuthModule&#45;&gt;RoleModule</title>
<path fill="none" stroke="black" d="M520.59,-160.83C520.59,-177.2 520.59,-198.8 520.59,-198.8 520.59,-198.8 1141.79,-198.8 1141.79,-198.8"/>
<polygon fill="black" stroke="black" points="1141.79,-202.3 1151.79,-198.8 1141.79,-195.3 1141.79,-202.3"/>
</g>
<!-- AppModule -->
<g id="node10" class="node">
<title>AppModule</title>
<polygon fill="#8dd3c7" stroke="black" points="740.66,-301.8 737.66,-305.8 716.66,-305.8 713.66,-301.8 657.34,-301.8 657.34,-265.8 740.66,-265.8 740.66,-301.8"/>
<text text-anchor="middle" x="699" y="-279.6" font-family="Times,serif" font-size="14.00">AppModule</text>
</g>
<!-- AuthModule&#45;&gt;AppModule -->
<g id="edge1" class="edge">
<title>AuthModule&#45;&gt;AppModule</title>
<path fill="none" stroke="black" d="M491.41,-160.88C491.41,-197.03 491.41,-274.8 491.41,-274.8 491.41,-274.8 646.99,-274.8 646.99,-274.8"/>
<polygon fill="black" stroke="black" points="646.99,-278.3 656.99,-274.8 646.99,-271.3 646.99,-278.3"/>
</g>
<!-- CoreModule -->
<g id="node2" class="node">
<title>CoreModule</title>
<polygon fill="#8dd3c7" stroke="black" points="335.26,-160.8 332.26,-164.8 311.26,-164.8 308.26,-160.8 248.74,-160.8 248.74,-124.8 335.26,-124.8 335.26,-160.8"/>
<text text-anchor="middle" x="292" y="-138.6" font-family="Times,serif" font-size="14.00">CoreModule</text>
</g>
<!-- CoreModule&#45;&gt;AppModule -->
<g id="edge2" class="edge">
<title>CoreModule&#45;&gt;AppModule</title>
<path fill="none" stroke="black" d="M292,-160.89C292,-200.79 292,-292.8 292,-292.8 292,-292.8 646.98,-292.8 646.98,-292.8"/>
<polygon fill="black" stroke="black" points="646.98,-296.3 656.98,-292.8 646.98,-289.3 646.98,-296.3"/>
</g>
<!-- GroupingItemModule -->
<g id="node3" class="node">
<title>GroupingItemModule</title>
<polygon fill="#8dd3c7" stroke="black" points="706.36,-160.8 703.36,-164.8 682.36,-164.8 679.36,-160.8 567.64,-160.8 567.64,-124.8 706.36,-124.8 706.36,-160.8"/>
<text text-anchor="middle" x="637" y="-138.6" font-family="Times,serif" font-size="14.00">GroupingItemModule</text>
</g>
<!-- GroupingItemModule&#45;&gt;AppModule -->
<g id="edge3" class="edge">
<title>GroupingItemModule&#45;&gt;AppModule</title>
<path fill="none" stroke="black" d="M699.39,-160.94C699.39,-160.94 699.39,-255.73 699.39,-255.73"/>
<polygon fill="black" stroke="black" points="695.89,-255.72 699.39,-265.73 702.89,-255.73 695.89,-255.72"/>
</g>
<!-- GroupingItemRepository  -->
<g id="node15" class="node">
<title>GroupingItemRepository </title>
<polygon fill="#fb8072" stroke="black" points="2045.25,-225.8 1884.75,-225.8 1884.75,-189.8 2045.25,-189.8 2045.25,-225.8"/>
<text text-anchor="middle" x="1965" y="-203.6" font-family="Times,serif" font-size="14.00">GroupingItemRepository </text>
</g>
<!-- GroupingItemModule&#45;&gt;GroupingItemRepository  -->
<g id="edge14" class="edge">
<title>GroupingItemModule&#45;&gt;GroupingItemRepository </title>
<path fill="none" stroke="black" stroke-dasharray="5,2" d="M671.25,-160.93C671.25,-171.11 671.25,-181.8 671.25,-181.8 671.25,-181.8 1965,-181.8 1965,-181.8 1965,-181.8 1965,-182.59 1965,-182.59"/>
<polygon fill="black" stroke="black" points="1961.5,-179.74 1965,-189.74 1968.5,-179.74 1961.5,-179.74"/>
</g>
<!-- GroupingItemService  -->
<g id="node16" class="node">
<title>GroupingItemService </title>
<polygon fill="#fb8072" stroke="black" points="1866.29,-225.8 1725.71,-225.8 1725.71,-189.8 1866.29,-189.8 1866.29,-225.8"/>
<text text-anchor="middle" x="1796" y="-203.6" font-family="Times,serif" font-size="14.00">GroupingItemService </text>
</g>
<!-- GroupingItemModule&#45;&gt;GroupingItemService  -->
<g id="edge15" class="edge">
<title>GroupingItemModule&#45;&gt;GroupingItemService </title>
<path fill="none" stroke="black" stroke-dasharray="5,2" d="M664.21,-160.9C664.21,-171.89 664.21,-183.8 664.21,-183.8 664.21,-183.8 1796,-183.8 1796,-183.8 1796,-183.8 1796,-184.38 1796,-184.38"/>
<polygon fill="black" stroke="black" points="1792.5,-179.61 1796,-189.61 1799.5,-179.61 1792.5,-179.61"/>
</g>
<!-- HangmanWordModule -->
<g id="node4" class="node">
<title>HangmanWordModule</title>
<polygon fill="#8dd3c7" stroke="black" points="869.85,-160.8 866.85,-164.8 845.85,-164.8 842.85,-160.8 724.15,-160.8 724.15,-124.8 869.85,-124.8 869.85,-160.8"/>
<text text-anchor="middle" x="797" y="-138.6" font-family="Times,serif" font-size="14.00">HangmanWordModule</text>
</g>
<!-- HangmanWordModule&#45;&gt;AppModule -->
<g id="edge4" class="edge">
<title>HangmanWordModule&#45;&gt;AppModule</title>
<path fill="none" stroke="black" d="M729.66,-160.94C729.66,-160.94 729.66,-255.73 729.66,-255.73"/>
<polygon fill="black" stroke="black" points="726.16,-255.72 729.66,-265.73 733.16,-255.73 726.16,-255.72"/>
</g>
<!-- HangmanWordRepository  -->
<g id="node19" class="node">
<title>HangmanWordRepository </title>
<polygon fill="#fb8072" stroke="black" points="2885.74,-225.8 2718.26,-225.8 2718.26,-189.8 2885.74,-189.8 2885.74,-225.8"/>
<text text-anchor="middle" x="2802" y="-203.6" font-family="Times,serif" font-size="14.00">HangmanWordRepository </text>
</g>
<!-- HangmanWordModule&#45;&gt;HangmanWordRepository  -->
<g id="edge18" class="edge">
<title>HangmanWordModule&#45;&gt;HangmanWordRepository </title>
<path fill="none" stroke="black" stroke-dasharray="5,2" d="M792.47,-160.83C792.47,-167.65 792.47,-173.8 792.47,-173.8 792.47,-173.8 2802,-173.8 2802,-173.8 2802,-173.8 2802,-179.61 2802,-179.61"/>
<polygon fill="black" stroke="black" points="2798.5,-179.61 2802,-189.61 2805.5,-179.61 2798.5,-179.61"/>
</g>
<!-- HangmanWordService  -->
<g id="node20" class="node">
<title>HangmanWordService </title>
<polygon fill="#fb8072" stroke="black" points="2699.78,-225.8 2552.22,-225.8 2552.22,-189.8 2699.78,-189.8 2699.78,-225.8"/>
<text text-anchor="middle" x="2626" y="-203.6" font-family="Times,serif" font-size="14.00">HangmanWordService </text>
</g>
<!-- HangmanWordModule&#45;&gt;HangmanWordService  -->
<g id="edge19" class="edge">
<title>HangmanWordModule&#45;&gt;HangmanWordService </title>
<path fill="none" stroke="black" stroke-dasharray="5,2" d="M766.65,-160.84C766.65,-168.55 766.65,-175.8 766.65,-175.8 766.65,-175.8 2626,-175.8 2626,-175.8 2626,-175.8 2626,-179.56 2626,-179.56"/>
<polygon fill="black" stroke="black" points="2622.5,-179.56 2626,-189.56 2629.5,-179.56 2622.5,-179.56"/>
</g>
<!-- MirrorWordModule -->
<g id="node5" class="node">
<title>MirrorWordModule</title>
<polygon fill="#8dd3c7" stroke="black" points="1016.24,-160.8 1013.24,-164.8 992.24,-164.8 989.24,-160.8 887.76,-160.8 887.76,-124.8 1016.24,-124.8 1016.24,-160.8"/>
<text text-anchor="middle" x="952" y="-138.6" font-family="Times,serif" font-size="14.00">MirrorWordModule</text>
</g>
<!-- MirrorWordModule&#45;&gt;AppModule -->
<g id="edge5" class="edge">
<title>MirrorWordModule&#45;&gt;AppModule</title>
<path fill="none" stroke="black" d="M994.91,-161.01C994.91,-197.01 994.91,-273.8 994.91,-273.8 994.91,-273.8 750.77,-273.8 750.77,-273.8"/>
<polygon fill="black" stroke="black" points="750.77,-270.3 740.77,-273.8 750.77,-277.3 750.77,-270.3"/>
</g>
<!-- MirrorWordRepository  -->
<g id="node23" class="node">
<title>MirrorWordRepository </title>
<polygon fill="#fb8072" stroke="black" points="3644.13,-225.8 3493.87,-225.8 3493.87,-189.8 3644.13,-189.8 3644.13,-225.8"/>
<text text-anchor="middle" x="3569" y="-203.6" font-family="Times,serif" font-size="14.00">MirrorWordRepository </text>
</g>
<!-- MirrorWordModule&#45;&gt;MirrorWordRepository  -->
<g id="edge22" class="edge">
<title>MirrorWordModule&#45;&gt;MirrorWordRepository </title>
<path fill="none" stroke="black" stroke-dasharray="5,2" d="M930.54,-160.92C930.54,-163.77 930.54,-165.8 930.54,-165.8 930.54,-165.8 3569,-165.8 3569,-165.8 3569,-165.8 3569,-179.74 3569,-179.74"/>
<polygon fill="black" stroke="black" points="3565.5,-179.74 3569,-189.74 3572.5,-179.74 3565.5,-179.74"/>
</g>
<!-- MirrorWordService  -->
<g id="node24" class="node">
<title>MirrorWordService </title>
<polygon fill="#fb8072" stroke="black" points="3476.17,-225.8 3345.83,-225.8 3345.83,-189.8 3476.17,-189.8 3476.17,-225.8"/>
<text text-anchor="middle" x="3411" y="-203.6" font-family="Times,serif" font-size="14.00">MirrorWordService </text>
</g>
<!-- MirrorWordModule&#45;&gt;MirrorWordService  -->
<g id="edge23" class="edge">
<title>MirrorWordModule&#45;&gt;MirrorWordService </title>
<path fill="none" stroke="black" stroke-dasharray="5,2" d="M909.09,-160.97C909.09,-164.85 909.09,-167.8 909.09,-167.8 909.09,-167.8 3411,-167.8 3411,-167.8 3411,-167.8 3411,-179.67 3411,-179.67"/>
<polygon fill="black" stroke="black" points="3407.5,-179.67 3411,-189.67 3414.5,-179.67 3407.5,-179.67"/>
</g>
<!-- QuizModule -->
<g id="node6" class="node">
<title>QuizModule</title>
<polygon fill="#8dd3c7" stroke="black" points="1121.26,-160.8 1118.26,-164.8 1097.26,-164.8 1094.26,-160.8 1034.74,-160.8 1034.74,-124.8 1121.26,-124.8 1121.26,-160.8"/>
<text text-anchor="middle" x="1078" y="-138.6" font-family="Times,serif" font-size="14.00">QuizModule</text>
</g>
<!-- QuizModule&#45;&gt;AppModule -->
<g id="edge6" class="edge">
<title>QuizModule&#45;&gt;AppModule</title>
<path fill="none" stroke="black" d="M1063.54,-160.84C1063.54,-198.25 1063.54,-280.8 1063.54,-280.8 1063.54,-280.8 750.82,-280.8 750.82,-280.8"/>
<polygon fill="black" stroke="black" points="750.82,-277.3 740.82,-280.8 750.82,-284.3 750.82,-277.3"/>
</g>
<!-- QuizRepository  -->
<g id="node27" class="node">
<title>QuizRepository </title>
<polygon fill="#fb8072" stroke="black" points="4202.15,-225.8 4093.85,-225.8 4093.85,-189.8 4202.15,-189.8 4202.15,-225.8"/>
<text text-anchor="middle" x="4148" y="-203.6" font-family="Times,serif" font-size="14.00">QuizRepository </text>
</g>
<!-- QuizModule&#45;&gt;QuizRepository  -->
<g id="edge26" class="edge">
<title>QuizModule&#45;&gt;QuizRepository </title>
<path fill="none" stroke="black" stroke-dasharray="5,2" d="M1078,-160.86C1078,-189.91 1078,-243.8 1078,-243.8 1078,-243.8 4148,-243.8 4148,-243.8 4148,-243.8 4148,-236.22 4148,-236.22"/>
<polygon fill="black" stroke="black" points="4151.5,-236.22 4148,-226.22 4144.5,-236.22 4151.5,-236.22"/>
</g>
<!-- QuizService  -->
<g id="node28" class="node">
<title>QuizService </title>
<polygon fill="#fb8072" stroke="black" points="4076.19,-225.8 3987.81,-225.8 3987.81,-189.8 4076.19,-189.8 4076.19,-225.8"/>
<text text-anchor="middle" x="4032" y="-203.6" font-family="Times,serif" font-size="14.00">QuizService </text>
</g>
<!-- QuizModule&#45;&gt;QuizService  -->
<g id="edge27" class="edge">
<title>QuizModule&#45;&gt;QuizService </title>
<path fill="none" stroke="black" stroke-dasharray="5,2" d="M1092.46,-161.12C1092.46,-188.72 1092.46,-237.8 1092.46,-237.8 1092.46,-237.8 4032,-237.8 4032,-237.8 4032,-237.8 4032,-235.94 4032,-235.94"/>
<polygon fill="black" stroke="black" points="4035.5,-235.94 4032,-225.94 4028.5,-235.94 4035.5,-235.94"/>
</g>
<!-- RoleModule&#45;&gt;AppModule -->
<g id="edge7" class="edge">
<title>RoleModule&#45;&gt;AppModule</title>
<path fill="none" stroke="black" d="M1151.75,-216.8C1037.3,-216.8 735.24,-216.8 735.24,-216.8 735.24,-216.8 735.24,-255.49 735.24,-255.49"/>
<polygon fill="black" stroke="black" points="731.74,-255.49 735.24,-265.49 738.74,-255.49 731.74,-255.49"/>
</g>
<!-- RoleRepository  -->
<g id="node36" class="node">
<title>RoleRepository </title>
<polygon fill="#fb8072" stroke="black" points="1687.88,-301.8 1580.12,-301.8 1580.12,-265.8 1687.88,-265.8 1687.88,-301.8"/>
<text text-anchor="middle" x="1634" y="-279.6" font-family="Times,serif" font-size="14.00">RoleRepository </text>
</g>
<!-- RoleModule&#45;&gt;RoleRepository  -->
<g id="edge35" class="edge">
<title>RoleModule&#45;&gt;RoleRepository </title>
<path fill="none" stroke="black" stroke-dasharray="5,2" d="M1169.2,-225.84C1169.2,-239.09 1169.2,-254.8 1169.2,-254.8 1169.2,-254.8 1634,-254.8 1634,-254.8 1634,-254.8 1634,-255.88 1634,-255.88"/>
<polygon fill="black" stroke="black" points="1630.5,-255.6 1634,-265.6 1637.5,-255.6 1630.5,-255.6"/>
</g>
<!-- RoleService  -->
<g id="node37" class="node">
<title>RoleService </title>
<polygon fill="#fb8072" stroke="black" points="1793.92,-301.8 1706.08,-301.8 1706.08,-265.8 1793.92,-265.8 1793.92,-301.8"/>
<text text-anchor="middle" x="1750" y="-279.6" font-family="Times,serif" font-size="14.00">RoleService </text>
</g>
<!-- RoleModule&#45;&gt;RoleService  -->
<g id="edge36" class="edge">
<title>RoleModule&#45;&gt;RoleService </title>
<path fill="none" stroke="black" stroke-dasharray="5,2" d="M1186.4,-225.9C1186.4,-236.89 1186.4,-248.8 1186.4,-248.8 1186.4,-248.8 1715.82,-248.8 1715.82,-248.8 1715.82,-248.8 1715.82,-255.48 1715.82,-255.48"/>
<polygon fill="black" stroke="black" points="1712.32,-255.48 1715.82,-265.48 1719.32,-255.48 1712.32,-255.48"/>
</g>
<!-- SchoolModule -->
<g id="node8" class="node">
<title>SchoolModule</title>
<polygon fill="#8dd3c7" stroke="black" points="1238.44,-160.8 1235.44,-164.8 1214.44,-164.8 1211.44,-160.8 1139.56,-160.8 1139.56,-124.8 1238.44,-124.8 1238.44,-160.8"/>
<text text-anchor="middle" x="1189" y="-138.6" font-family="Times,serif" font-size="14.00">SchoolModule</text>
</g>
<!-- SchoolModule&#45;&gt;AppModule -->
<g id="edge8" class="edge">
<title>SchoolModule&#45;&gt;AppModule</title>
<path fill="none" stroke="black" d="M1145.89,-160.87C1145.89,-199.74 1145.89,-287.8 1145.89,-287.8 1145.89,-287.8 751.04,-287.8 751.04,-287.8"/>
<polygon fill="black" stroke="black" points="751.04,-284.3 741.04,-287.8 751.04,-291.3 751.04,-284.3"/>
</g>
<!-- SchoolRepository  -->
<g id="node40" class="node">
<title>SchoolRepository </title>
<polygon fill="#fb8072" stroke="black" points="4815.83,-225.8 4696.17,-225.8 4696.17,-189.8 4815.83,-189.8 4815.83,-225.8"/>
<text text-anchor="middle" x="4756" y="-203.6" font-family="Times,serif" font-size="14.00">SchoolRepository </text>
</g>
<!-- SchoolModule&#45;&gt;SchoolRepository  -->
<g id="edge39" class="edge">
<title>SchoolModule&#45;&gt;SchoolRepository </title>
<path fill="none" stroke="black" stroke-dasharray="5,2" d="M1238.4,-132.8C1668.12,-132.8 4756,-132.8 4756,-132.8 4756,-132.8 4756,-179.64 4756,-179.64"/>
<polygon fill="black" stroke="black" points="4752.5,-179.64 4756,-189.64 4759.5,-179.64 4752.5,-179.64"/>
</g>
<!-- SchoolService  -->
<g id="node41" class="node">
<title>SchoolService </title>
<polygon fill="#fb8072" stroke="black" points="4678.37,-225.8 4577.63,-225.8 4577.63,-189.8 4678.37,-189.8 4678.37,-225.8"/>
<text text-anchor="middle" x="4628" y="-203.6" font-family="Times,serif" font-size="14.00">SchoolService </text>
</g>
<!-- SchoolModule&#45;&gt;SchoolService  -->
<g id="edge40" class="edge">
<title>SchoolModule&#45;&gt;SchoolService </title>
<path fill="none" stroke="black" stroke-dasharray="5,2" d="M1238.28,-139.8C1658.73,-139.8 4628,-139.8 4628,-139.8 4628,-139.8 4628,-179.58 4628,-179.58"/>
<polygon fill="black" stroke="black" points="4624.5,-179.58 4628,-189.58 4631.5,-179.58 4624.5,-179.58"/>
</g>
<!-- UsersModule -->
<g id="node9" class="node">
<title>UsersModule</title>
<polygon fill="#8dd3c7" stroke="black" points="444.92,-160.8 441.92,-164.8 420.92,-164.8 417.92,-160.8 353.08,-160.8 353.08,-124.8 444.92,-124.8 444.92,-160.8"/>
<text text-anchor="middle" x="399" y="-138.6" font-family="Times,serif" font-size="14.00">UsersModule</text>
</g>
<!-- UsersModule&#45;&gt;AppModule -->
<g id="edge9" class="edge">
<title>UsersModule&#45;&gt;AppModule</title>
<path fill="none" stroke="black" d="M399,-160.94C399,-199.03 399,-283.8 399,-283.8 399,-283.8 647.29,-283.8 647.29,-283.8"/>
<polygon fill="black" stroke="black" points="647.29,-287.3 657.29,-283.8 647.29,-280.3 647.29,-287.3"/>
</g>
<!-- UsersService  -->
<g id="node44" class="node">
<title>UsersService </title>
<polygon fill="#fb8072" stroke="black" points="427.85,-84.8 334.15,-84.8 334.15,-48.8 427.85,-48.8 427.85,-84.8"/>
<text text-anchor="middle" x="381" y="-62.6" font-family="Times,serif" font-size="14.00">UsersService </text>
</g>
<!-- UsersModule&#45;&gt;UsersService  -->
<g id="edge43" class="edge">
<title>UsersModule&#45;&gt;UsersService </title>
<path fill="none" stroke="black" stroke-dasharray="5,2" d="M409.08,-124.79C409.08,-124.79 409.08,-94.95 409.08,-94.95"/>
<polygon fill="black" stroke="black" points="412.58,-94.95 409.08,-84.95 405.58,-94.95 412.58,-94.95"/>
</g>
<!-- AppService -->
<g id="node11" class="node">
<title>AppService</title>
<ellipse fill="#fdb462" stroke="black" cx="168" cy="-207.8" rx="56.74" ry="18"/>
<text text-anchor="middle" x="168" y="-203.6" font-family="Times,serif" font-size="14.00">AppService</text>
</g>
<!-- AppService&#45;&gt;AppModule -->
<g id="edge10" class="edge">
<title>AppService&#45;&gt;AppModule</title>
<path fill="none" stroke="black" d="M225.11,-207.8C361.02,-207.8 692.36,-207.8 692.36,-207.8 692.36,-207.8 692.36,-255.79 692.36,-255.79"/>
<polygon fill="black" stroke="black" points="688.86,-255.79 692.36,-265.79 695.86,-255.79 688.86,-255.79"/>
</g>
<!-- AuthService -->
<g id="node12" class="node">
<title>AuthService</title>
<ellipse fill="#fdb462" stroke="black" cx="659" cy="-66.8" rx="59.11" ry="18"/>
<text text-anchor="middle" x="659" y="-62.6" font-family="Times,serif" font-size="14.00">AuthService</text>
</g>
<!-- AuthService&#45;&gt;AuthModule -->
<g id="edge11" class="edge">
<title>AuthService&#45;&gt;AuthModule</title>
<path fill="none" stroke="black" d="M653.06,-84.86C653.06,-96.24 653.06,-108.8 653.06,-108.8 653.06,-108.8 509.07,-108.8 509.07,-108.8 509.07,-108.8 509.07,-114.61 509.07,-114.61"/>
<polygon fill="black" stroke="black" points="505.57,-114.61 509.07,-124.61 512.57,-114.61 505.57,-114.61"/>
</g>
<!-- JwtStrategy -->
<g id="node13" class="node">
<title>JwtStrategy</title>
<ellipse fill="#fdb462" stroke="black" cx="525" cy="-66.8" rx="56.76" ry="18"/>
<text text-anchor="middle" x="525" y="-62.6" font-family="Times,serif" font-size="14.00">JwtStrategy</text>
</g>
<!-- JwtStrategy&#45;&gt;AuthModule -->
<g id="edge12" class="edge">
<title>JwtStrategy&#45;&gt;AuthModule</title>
<path fill="none" stroke="black" d="M488.72,-80.74C488.72,-80.74 488.72,-114.64 488.72,-114.64"/>
<polygon fill="black" stroke="black" points="485.22,-114.64 488.72,-124.64 492.22,-114.64 485.22,-114.64"/>
</g>
<!-- LocalStrategy -->
<g id="node14" class="node">
<title>LocalStrategy</title>
<ellipse fill="#fdb462" stroke="black" cx="802" cy="-66.8" rx="65.41" ry="18"/>
<text text-anchor="middle" x="802" y="-62.6" font-family="Times,serif" font-size="14.00">LocalStrategy</text>
</g>
<!-- LocalStrategy&#45;&gt;AuthModule -->
<g id="edge13" class="edge">
<title>LocalStrategy&#45;&gt;AuthModule</title>
<path fill="none" stroke="black" d="M802,-84.85C802,-99.17 802,-116.8 802,-116.8 802,-116.8 529.42,-116.8 529.42,-116.8 529.42,-116.8 529.42,-117.59 529.42,-117.59"/>
<polygon fill="black" stroke="black" points="525.92,-114.74 529.42,-124.74 532.92,-114.74 525.92,-114.74"/>
</g>
<!-- GroupingItemRepository -->
<g id="node17" class="node">
<title>GroupingItemRepository</title>
<ellipse fill="#fdb462" stroke="black" cx="1594" cy="-207.8" rx="108.25" ry="18"/>
<text text-anchor="middle" x="1594" y="-203.6" font-family="Times,serif" font-size="14.00">GroupingItemRepository</text>
</g>
<!-- GroupingItemRepository&#45;&gt;GroupingItemModule -->
<g id="edge16" class="edge">
<title>GroupingItemRepository&#45;&gt;GroupingItemModule</title>
<path fill="none" stroke="black" d="M1594,-189.63C1594,-187.35 1594,-185.8 1594,-185.8 1594,-185.8 685.32,-185.8 685.32,-185.8 685.32,-185.8 685.32,-171.29 685.32,-171.29"/>
<polygon fill="black" stroke="black" points="688.82,-171.29 685.32,-161.29 681.82,-171.29 688.82,-171.29"/>
</g>
<!-- GroupingItemService -->
<g id="node18" class="node">
<title>GroupingItemService</title>
<ellipse fill="#fdb462" stroke="black" cx="1373" cy="-207.8" rx="94.9" ry="18"/>
<text text-anchor="middle" x="1373" y="-203.6" font-family="Times,serif" font-size="14.00">GroupingItemService</text>
</g>
<!-- GroupingItemService&#45;&gt;GroupingItemModule -->
<g id="edge17" class="edge">
<title>GroupingItemService&#45;&gt;GroupingItemModule</title>
<path fill="none" stroke="black" d="M1373,-189.65C1373,-188.5 1373,-187.8 1373,-187.8 1373,-187.8 678.28,-187.8 678.28,-187.8 678.28,-187.8 678.28,-170.84 678.28,-170.84"/>
<polygon fill="black" stroke="black" points="681.78,-170.84 678.28,-160.84 674.78,-170.84 681.78,-170.84"/>
</g>
<!-- HangmanWordRepository -->
<g id="node21" class="node">
<title>HangmanWordRepository</title>
<ellipse fill="#fdb462" stroke="black" cx="2415" cy="-207.8" rx="112.89" ry="18"/>
<text text-anchor="middle" x="2415" y="-203.6" font-family="Times,serif" font-size="14.00">HangmanWordRepository</text>
</g>
<!-- HangmanWordRepository&#45;&gt;HangmanWordModule -->
<g id="edge20" class="edge">
<title>HangmanWordRepository&#45;&gt;HangmanWordModule</title>
<path fill="none" stroke="black" d="M2415,-189.66C2415,-183.34 2415,-177.8 2415,-177.8 2415,-177.8 844.11,-177.8 844.11,-177.8 844.11,-177.8 844.11,-171.12 844.11,-171.12"/>
<polygon fill="black" stroke="black" points="847.61,-171.12 844.11,-161.12 840.61,-171.12 847.61,-171.12"/>
</g>
<!-- HangmanWordService -->
<g id="node22" class="node">
<title>HangmanWordService</title>
<ellipse fill="#fdb462" stroke="black" cx="2185" cy="-207.8" rx="99.54" ry="18"/>
<text text-anchor="middle" x="2185" y="-203.6" font-family="Times,serif" font-size="14.00">HangmanWordService</text>
</g>
<!-- HangmanWordService&#45;&gt;HangmanWordModule -->
<g id="edge21" class="edge">
<title>HangmanWordService&#45;&gt;HangmanWordModule</title>
<path fill="none" stroke="black" d="M2185,-189.59C2185,-184.25 2185,-179.8 2185,-179.8 2185,-179.8 818.29,-179.8 818.29,-179.8 818.29,-179.8 818.29,-170.87 818.29,-170.87"/>
<polygon fill="black" stroke="black" points="821.79,-170.87 818.29,-160.87 814.79,-170.87 821.79,-170.87"/>
</g>
<!-- MirrorWordRepository -->
<g id="node25" class="node">
<title>MirrorWordRepository</title>
<ellipse fill="#fdb462" stroke="black" cx="3221" cy="-207.8" rx="101.29" ry="18"/>
<text text-anchor="middle" x="3221" y="-203.6" font-family="Times,serif" font-size="14.00">MirrorWordRepository</text>
</g>
<!-- MirrorWordRepository&#45;&gt;MirrorWordModule -->
<g id="edge24" class="edge">
<title>MirrorWordRepository&#45;&gt;MirrorWordModule</title>
<path fill="none" stroke="black" d="M3221,-189.69C3221,-179.9 3221,-169.8 3221,-169.8 3221,-169.8 973.46,-169.8 973.46,-169.8 973.46,-169.8 973.46,-168.92 973.46,-168.92"/>
<polygon fill="black" stroke="black" points="976.96,-170.96 973.46,-160.96 969.96,-170.96 976.96,-170.96"/>
</g>
<!-- MirrorWordService -->
<g id="node26" class="node">
<title>MirrorWordService</title>
<ellipse fill="#fdb462" stroke="black" cx="3014" cy="-207.8" rx="87.94" ry="18"/>
<text text-anchor="middle" x="3014" y="-203.6" font-family="Times,serif" font-size="14.00">MirrorWordService</text>
</g>
<!-- MirrorWordService&#45;&gt;MirrorWordModule -->
<g id="edge25" class="edge">
<title>MirrorWordService&#45;&gt;MirrorWordModule</title>
<path fill="none" stroke="black" d="M3014,-189.8C3014,-180.8 3014,-171.8 3014,-171.8 3014,-171.8 952,-171.8 952,-171.8 952,-171.8 952,-170.72 952,-170.72"/>
<polygon fill="black" stroke="black" points="955.5,-171 952,-161 948.5,-171 955.5,-171"/>
</g>
<!-- QuizRepository -->
<g id="node29" class="node">
<title>QuizRepository</title>
<ellipse fill="#fdb462" stroke="black" cx="3892" cy="-207.8" rx="72.37" ry="18"/>
<text text-anchor="middle" x="3892" y="-203.6" font-family="Times,serif" font-size="14.00">QuizRepository</text>
</g>
<!-- QuizRepository&#45;&gt;QuizModule -->
<g id="edge28" class="edge">
<title>QuizRepository&#45;&gt;QuizModule</title>
<path fill="none" stroke="black" d="M3892,-225.99C3892,-229.34 3892,-231.8 3892,-231.8 3892,-231.8 1106.92,-231.8 1106.92,-231.8 1106.92,-231.8 1106.92,-170.81 1106.92,-170.81"/>
<polygon fill="black" stroke="black" points="1110.42,-170.81 1106.92,-160.81 1103.42,-170.81 1110.42,-170.81"/>
</g>
<!-- QuizService -->
<g id="node30" class="node">
<title>QuizService</title>
<ellipse fill="#fdb462" stroke="black" cx="3743" cy="-207.8" rx="58.53" ry="18"/>
<text text-anchor="middle" x="3743" y="-203.6" font-family="Times,serif" font-size="14.00">QuizService</text>
</g>
<!-- QuizService&#45;&gt;QuizModule -->
<g id="edge29" class="edge">
<title>QuizService&#45;&gt;QuizModule</title>
<path fill="none" stroke="black" d="M3743,-189.65C3743,-177.53 3743,-163.8 3743,-163.8 3743,-163.8 1049.08,-163.8 1049.08,-163.8 1049.08,-163.8 1049.08,-163.51 1049.08,-163.51"/>
<polygon fill="black" stroke="black" points="1052.58,-170.88 1049.08,-160.88 1045.58,-170.88 1052.58,-170.88"/>
</g>
<!-- QuizQuestionRepository  -->
<g id="node31" class="node">
<title>QuizQuestionRepository </title>
<polygon fill="#fb8072" stroke="black" points="5204.2,-225.8 5045.8,-225.8 5045.8,-189.8 5204.2,-189.8 5204.2,-225.8"/>
<text text-anchor="middle" x="5125" y="-203.6" font-family="Times,serif" font-size="14.00">QuizQuestionRepository </text>
</g>
<!-- QuizQuestionService  -->
<g id="node32" class="node">
<title>QuizQuestionService </title>
<polygon fill="#fb8072" stroke="black" points="5027.74,-225.8 4888.26,-225.8 4888.26,-189.8 5027.74,-189.8 5027.74,-225.8"/>
<text text-anchor="middle" x="4958" y="-203.6" font-family="Times,serif" font-size="14.00">QuizQuestionService </text>
</g>
<!-- QuizQuestionModule -->
<g id="node33" class="node">
<title>QuizQuestionModule</title>
<polygon fill="#8dd3c7" stroke="black" points="5058.81,-160.8 5055.81,-164.8 5034.81,-164.8 5031.81,-160.8 4921.19,-160.8 4921.19,-124.8 5058.81,-124.8 5058.81,-160.8"/>
<text text-anchor="middle" x="4990" y="-138.6" font-family="Times,serif" font-size="14.00">QuizQuestionModule</text>
</g>
<!-- QuizQuestionModule&#45;&gt;QuizQuestionRepository  -->
<g id="edge30" class="edge">
<title>QuizQuestionModule&#45;&gt;QuizQuestionRepository </title>
<path fill="none" stroke="black" stroke-dasharray="5,2" d="M5052.15,-160.91C5052.15,-160.91 5052.15,-179.79 5052.15,-179.79"/>
<polygon fill="black" stroke="black" points="5048.65,-179.79 5052.15,-189.79 5055.65,-179.79 5048.65,-179.79"/>
</g>
<!-- QuizQuestionModule&#45;&gt;QuizQuestionService  -->
<g id="edge31" class="edge">
<title>QuizQuestionModule&#45;&gt;QuizQuestionService </title>
<path fill="none" stroke="black" stroke-dasharray="5,2" d="M4974.48,-160.91C4974.48,-160.91 4974.48,-179.79 4974.48,-179.79"/>
<polygon fill="black" stroke="black" points="4970.98,-179.79 4974.48,-189.79 4977.98,-179.79 4970.98,-179.79"/>
</g>
<!-- QuizQuestionRepository -->
<g id="node34" class="node">
<title>QuizQuestionRepository</title>
<ellipse fill="#fdb462" stroke="black" cx="5169" cy="-66.8" rx="107.1" ry="18"/>
<text text-anchor="middle" x="5169" y="-62.6" font-family="Times,serif" font-size="14.00">QuizQuestionRepository</text>
</g>
<!-- QuizQuestionRepository&#45;&gt;QuizQuestionModule -->
<g id="edge32" class="edge">
<title>QuizQuestionRepository&#45;&gt;QuizQuestionModule</title>
<path fill="none" stroke="black" d="M5061.6,-66.8C5055.11,-66.8 5051.14,-66.8 5051.14,-66.8 5051.14,-66.8 5051.14,-114.79 5051.14,-114.79"/>
<polygon fill="black" stroke="black" points="5047.64,-114.79 5051.14,-124.79 5054.64,-114.79 5047.64,-114.79"/>
</g>
<!-- QuizQuestionService -->
<g id="node35" class="node">
<title>QuizQuestionService</title>
<ellipse fill="#fdb462" stroke="black" cx="4950" cy="-66.8" rx="93.76" ry="18"/>
<text text-anchor="middle" x="4950" y="-62.6" font-family="Times,serif" font-size="14.00">QuizQuestionService</text>
</g>
<!-- QuizQuestionService&#45;&gt;QuizQuestionModule -->
<g id="edge33" class="edge">
<title>QuizQuestionService&#45;&gt;QuizQuestionModule</title>
<path fill="none" stroke="black" d="M4982.49,-84.05C4982.49,-84.05 4982.49,-114.56 4982.49,-114.56"/>
<polygon fill="black" stroke="black" points="4978.99,-114.56 4982.49,-124.56 4985.99,-114.56 4978.99,-114.56"/>
</g>
<!-- RoleRepository -->
<g id="node38" class="node">
<title>RoleRepository</title>
<ellipse fill="#fdb462" stroke="black" cx="1350" cy="-283.8" rx="71.81" ry="18"/>
<text text-anchor="middle" x="1350" y="-279.6" font-family="Times,serif" font-size="14.00">RoleRepository</text>
</g>
<!-- RoleRepository&#45;&gt;RoleModule -->
<g id="edge37" class="edge">
<title>RoleRepository&#45;&gt;RoleModule</title>
<path fill="none" stroke="black" d="M1292.95,-294.8C1258.34,-294.8 1220.8,-294.8 1220.8,-294.8 1220.8,-294.8 1220.8,-235.83 1220.8,-235.83"/>
<polygon fill="black" stroke="black" points="1224.3,-235.83 1220.8,-225.83 1217.3,-235.83 1224.3,-235.83"/>
</g>
<!-- RoleService -->
<g id="node39" class="node">
<title>RoleService</title>
<ellipse fill="#fdb462" stroke="black" cx="1498" cy="-283.8" rx="58.46" ry="18"/>
<text text-anchor="middle" x="1498" y="-279.6" font-family="Times,serif" font-size="14.00">RoleService</text>
</g>
<!-- RoleService&#45;&gt;RoleModule -->
<g id="edge38" class="edge">
<title>RoleService&#45;&gt;RoleModule</title>
<path fill="none" stroke="black" d="M1453.74,-272.03C1453.74,-266.37 1453.74,-260.8 1453.74,-260.8 1453.74,-260.8 1203.6,-260.8 1203.6,-260.8 1203.6,-260.8 1203.6,-236.04 1203.6,-236.04"/>
<polygon fill="black" stroke="black" points="1207.1,-236.04 1203.6,-226.04 1200.1,-236.04 1207.1,-236.04"/>
</g>
<!-- SchoolRepository -->
<g id="node42" class="node">
<title>SchoolRepository</title>
<ellipse fill="#fdb462" stroke="black" cx="4474" cy="-207.8" rx="80.48" ry="18"/>
<text text-anchor="middle" x="4474" y="-203.6" font-family="Times,serif" font-size="14.00">SchoolRepository</text>
</g>
<!-- SchoolRepository&#45;&gt;SchoolModule -->
<g id="edge41" class="edge">
<title>SchoolRepository&#45;&gt;SchoolModule</title>
<path fill="none" stroke="black" d="M4474,-189.5C4474,-171.53 4474,-146.8 4474,-146.8 4474,-146.8 1248.31,-146.8 1248.31,-146.8"/>
<polygon fill="black" stroke="black" points="1248.31,-143.3 1238.31,-146.8 1248.31,-150.3 1248.31,-143.3"/>
</g>
<!-- SchoolService -->
<g id="node43" class="node">
<title>SchoolService</title>
<ellipse fill="#fdb462" stroke="black" cx="4309" cy="-207.8" rx="66.63" ry="18"/>
<text text-anchor="middle" x="4309" y="-203.6" font-family="Times,serif" font-size="14.00">SchoolService</text>
</g>
<!-- SchoolService&#45;&gt;SchoolModule -->
<g id="edge42" class="edge">
<title>SchoolService&#45;&gt;SchoolModule</title>
<path fill="none" stroke="black" d="M4309,-189.52C4309,-173.85 4309,-153.8 4309,-153.8 4309,-153.8 1248.32,-153.8 1248.32,-153.8"/>
<polygon fill="black" stroke="black" points="1248.32,-150.3 1238.32,-153.8 1248.32,-157.3 1248.32,-150.3"/>
</g>
<!-- UserRepository -->
<g id="node45" class="node">
<title>UserRepository</title>
<ellipse fill="#fdb462" stroke="black" cx="238" cy="-66.8" rx="71.79" ry="18"/>
<text text-anchor="middle" x="238" y="-62.6" font-family="Times,serif" font-size="14.00">UserRepository</text>
</g>
<!-- UserRepository&#45;&gt;UsersModule -->
<g id="edge44" class="edge">
<title>UserRepository&#45;&gt;UsersModule</title>
<path fill="none" stroke="black" d="M279.13,-81.62C279.13,-87.46 279.13,-92.8 279.13,-92.8 279.13,-92.8 390.48,-92.8 390.48,-92.8 390.48,-92.8 390.48,-114.75 390.48,-114.75"/>
<polygon fill="black" stroke="black" points="386.98,-114.75 390.48,-124.75 393.98,-114.75 386.98,-114.75"/>
</g>
<!-- UsersService -->
<g id="node46" class="node">
<title>UsersService</title>
<ellipse fill="#fdb462" stroke="black" cx="86" cy="-66.8" rx="61.95" ry="18"/>
<text text-anchor="middle" x="86" y="-62.6" font-family="Times,serif" font-size="14.00">UsersService</text>
</g>
<!-- UsersService&#45;&gt;UsersModule -->
<g id="edge45" class="edge">
<title>UsersService&#45;&gt;UsersModule</title>
<path fill="none" stroke="black" d="M129.68,-79.85C129.68,-89.44 129.68,-100.8 129.68,-100.8 129.68,-100.8 371.89,-100.8 371.89,-100.8 371.89,-100.8 371.89,-114.74 371.89,-114.74"/>
<polygon fill="black" stroke="black" points="368.39,-114.74 371.89,-124.74 375.39,-114.74 368.39,-114.74"/>
</g>
</g>
</svg>
