<?xml version="1.0" encoding="UTF-8" standalone="no"?>
<!DOCTYPE svg PUBLIC "-//W3C//DTD SVG 1.1//EN"
 "http://www.w3.org/Graphics/SVG/1.1/DTD/svg11.dtd">
<!-- Generated by graphviz version 2.47.3 (20210619.1520)
 -->
<!-- Title: dependencies Pages: 1 -->
<svg width="566pt" height="247pt"
 viewBox="0.00 0.00 566.00 246.80" xmlns="http://www.w3.org/2000/svg" xmlns:xlink="http://www.w3.org/1999/xlink">
<g id="graph0" class="graph" transform="scale(1 1) rotate(0) translate(4 242.8)">
<title>dependencies</title>
<polygon fill="white" stroke="transparent" points="-4,4 -4,-242.8 562,-242.8 562,4 -4,4"/>
<text text-anchor="middle" x="279" y="-8.2" font-family="sans-serif" font-size="14.00">dependencies</text>
<g id="clust1" class="cluster">
<title>cluster_QuizAnswerModule</title>
<polygon fill="none" stroke="black" stroke-dasharray="1,5" points="8,-32.8 8,-230.8 550,-230.8 550,-32.8 8,-32.8"/>
</g>
<g id="clust6" class="cluster">
<title>cluster_QuizAnswerModule_providers</title>
<polygon fill="none" stroke="black" points="126,-40.8 126,-92.8 542,-92.8 542,-40.8 126,-40.8"/>
</g>
<g id="clust3" class="cluster">
<title>cluster_QuizAnswerModule_imports</title>
<polygon fill="none" stroke="black" points="16,-40.8 16,-92.8 118,-92.8 118,-40.8 16,-40.8"/>
</g>
<g id="clust4" class="cluster">
<title>cluster_QuizAnswerModule_exports</title>
<polygon fill="none" stroke="black" points="83,-170.8 83,-222.8 401,-222.8 401,-170.8 83,-170.8"/>
</g>
<!-- QuizModule -->
<g id="node1" class="node">
<title>QuizModule</title>
<polygon fill="#8dd3c7" stroke="black" points="110.26,-84.8 107.26,-88.8 86.26,-88.8 83.26,-84.8 23.74,-84.8 23.74,-48.8 110.26,-48.8 110.26,-84.8"/>
<text text-anchor="middle" x="67" y="-62.6" font-family="Times,serif" font-size="14.00">QuizModule</text>
</g>
<!-- QuizAnswerModule -->
<g id="node2" class="node">
<title>QuizAnswerModule</title>
<polygon fill="#8dd3c7" stroke="black" points="288.29,-149.8 285.29,-153.8 264.29,-153.8 261.29,-149.8 157.71,-149.8 157.71,-113.8 288.29,-113.8 288.29,-149.8"/>
<text text-anchor="middle" x="223" y="-127.6" font-family="Times,serif" font-size="14.00">QuizAnswerModule</text>
</g>
<!-- QuizModule&#45;&gt;QuizAnswerModule -->
<g id="edge1" class="edge">
<title>QuizModule&#45;&gt;QuizAnswerModule</title>
<path fill="none" stroke="black" d="M100.63,-84.91C100.63,-104.14 100.63,-131.8 100.63,-131.8 100.63,-131.8 147.52,-131.8 147.52,-131.8"/>
<polygon fill="black" stroke="black" points="147.52,-135.3 157.52,-131.8 147.52,-128.3 147.52,-135.3"/>
</g>
<!-- QuizAnswerRepository  -->
<g id="node3" class="node">
<title>QuizAnswerRepository </title>
<polygon fill="#fb8072" stroke="black" points="392.68,-214.8 241.32,-214.8 241.32,-178.8 392.68,-178.8 392.68,-214.8"/>
<text text-anchor="middle" x="317" y="-192.6" font-family="Times,serif" font-size="14.00">QuizAnswerRepository </text>
</g>
<!-- QuizAnswerModule&#45;&gt;QuizAnswerRepository  -->
<g id="edge2" class="edge">
<title>QuizAnswerModule&#45;&gt;QuizAnswerRepository </title>
<path fill="none" stroke="black" stroke-dasharray="5,2" d="M264.65,-149.91C264.65,-149.91 264.65,-168.79 264.65,-168.79"/>
<polygon fill="black" stroke="black" points="261.15,-168.79 264.65,-178.79 268.15,-168.79 261.15,-168.79"/>
</g>
<!-- QuizAnswerService  -->
<g id="node4" class="node">
<title>QuizAnswerService </title>
<polygon fill="#fb8072" stroke="black" points="223.22,-214.8 90.78,-214.8 90.78,-178.8 223.22,-178.8 223.22,-214.8"/>
<text text-anchor="middle" x="157" y="-192.6" font-family="Times,serif" font-size="14.00">QuizAnswerService </text>
</g>
<!-- QuizAnswerModule&#45;&gt;QuizAnswerService  -->
<g id="edge3" class="edge">
<title>QuizAnswerModule&#45;&gt;QuizAnswerService </title>
<path fill="none" stroke="black" stroke-dasharray="5,2" d="M190.48,-149.91C190.48,-149.91 190.48,-168.79 190.48,-168.79"/>
<polygon fill="black" stroke="black" points="186.98,-168.79 190.48,-178.79 193.98,-168.79 186.98,-168.79"/>
</g>
<!-- QuizAnswerRepository -->
<g id="node5" class="node">
<title>QuizAnswerRepository</title>
<ellipse fill="#fdb462" stroke="black" cx="432" cy="-66.8" rx="102.43" ry="18"/>
<text text-anchor="middle" x="432" y="-62.6" font-family="Times,serif" font-size="14.00">QuizAnswerRepository</text>
</g>
<!-- QuizAnswerRepository&#45;&gt;QuizAnswerModule -->
<g id="edge4" class="edge">
<title>QuizAnswerRepository&#45;&gt;QuizAnswerModule</title>
<path fill="none" stroke="black" d="M361.31,-79.95C361.31,-98.95 361.31,-131.8 361.31,-131.8 361.31,-131.8 298.51,-131.8 298.51,-131.8"/>
<polygon fill="black" stroke="black" points="298.51,-128.3 288.51,-131.8 298.51,-135.3 298.51,-128.3"/>
</g>
<!-- QuizAnswerService -->
<g id="node6" class="node">
<title>QuizAnswerService</title>
<ellipse fill="#fdb462" stroke="black" cx="223" cy="-66.8" rx="88.58" ry="18"/>
<text text-anchor="middle" x="223" y="-62.6" font-family="Times,serif" font-size="14.00">QuizAnswerService</text>
</g>
<!-- QuizAnswerService&#45;&gt;QuizAnswerModule -->
<g id="edge5" class="edge">
<title>QuizAnswerService&#45;&gt;QuizAnswerModule</title>
<path fill="none" stroke="black" d="M223,-84.91C223,-84.91 223,-103.79 223,-103.79"/>
<polygon fill="black" stroke="black" points="219.5,-103.79 223,-113.79 226.5,-103.79 219.5,-103.79"/>
</g>
</g>
</svg>
