<?xml version="1.0" encoding="UTF-8" standalone="no"?>
<!DOCTYPE svg PUBLIC "-//W3C//DTD SVG 1.1//EN"
 "http://www.w3.org/Graphics/SVG/1.1/DTD/svg11.dtd">
<!-- Generated by graphviz version 2.47.3 (20210619.1520)
 -->
<!-- Title: dependencies Pages: 1 -->
<svg width="364pt" height="247pt"
 viewBox="0.00 0.00 364.00 246.80" xmlns="http://www.w3.org/2000/svg" xmlns:xlink="http://www.w3.org/1999/xlink">
<g id="graph0" class="graph" transform="scale(1 1) rotate(0) translate(4 242.8)">
<title>dependencies</title>
<polygon fill="white" stroke="transparent" points="-4,4 -4,-242.8 360,-242.8 360,4 -4,4"/>
<text text-anchor="middle" x="178" y="-8.2" font-family="sans-serif" font-size="14.00">dependencies</text>
<g id="clust1" class="cluster">
<title>cluster_PuzzleModule</title>
<polygon fill="none" stroke="black" stroke-dasharray="1,5" points="8,-32.8 8,-230.8 348,-230.8 348,-32.8 8,-32.8"/>
</g>
<g id="clust4" class="cluster">
<title>cluster_PuzzleModule_exports</title>
<polygon fill="none" stroke="black" points="39,-170.8 39,-222.8 290,-222.8 290,-170.8 39,-170.8"/>
</g>
<g id="clust6" class="cluster">
<title>cluster_PuzzleModule_providers</title>
<polygon fill="none" stroke="black" points="16,-40.8 16,-92.8 340,-92.8 340,-40.8 16,-40.8"/>
</g>
<!-- PuzzleRepository  -->
<g id="node1" class="node">
<title>PuzzleRepository </title>
<polygon fill="#fb8072" stroke="black" points="282.25,-214.8 163.75,-214.8 163.75,-178.8 282.25,-178.8 282.25,-214.8"/>
<text text-anchor="middle" x="223" y="-192.6" font-family="Times,serif" font-size="14.00">PuzzleRepository </text>
</g>
<!-- PuzzleService  -->
<g id="node2" class="node">
<title>PuzzleService </title>
<polygon fill="#fb8072" stroke="black" points="145.29,-214.8 46.71,-214.8 46.71,-178.8 145.29,-178.8 145.29,-214.8"/>
<text text-anchor="middle" x="96" y="-192.6" font-family="Times,serif" font-size="14.00">PuzzleService </text>
</g>
<!-- PuzzleModule -->
<g id="node3" class="node">
<title>PuzzleModule</title>
<polygon fill="#8dd3c7" stroke="black" points="166.37,-149.8 163.37,-153.8 142.37,-153.8 139.37,-149.8 69.63,-149.8 69.63,-113.8 166.37,-113.8 166.37,-149.8"/>
<text text-anchor="middle" x="118" y="-127.6" font-family="Times,serif" font-size="14.00">PuzzleModule</text>
</g>
<!-- PuzzleModule&#45;&gt;PuzzleRepository  -->
<g id="edge1" class="edge">
<title>PuzzleModule&#45;&gt;PuzzleRepository </title>
<path fill="none" stroke="black" stroke-dasharray="5,2" d="M166.39,-131.8C168.74,-131.8 170.14,-131.8 170.14,-131.8 170.14,-131.8 170.14,-168.69 170.14,-168.69"/>
<polygon fill="black" stroke="black" points="166.64,-168.69 170.14,-178.69 173.64,-168.69 166.64,-168.69"/>
</g>
<!-- PuzzleModule&#45;&gt;PuzzleService  -->
<g id="edge2" class="edge">
<title>PuzzleModule&#45;&gt;PuzzleService </title>
<path fill="none" stroke="black" stroke-dasharray="5,2" d="M107.48,-149.91C107.48,-149.91 107.48,-168.79 107.48,-168.79"/>
<polygon fill="black" stroke="black" points="103.98,-168.79 107.48,-178.79 110.98,-168.79 103.98,-168.79"/>
</g>
<!-- PuzzleRepository -->
<g id="node4" class="node">
<title>PuzzleRepository</title>
<ellipse fill="#fdb462" stroke="black" cx="253" cy="-66.8" rx="79.31" ry="18"/>
<text text-anchor="middle" x="253" y="-62.6" font-family="Times,serif" font-size="14.00">PuzzleRepository</text>
</g>
<!-- PuzzleRepository&#45;&gt;PuzzleModule -->
<g id="edge3" class="edge">
<title>PuzzleRepository&#45;&gt;PuzzleModule</title>
<path fill="none" stroke="black" d="M173.48,-66.8C165.97,-66.8 161.08,-66.8 161.08,-66.8 161.08,-66.8 161.08,-103.69 161.08,-103.69"/>
<polygon fill="black" stroke="black" points="157.58,-103.69 161.08,-113.69 164.58,-103.69 157.58,-103.69"/>
</g>
<!-- PuzzleService -->
<g id="node5" class="node">
<title>PuzzleService</title>
<ellipse fill="#fdb462" stroke="black" cx="90" cy="-66.8" rx="65.97" ry="18"/>
<text text-anchor="middle" x="90" y="-62.6" font-family="Times,serif" font-size="14.00">PuzzleService</text>
</g>
<!-- PuzzleService&#45;&gt;PuzzleModule -->
<g id="edge4" class="edge">
<title>PuzzleService&#45;&gt;PuzzleModule</title>
<path fill="none" stroke="black" d="M112.65,-83.88C112.65,-83.88 112.65,-103.7 112.65,-103.7"/>
<polygon fill="black" stroke="black" points="109.15,-103.7 112.65,-113.7 116.15,-103.7 109.15,-103.7"/>
</g>
</g>
</svg>
