<?xml version="1.0" encoding="UTF-8" standalone="no"?>
<!DOCTYPE svg PUBLIC "-//W3C//DTD SVG 1.1//EN"
 "http://www.w3.org/Graphics/SVG/1.1/DTD/svg11.dtd">
<!-- Generated by graphviz version 2.47.3 (20210619.1520)
 -->
<!-- Title: dependencies Pages: 1 -->
<svg width="342pt" height="247pt"
 viewBox="0.00 0.00 342.00 246.80" xmlns="http://www.w3.org/2000/svg" xmlns:xlink="http://www.w3.org/1999/xlink">
<g id="graph0" class="graph" transform="scale(1 1) rotate(0) translate(4 242.8)">
<title>dependencies</title>
<polygon fill="white" stroke="transparent" points="-4,4 -4,-242.8 338,-242.8 338,4 -4,4"/>
<text text-anchor="middle" x="167" y="-8.2" font-family="sans-serif" font-size="14.00">dependencies</text>
<g id="clust1" class="cluster">
<title>cluster_UsersModule</title>
<polygon fill="none" stroke="black" stroke-dasharray="1,5" points="8,-32.8 8,-230.8 326,-230.8 326,-32.8 8,-32.8"/>
</g>
<g id="clust4" class="cluster">
<title>cluster_UsersModule_exports</title>
<polygon fill="none" stroke="black" points="107,-170.8 107,-222.8 217,-222.8 217,-170.8 107,-170.8"/>
</g>
<g id="clust6" class="cluster">
<title>cluster_UsersModule_providers</title>
<polygon fill="none" stroke="black" points="16,-40.8 16,-92.8 318,-92.8 318,-40.8 16,-40.8"/>
</g>
<!-- UsersService  -->
<g id="node1" class="node">
<title>UsersService </title>
<polygon fill="#fb8072" stroke="black" points="208.85,-214.8 115.15,-214.8 115.15,-178.8 208.85,-178.8 208.85,-214.8"/>
<text text-anchor="middle" x="162" y="-192.6" font-family="Times,serif" font-size="14.00">UsersService </text>
</g>
<!-- UsersModule -->
<g id="node2" class="node">
<title>UsersModule</title>
<polygon fill="#8dd3c7" stroke="black" points="207.92,-149.8 204.92,-153.8 183.92,-153.8 180.92,-149.8 116.08,-149.8 116.08,-113.8 207.92,-113.8 207.92,-149.8"/>
<text text-anchor="middle" x="162" y="-127.6" font-family="Times,serif" font-size="14.00">UsersModule</text>
</g>
<!-- UsersModule&#45;&gt;UsersService  -->
<g id="edge1" class="edge">
<title>UsersModule&#45;&gt;UsersService </title>
<path fill="none" stroke="black" stroke-dasharray="5,2" d="M162,-149.91C162,-149.91 162,-168.79 162,-168.79"/>
<polygon fill="black" stroke="black" points="158.5,-168.79 162,-178.79 165.5,-168.79 158.5,-168.79"/>
</g>
<!-- UserRepository -->
<g id="node3" class="node">
<title>UserRepository</title>
<ellipse fill="#fdb462" stroke="black" cx="238" cy="-66.8" rx="71.79" ry="18"/>
<text text-anchor="middle" x="238" y="-62.6" font-family="Times,serif" font-size="14.00">UserRepository</text>
</g>
<!-- UserRepository&#45;&gt;UsersModule -->
<g id="edge2" class="edge">
<title>UserRepository&#45;&gt;UsersModule</title>
<path fill="none" stroke="black" d="M187.03,-79.64C187.03,-79.64 187.03,-103.32 187.03,-103.32"/>
<polygon fill="black" stroke="black" points="183.53,-103.32 187.03,-113.32 190.53,-103.32 183.53,-103.32"/>
</g>
<!-- UsersService -->
<g id="node4" class="node">
<title>UsersService</title>
<ellipse fill="#fdb462" stroke="black" cx="86" cy="-66.8" rx="61.95" ry="18"/>
<text text-anchor="middle" x="86" y="-62.6" font-family="Times,serif" font-size="14.00">UsersService</text>
</g>
<!-- UsersService&#45;&gt;UsersModule -->
<g id="edge3" class="edge">
<title>UsersService&#45;&gt;UsersModule</title>
<path fill="none" stroke="black" d="M132.13,-79.03C132.13,-79.03 132.13,-103.48 132.13,-103.48"/>
<polygon fill="black" stroke="black" points="128.63,-103.48 132.13,-113.48 135.63,-103.48 128.63,-103.48"/>
</g>
</g>
</svg>
