<?xml version="1.0" encoding="UTF-8" standalone="no"?>
<!DOCTYPE svg PUBLIC "-//W3C//DTD SVG 1.1//EN"
 "http://www.w3.org/Graphics/SVG/1.1/DTD/svg11.dtd">
<!-- Generated by graphviz version 2.47.3 (20210619.1520)
 -->
<!-- Title: dependencies Pages: 1 -->
<svg width="452pt" height="247pt"
 viewBox="0.00 0.00 452.00 246.80" xmlns="http://www.w3.org/2000/svg" xmlns:xlink="http://www.w3.org/1999/xlink">
<g id="graph0" class="graph" transform="scale(1 1) rotate(0) translate(4 242.8)">
<title>dependencies</title>
<polygon fill="white" stroke="transparent" points="-4,4 -4,-242.8 448,-242.8 448,4 -4,4"/>
<text text-anchor="middle" x="222" y="-8.2" font-family="sans-serif" font-size="14.00">dependencies</text>
<g id="clust1" class="cluster">
<title>cluster_MirrorWordModule</title>
<polygon fill="none" stroke="black" stroke-dasharray="1,5" points="8,-32.8 8,-230.8 436,-230.8 436,-32.8 8,-32.8"/>
</g>
<g id="clust6" class="cluster">
<title>cluster_MirrorWordModule_providers</title>
<polygon fill="none" stroke="black" points="16,-40.8 16,-92.8 428,-92.8 428,-40.8 16,-40.8"/>
</g>
<g id="clust4" class="cluster">
<title>cluster_MirrorWordModule_exports</title>
<polygon fill="none" stroke="black" points="46,-170.8 46,-222.8 360,-222.8 360,-170.8 46,-170.8"/>
</g>
<!-- MirrorWordRepository  -->
<g id="node1" class="node">
<title>MirrorWordRepository </title>
<polygon fill="#fb8072" stroke="black" points="352.13,-214.8 201.87,-214.8 201.87,-178.8 352.13,-178.8 352.13,-214.8"/>
<text text-anchor="middle" x="277" y="-192.6" font-family="Times,serif" font-size="14.00">MirrorWordRepository </text>
</g>
<!-- MirrorWordService  -->
<g id="node2" class="node">
<title>MirrorWordService </title>
<polygon fill="#fb8072" stroke="black" points="184.17,-214.8 53.83,-214.8 53.83,-178.8 184.17,-178.8 184.17,-214.8"/>
<text text-anchor="middle" x="119" y="-192.6" font-family="Times,serif" font-size="14.00">MirrorWordService </text>
</g>
<!-- MirrorWordModule -->
<g id="node3" class="node">
<title>MirrorWordModule</title>
<polygon fill="#8dd3c7" stroke="black" points="213.24,-149.8 210.24,-153.8 189.24,-153.8 186.24,-149.8 84.76,-149.8 84.76,-113.8 213.24,-113.8 213.24,-149.8"/>
<text text-anchor="middle" x="149" y="-127.6" font-family="Times,serif" font-size="14.00">MirrorWordModule</text>
</g>
<!-- MirrorWordModule&#45;&gt;MirrorWordRepository  -->
<g id="edge1" class="edge">
<title>MirrorWordModule&#45;&gt;MirrorWordRepository </title>
<path fill="none" stroke="black" stroke-dasharray="5,2" d="M207.65,-149.91C207.65,-149.91 207.65,-168.79 207.65,-168.79"/>
<polygon fill="black" stroke="black" points="204.15,-168.79 207.65,-178.79 211.15,-168.79 204.15,-168.79"/>
</g>
<!-- MirrorWordModule&#45;&gt;MirrorWordService  -->
<g id="edge2" class="edge">
<title>MirrorWordModule&#45;&gt;MirrorWordService </title>
<path fill="none" stroke="black" stroke-dasharray="5,2" d="M134.48,-149.91C134.48,-149.91 134.48,-168.79 134.48,-168.79"/>
<polygon fill="black" stroke="black" points="130.98,-168.79 134.48,-178.79 137.98,-168.79 130.98,-168.79"/>
</g>
<!-- MirrorWordRepository -->
<g id="node4" class="node">
<title>MirrorWordRepository</title>
<ellipse fill="#fdb462" stroke="black" cx="319" cy="-66.8" rx="101.29" ry="18"/>
<text text-anchor="middle" x="319" y="-62.6" font-family="Times,serif" font-size="14.00">MirrorWordRepository</text>
</g>
<!-- MirrorWordRepository&#45;&gt;MirrorWordModule -->
<g id="edge3" class="edge">
<title>MirrorWordRepository&#45;&gt;MirrorWordModule</title>
<path fill="none" stroke="black" d="M217.74,-66.8C210.84,-66.8 206.55,-66.8 206.55,-66.8 206.55,-66.8 206.55,-103.69 206.55,-103.69"/>
<polygon fill="black" stroke="black" points="203.05,-103.69 206.55,-113.69 210.05,-103.69 203.05,-103.69"/>
</g>
<!-- MirrorWordService -->
<g id="node5" class="node">
<title>MirrorWordService</title>
<ellipse fill="#fdb462" stroke="black" cx="112" cy="-66.8" rx="87.94" ry="18"/>
<text text-anchor="middle" x="112" y="-62.6" font-family="Times,serif" font-size="14.00">MirrorWordService</text>
</g>
<!-- MirrorWordService&#45;&gt;MirrorWordModule -->
<g id="edge4" class="edge">
<title>MirrorWordService&#45;&gt;MirrorWordModule</title>
<path fill="none" stroke="black" d="M142.17,-83.88C142.17,-83.88 142.17,-103.7 142.17,-103.7"/>
<polygon fill="black" stroke="black" points="138.67,-103.7 142.17,-113.7 145.67,-103.7 138.67,-103.7"/>
</g>
</g>
</svg>
